<svg id="Layer_1" data-name="Layer 1" xmlns="http://www.w3.org/2000/svg" xmlns:xlink="http://www.w3.org/1999/xlink" width="1920" height="1081" viewBox="0 0 1920 1081"><defs><style>.cls-1{fill:#bbcbe4;}.cls-2{fill:#066900;}.cls-3{fill:gray;}.cls-4{fill:#436126;}.cls-5{fill:#6e6152;}.cls-6{fill:#d4cbcc;}.cls-7{fill:#8991aa;}.cls-8{fill:#42210b;}.cls-9{fill:#534741;}.cls-10{fill:#c7b299;}.cls-11{fill:#dcab01;}.cls-11,.cls-12{stroke:#7c7a82;stroke-miterlimit:10;stroke-width:5px;}.cls-12{fill:#b5f1ef;}.cls-13{fill:#2b2934;}.cls-14{fill:url(#linear-gradient);}.cls-15{fill:#ff4244;}</style><linearGradient id="linear-gradient" x1="1353" y1="645" x2="1599" y2="645" gradientUnits="userSpaceOnUse"><stop offset="0" stop-color="#0071bc"/><stop offset="0.03566" stop-color="#008bc8"/><stop offset="0.09275" stop-color="#00afd9"/><stop offset="0.15323" stop-color="#00cce7"/><stop offset="0.21721" stop-color="#00e3f2"/><stop offset="0.28631" stop-color="#00f3f9"/><stop offset="0.36414" stop-color="#00fcfe"/><stop offset="0.46918" stop-color="aqua"/><stop offset="0.53809" stop-color="#00f7fb"/><stop offset="0.64266" stop-color="#00e2f2"/><stop offset="0.76989" stop-color="#00c0e1"/><stop offset="0.91365" stop-color="#0091cb"/><stop offset="1" stop-color="#0071bc"/></linearGradient></defs><rect class="cls-1" width="1920" height="1080"/><path class="cls-2" d="M0,633V430c92.62653-9.67114,159.17761,53.22263,159,102C158.82292,580.63385,92.20879,642.821,0,633Z" transform="translate(0)"/><path class="cls-3" d="M1920,374v706H0V565q28.5-5,57-10c12.91631-48.86575,35.99273-79.95248,50-96,52.1723-59.77148,136.48039-91.86194,209-83,32.96863,4.02878,44.95624,14.25531,94,17,32.58441,1.82358,61.58664-.77139,90.504-3.45746C544.48627,385.45712,576.90234,379.36142,581,379c94.49719-8.33484,292.91406,7.861,339,11,57.57855,3.92172,231.88965,18.0321,419-39,150.47253-45.86472,240.91565-125.008,332-80,28.72864,14.19583,41.07446,32.39194,94,58C1825.90747,358.47012,1881.937,369.39288,1920,374Z" transform="translate(0)"/><path class="cls-4" d="M1920,356V542q-161.00005-5-322-10-.99995-21-2-42a508.45414,508.45414,0,0,0,89-6,510.80185,510.80185,0,0,0,133-40c4.89648-37.55136-3.75867-60.1384-13-74-19.81592-29.72311-51.1084-32.49979-106-61a483.59986,483.59986,0,0,1-76-49c-13.94971,36.47488-39.07495,83.51987-85,100-29.41553,10.55569-52.35779,1.764-90,0-38.09229-1.78513-94.45837.511-171,20-523.16687,20.486-706.306,31.17676-748,37-24.39313,3.40689-69.44907,14.7955-126,16-7.5574.161-15.83789.15109-27,3-45.57568,11.63232-70.81839,53.47409-74,51-2.95956-2.30142,24.83563-33.87762,17-45-5.46082-7.75143-22.9422,1.934-62,5-40.49957,3.17923-44.49028-5.44568-63,2-32.55014,13.09354-44.86954,49.68567-53,46-6.24437-2.83066,1.41237-24.238-6-28-5.68858-2.88708-15.35633,7.10339-42,30-10.7662,9.25208-19.59447,16.56409-25,21a330.751,330.751,0,0,1,39-59c18.1888-21.97037,41.17128-49.73108,79-69,55.72838-28.38654,143.02634-38.01251,173-4,5.41946,6.14972,16.61108,22.40253,35.3811,24.84091,9.82071,1.27579,17.37793-2.52691,21.48981-3.231C465.24847,399.15433,488.9537,387.11868,581,379c40.59589-3.58063,74.9505-4.76825,105.94312-4.50043C785.70026,375.353,898.07239,387.74747,920,390c40.98236,4.21,280.91455,31.56064,503-68,114.68311-51.41229,148.53943-92.99055,214-76,46.0387,11.94952,62.15381,41.94733,131,73C1827.844,345.99228,1882.98376,353.689,1920,356Z" transform="translate(0)"/><rect class="cls-5" y="501" width="1920" height="579"/><path class="cls-6" d="M1920,477.42816v46.63635H0V477.42816Z" transform="translate(0)"/><rect class="cls-7" x="1" y="565" width="346" height="515"/><rect class="cls-6" x="1" y="999" width="467" height="82"/><rect class="cls-6" x="1" y="681" width="467" height="30"/><rect class="cls-6" x="1" y="565" width="467" height="16"/><rect class="cls-6" x="-225.5" y="791.5" width="467" height="16" transform="translate(807.5 791.5) rotate(90)"/><rect class="cls-7" x="1574" y="710" width="330" height="288"/><rect class="cls-7" x="1574" y="580" width="330" height="100"/><polygon class="cls-8" points="1920 564 1920 1080 1453 1080 1453 998 1904 998 1904 710 1453 710 1453 680 1904 680 1904 580 1453 580 1453 564 1920 564"/><rect class="cls-5" x="210.74194" y="106" width="1498.51613" height="974"/><path class="cls-7" d="M1634.89,392h.11v688H285V392h.11c-.08-2.33-.11-4.66-.11-7A237.01464,237.01464,0,0,1,522,148h876c130.89,0,237,106.11,237,237C1635,387.34,1634.97,389.67,1634.89,392Z" transform="translate(0)"/><path class="cls-6" d="M683,1079.6499V1080h334v-.3501Z" transform="translate(0)"/><rect class="cls-6" x="683" y="1079.6499" width="22" height="0.3501"/><rect class="cls-6" x="893" y="1079.6499" width="22" height="0.3501"/><rect class="cls-6" x="995" y="1079.6499" width="22" height="0.3501"/><path class="cls-6" d="M1634,385c0-130.89-106.11-237-237-237H521A237.01464,237.01464,0,0,0,284,385c0,2.34.03,4.67.11,7H284v688H683v-.3501H305.87V835H445v242h22V835H683v244.6499h22V835H893v244.6499h22V835h80v244.6499h22V835h199v241h22V835h227v242h22V835h128.87v244.6499H1017V1080h617V392h-.11C1633.97,389.67,1634,387.34,1634,385ZM445,813H305.87V696H445Zm0-199H305.87V406.41h.11c-.08-2.28-.11-4.56-.11-6.85A234.82572,234.82572,0,0,1,310.5,353H445Zm0-283H316.09A231.76145,231.76145,0,0,1,445,186.46ZM683,813H467V696H683Zm0-199H467V353H683Zm0-283H467V178.23a227.81992,227.81992,0,0,1,68.85-10.58H683ZM893,813H705V696H893Zm0-199H705V353H893Zm0-283H705V167.65H893ZM995,813H915V696h80Zm0-199H915V353h80Zm0-283H915V167.65h80Zm221,482H1017V696h199Zm0-199H1017V353h199Zm0-283H1017V167.65h199Zm249,482H1238V696h227Zm0-199H1238V353h227Zm0-283H1238V167.65h147.89A227.87405,227.87405,0,0,1,1465,181.73Zm22-139.79A232.00163,232.00163,0,0,1,1605.65,331H1487ZM1615.87,813H1487V696h128.87Zm0-406.59V614H1487V353h124.24a235.57068,235.57068,0,0,1,4.63,46.56c0,2.29-.02991,4.57-.11,6.85Z" transform="translate(0)"/><rect class="cls-9" x="188" y="91" width="46" height="989"/><rect class="cls-9" x="1686" y="91" width="46" height="989"/><polygon class="cls-5" points="1330 106 1330 1080 591 1080 591 106 658 106 658 658.17 1263 658.17 1263 106 1330 106"/><rect class="cls-10" x="1186" y="672" width="123" height="59" rx="19.1129"/><rect class="cls-10" x="689" y="749" width="123" height="59" rx="19.1129"/><rect class="cls-10" x="825" y="749" width="123" height="59" rx="19.1129"/><rect class="cls-10" x="774" y="818" width="123" height="59" rx="19.1129"/><rect class="cls-10" x="945" y="965" width="123" height="59" rx="19.1129"/><rect class="cls-10" x="998" y="895" width="123" height="59" rx="19.1129"/><path class="cls-10" d="M665,1000.11v20.78A19.11536,19.11536,0,0,1,645.89,1040H591V981h54.89A19.11533,19.11533,0,0,1,665,1000.11Z" transform="translate(0)"/><path class="cls-10" d="M1330,895v59h-19.89A19.11536,19.11536,0,0,1,1291,934.89V914.11A19.11536,19.11536,0,0,1,1310.11,895Z" transform="translate(0)"/><polygon class="cls-6" points="1737.5 67.364 1737.5 114 182.5 114 182.5 67.364 211 67.364 211 24 1709 24 1709 67.364 1737.5 67.364"/><polygon class="cls-11" points="603.028 238.864 499.192 263.362 487.645 429.559 579.934 571.257 683.77 546.759 695.317 380.563 603.028 238.864"/><path class="cls-12" d="M578.65332,529.04221l35.90591-8.47132-7.48289-28.53437q13.08123,12.55233,26.16244,25.10469,15.64755-3.20307,31.29514-6.4061-22.54241-107.57277-45.08485-215.14555-23.53411,6.52983-47.06829,13.05971,2.17,10.2396,4.34,20.47915l-26.17223-17.28307-40.029,8.46669Q544.58644,424.67711,578.65332,529.04221Z" transform="translate(0)"/><polygon class="cls-11" points="921.225 262.547 816.368 242.341 730.639 387.7 749.769 553.265 854.627 573.472 940.355 428.113 921.225 262.547"/><path class="cls-12" d="M863.481,289.63318c-30.33-6.05151-69.44,43.641-84,86.3145-20.15,59.07324-4.15,136.55711,29,144.17368,31.52,7.24664,79.45-48.49737,92-103.3877C912.531,364.03439,895.641,296.04512,863.481,289.63318ZM846.831,387.529c-2.3,7.36994-8.41,17.44313-13.78,16.70332-5.64-.77779-10.06-13.393-7.18-23.64637,2.76-9.84555,12.58-18.69518,17.9-16.88355C849.211,365.571,849.641,378.48968,846.831,387.529Z" transform="translate(0)"/><polygon class="cls-11" points="1098.044 243.607 994.208 268.105 982.661 434.302 1074.951 576 1178.787 551.502 1190.333 385.305 1098.044 243.607"/><path class="cls-12" d="M1064.481,536.24605l42-11.38213q-14.49994-50.27106-29-100.54217,8.49993,6.6396,17,13.27915,3.99993-9.95937,8-19.91873,15.50006,50.74538,31,101.49068,17.00006-4.74252,34-9.48511-26.508-104.67782-53.01587-209.35562-19.992,5.55842-39.98413,11.11681-3.50007,13.75339-7,27.50682-15-10.43364-30-20.86724-15.97266,3.48306-31.94538,6.96609Q1035.00841,430.65034,1064.481,536.24605Z" transform="translate(0)"/><polygon class="cls-11" points="1413.225 259.702 1308.368 239.495 1222.639 384.854 1241.769 550.42 1346.627 570.627 1432.355 425.268 1413.225 259.702"/><path class="cls-12" d="M1390.481,320.934c-21.75647-18.91366-39.75293-17.55585-44-17.0732-34.15271,3.88129-60.76868,51.3586-52,82.52046,4.10925,14.60333,16.76416,28.37672,19,50.27109,1.45727,14.26981-2.89185,18.4713-5,19.91873a11.50457,11.50457,0,0,1-6,1.897c-7.58795.26428-15.502-7.43067-20-18.97022q-9,22.29-18,44.58c1.8244,2.43195,16.50146,21.33971,41,21.81576,27.24133.52931,42.97558-22.191,46-26.55831,13.6969-19.77852,10.52234-41.37538,10-44.58-3.05091-18.719-13.42151-23.85884-25-57.85918-2.32044-6.81389-5.47693-17.09983,0-24.66128a18.70428,18.70428,0,0,1,10-6.63958c8.70434-2.44515,18.93286,1.33187,26,9.48511Z" transform="translate(0)"/><path class="cls-13" d="M1604,709a3.17873,3.17873,0,0,1-1.72668.68561c-32.16736-2.88086-59.51868-3.78205-80.32911-3.97083-86.98584-.789-131.39257,10.21961-144.96472,13.81147-9.24231,2.446-16.81738,4.79559-21.97949,6.47375a3.53553,3.53553,0,0,1-4-4q-2.49995-59.5-5-119a5.36983,5.36983,0,0,1,2-4,5.08975,5.08975,0,0,1,3-1c3.13281.21252,7.708.50507,13.23853.7923.00012,0,10.9862.71167,21.1809.83264,30.31836.3598,58.92127-2.94208,150.92408-22.74811,13.12915-2.82641,31.54-6.84814,53.65649-11.87683a5.52834,5.52834,0,0,1,4,1,5.46053,5.46053,0,0,1,2,3c.86682,12.44531,9.33105,134.09192,9.15332,137.14178A5.21557,5.21557,0,0,1,1604,709Z" transform="translate(0)"/><path class="cls-14" d="M1589,572c-24.19995,4.47-43.87,8.36-57,11-72.36,14.56-98.28,22.08-141,23-16.23.35-29.51-.37-38-1q2.50488,56.505,5,113a671.74027,671.74027,0,0,1,241-14Q1594.00488,638,1589,572Zm-80.80953,124.91057A673.45835,673.45835,0,0,0,1360.8788,715q-2.43928-53.78719-4.8788-107.58405c8.27916.60265,21.24029,1.29276,37.06939.95257,41.682-.87485,66.97326-8.029,137.56381-21.89982,12.80327-2.50779,32.00325-6.21121,55.60908-10.4687Q1591.121,638.84157,1596,701.67348A671.087,671.087,0,0,0,1508.19047,696.91057Z" transform="translate(0)"/><path class="cls-15" d="M1437,691a1,1,0,0,0,2,0q-4.5-35.5-9-71,15-2,30-4a20.1084,20.1084,0,0,1,15,17c1.18994,10.83734-7.57275,17.6781-8,18q-15,2-30,4a1,1,0,0,0,0,2q15-2,30-4a21.31011,21.31011,0,0,0-7-39q-15.99995,2-32,4Q1432.5,654.5,1437,691Z" transform="translate(0)"/><path class="cls-15" d="M1395.03137,698.2121c-17.05041-4.35144-29.8125-17.58686-32.53955-33.54718-3.37414-19.74811,8.8877-42.07263,25.6322-44.77252,19.07666-3.07587,40.47022,19.88439,39.0459,42.78753-.91882,14.7746-11.25171,28.21674-26.36621,35.09436a.9706.9706,0,0,1-.14673-1.93561c.98523-.47155,22.94287-11.40716,24.4176-32.99987,1.48365-21.72419-18.48327-43.7287-36.18041-41.058-15.70276,2.36969-27.445,23.8382-24.18152,42.71576,2.57422,14.89093,14.33423,27.29663,30.17187,31.78a.9706.9706,0,0,1,.14685,1.93561Z" transform="translate(0)"/><path class="cls-15" d="M1489.229,684.42523c.11.26758.96143,2.25476,2.771,2.57477a2.91826,2.91826,0,0,0,1,0l34-3a1,1,0,0,0,0-2l-33,3a2.1013,2.1013,0,0,1-1,0,3.159,3.159,0,0,1-2.01392-2.80841q-3.5374-33.18576-7.0747-66.37158A2.2927,2.2927,0,0,1,1484,614a2.34257,2.34257,0,0,1,1.5824-.91943c1.72839-.35791,15.16736-1.585,33.4176-3.08057a1,1,0,0,0,0-2l-33,3a3.79484,3.79484,0,0,0-4,5Z" transform="translate(0)"/><path class="cls-15" d="M1489.925,650.54306q16.05821-1.407,32.11631-2.81411a1,1,0,0,0,.05693-1.99919q-16.05822,1.407-32.11631,2.81411a1,1,0,1,0-.05693,1.99919Z" transform="translate(0)"/><path class="cls-15" d="M1535.90566,684.9535a1.11534,1.11534,0,0,0,2.22642,0q-4.45277-37.67388-8.90566-75.34777a2.78649,2.78649,0,0,1,1.1132-2.093,3.60826,3.60826,0,0,1,4.45283,1.0465q22.26423,36.62734,44.5283,73.25477a4.00169,4.00169,0,0,0,4.45283,1.0465A3.58586,3.58586,0,0,0,1586,679.721l-6.67925-81.62675c-.17638-1.4915-1.44029-2.28666-2.22641-2.093a1.94105,1.94105,0,0,0-1.11321,2.093q3.8963,40.29016,7.79245,80.58025a1.64206,1.64206,0,0,1-1.1132,2.093,1.79625,1.79625,0,0,1-2.22642-1.0465q-21.70755-35.58093-43.41509-71.16178a5.65841,5.65841,0,0,0-6.67925-3.13949,5.06734,5.06734,0,0,0-3.33962,4.186Q1531.45277,647.27963,1535.90566,684.9535Z" transform="translate(0)"/></svg>