<svg id="Layer_1" data-name="Layer 1" xmlns="http://www.w3.org/2000/svg" xmlns:xlink="http://www.w3.org/1999/xlink" width="1920" height="1056" viewBox="0 0 1920 1056"><defs><style>.cls-1{fill:#39b54a;}.cls-2{fill:#007f03;}.cls-3{fill:#666;}.cls-4{fill:#f8f0e3;}.cls-10,.cls-11,.cls-12,.cls-13,.cls-14,.cls-15,.cls-16,.cls-17,.cls-18,.cls-19,.cls-5,.cls-6,.cls-7,.cls-8,.cls-9{stroke:#000;stroke-miterlimit:10;}.cls-15,.cls-16,.cls-17,.cls-18,.cls-19,.cls-5,.cls-6,.cls-7,.cls-8,.cls-9{stroke-width:2px;}.cls-5{fill:url(#linear-gradient);}.cls-7{fill:url(#linear-gradient-2);}.cls-8{fill:none;}.cls-13,.cls-9{fill:#373737;}.cls-10{fill:#705b3a;}.cls-11,.cls-20{fill:#623d09;}.cls-14,.cls-19{fill:#e6cd9f;}.cls-14{stroke-width:4px;}.cls-15{fill:url(#linear-gradient-3);}.cls-16,.cls-23{fill:#fff;}.cls-17{fill:#93cfb3;}.cls-18{fill:url(#linear-gradient-4);}.cls-21{fill:#42210b;}.cls-22{fill:#36210b;}.cls-24{fill:#b3b3b3;}.cls-25{fill:#ff931e;}.cls-26{fill:#4d4d4d;}.cls-27{fill:#1b1464;}.cls-28{fill:#00d47d;}.cls-29{fill:#f4ce00;}.cls-30{fill:#141500;}.cls-31{fill:#603813;}.cls-32{fill:#fbff00;}.cls-33{fill:#6affe3;}.cls-34{fill:#006837;}.cls-35{fill:#0071bc;}</style><linearGradient id="linear-gradient" x1="90.09754" y1="474.33839" x2="176.21602" y2="401.97662" gradientUnits="userSpaceOnUse"><stop offset="0.00538" stop-color="#f6b7d9"/><stop offset="0.28292" stop-color="#e6cd9f"/><stop offset="0.57297" stop-color="#e8caa6"/><stop offset="0.92756" stop-color="#f2bdca"/></linearGradient><linearGradient id="linear-gradient-2" x1="169.90364" y1="508.0783" x2="400.93394" y2="508.0783" gradientUnits="userSpaceOnUse"><stop offset="0" stop-color="#e1776a"/><stop offset="0.2072" stop-color="#d36eba"/><stop offset="0.38105" stop-color="#8766bd"/><stop offset="0.60031" stop-color="#87a0b8"/><stop offset="0.71386" stop-color="#78d4bb"/><stop offset="0.82192" stop-color="#9ccd9c"/><stop offset="1" stop-color="#93cfb3"/></linearGradient><linearGradient id="linear-gradient-3" x1="327.19651" y1="355.58296" x2="499.82323" y2="393.33994" gradientUnits="userSpaceOnUse"><stop offset="0" stop-color="#87a0b8"/><stop offset="0.10108" stop-color="#78d4bb"/><stop offset="0.29919" stop-color="#9ccd9c"/><stop offset="1" stop-color="#93cfb3"/></linearGradient><linearGradient id="linear-gradient-4" x1="331.31297" y1="298.96595" x2="452.26993" y2="298.96595" gradientUnits="userSpaceOnUse"><stop offset="0" stop-color="#f6b7d9"/><stop offset="0.53834" stop-color="#e6cd9f"/><stop offset="0.78064" stop-color="#f2bdca"/></linearGradient></defs><path class="cls-1" d="M1920,775c-20.01843-6.28619-51.06519-13.38477-88-10-68.48694,6.27625-99.26855,43.28693-157,75-101.20386,55.59338-205.00354,50.83942-267,48-66.32263-3.03754-110.748-18.33972-194-46-93.02393-30.907-145.1001-60.048-268-121C788.79956,643.03662,710.1994,604.05493,675,592c-81.433-27.88885-215.68045-72.24829-385-51-63.07571,7.91553-170.264,29.86078-290,101v438H1920Z" transform="translate(0 -24)"/><path class="cls-2" d="M326.29411,786.70009l23.63206-6.19979q3.97843-7.206,7.95691-14.41194c-2.88444-4.97536-5.42475-11.65564-4.1902-19.30308.98548-6.10456,4.04357-10.76387,3.35073-11.13656-.57668-.31022-3.38153,2.54753-12.53908,15.28283q-5.80164-10.597-11.60321-21.19407,3.76968,25.87524-1.61552,28.20635-3.65963,1.58411-11.54731-7.70506c-.00771,1.10832-.21253,13.99159-5.87774,16.11676-1.53714.57661-3.36054.31778-11.77127-4.36261-5.18885-2.88743-9.32361-5.476-12.12308-7.29557l3.76636,23.58353Q310.01343,782.4905,326.29411,786.70009Z" transform="translate(0 -24)"/><path class="cls-2" d="M657.774,1022.49624l24.13174,3.8172q6.53833-5.0004,13.07673-10.00078c-.64247-5.715-.28481-12.85305,3.91822-19.36012,3.35506-5.19427,8.02744-8.23235,7.54271-8.852-.40344-.51578-4.12012.97428-17.62271,8.95731q-1.05525-12.035-2.11043-24.07009-6.9438,25.20957-12.81181,25.18067-3.98772-.01971-7.47871-11.69519c-.45235,1.01183-5.816,12.72728-11.85769,12.39729-1.63928-.08954-3.20506-1.05914-9.02668-8.72434-3.59156-4.72885-6.33791-8.76057-8.17047-11.55152l-6.0261,23.10962Q644.55638,1012.10026,657.774,1022.49624Z" transform="translate(0 -24)"/><path class="cls-2" d="M1856.26445,867.91015l-24.13174,3.8172q-6.53834-5.0004-13.07673-10.00078c.64247-5.715.28481-12.85305-3.91822-19.36012-3.35506-5.19427-8.02744-8.23235-7.54271-8.852.40344-.51578,4.12012.97428,17.62271,8.95731q1.05525-12.035,2.11043-24.07009,6.9438,25.20957,12.81181,25.18067,3.9877-.0197,7.47871-11.69519c.45235,1.01183,5.816,12.72728,11.85769,12.39729,1.63928-.08954,3.20506-1.05914,9.02668-8.72434,3.59156-4.72885,6.33791-8.76057,8.17047-11.55152l6.0261,23.10962Q1869.48207,857.51417,1856.26445,867.91015Z" transform="translate(0 -24)"/><path class="cls-2" d="M559.98547,580.54582,536.35341,574.346q-3.97842-7.206-7.95691-14.41194c2.88445-4.97536,5.42476-11.65564,4.1902-19.30308-.98547-6.10456-4.04356-10.76387-3.35073-11.13656.57668-.31022,3.38153,2.54753,12.53908,15.28283q5.80164-10.597,11.60321-21.19407-3.76967,25.87524,1.61552,28.20635,3.65963,1.58411,11.54732-7.70506c.00771,1.10832.21253,13.99159,5.87773,16.11676,1.53714.57661,3.36054.31779,11.77127-4.36261,5.18885-2.88743,9.32361-5.476,12.12308-7.29557l-3.76636,23.58353Q576.26615,576.33623,559.98547,580.54582Z" transform="translate(0 -24)"/><path class="cls-3" d="M1054,1080c130.29675-8.60486,173.00269-41.88477,187-72,7.24438-15.58655,13.49524-44.73309,41-63,18.15137-12.055,41.86987-16.92151,52-19,28.44238-5.83575,44.13306-2.325,59-15,8.495-7.24249,12.73853-16.37427,15-23q14.00005.5,28,1a199.76787,199.76787,0,0,1-20,29c-7.81714,9.429-14.39856,15.72693-30,30-38.61584,35.32794-41.94836,36.94452-43,44-2.67761,17.96448,14.31055,38.46008,30,48,13.86475,8.43042,20.4928,9.04407,49,22,15.19263,6.90479,27.19617,13.49048,35,18Z" transform="translate(0 -24)"/><path class="cls-4" d="M1263,1080c14.70862-19.25159,21.44446-36.3125,24.87805-47.9856,7.166-24.36236,3.30091-36.665,15.12195-55.0144,9.201-14.28247,21.64441-22.52527,27-26,6.85461-4.44727,19.2998-10.07092,44-21,14.2771-6.3172,15.63354-6.73358,19-9,13.60461-9.15887,20.91528-22.19312,25-32h5c-6.17078,11.38354-16.606,26.80615-34,39-24.04822,16.85864-37.0166,12.05774-55,30-2.84119,2.83472-25.455,26.01782-23,54,1.05115,11.98083,5.87012,15.407,7,30,1.22986,15.88342-3.132,29.22424-7,38Z" transform="translate(0 -24)"/><path class="cls-5" d="M191.11083,427.57461c-6.06365,1.57647-11.39873,2.96351-16.1242.70105a9.49833,9.49833,0,0,0-5.60842-1.4021,8.304,8.304,0,0,0-3.50526,1.4021,12.04135,12.04135,0,0,0-4.20632,4.90737c-3.19226,6.465.58938,10.55292-2.10315,16.1242-2.94353,6.09065-9.46228,5.34146-10.51579,11.21684-.40769,2.27362.22246,4.31572-1.4021,6.30947-1.38037,1.69409-2.699,1.2796-4.20632,2.80421-2.35188,2.37884-.47166,4.733-2.10315,8.41262-1.95922,4.41876-5.88578,3.76431-9.11368,9.11368-1.45739,2.41522-1.12381,3.3223-2.10316,5.60842-3.59011,8.38045-12.72762,7.05708-19.62946,14.7221-6.62808,7.361-4.98944,16.12048-7.71158,16.1242-2.54936.00351-6.05389-7.67666-5.60842-14.7221.2252-3.56148,1.33258-4.94989.70106-8.41262-.62682-3.43689-2.23054-4.8811-4.20632-8.41263a42.10882,42.10882,0,0,1-4.20631-11.91789c-1.86256-7.83147-1.28991-13.9937-.70105-20.33052a40.63063,40.63063,0,0,1,5.60841-17.5263c4.73429-7.87922,8.299-7.15952,11.21684-13.32,4.01017-8.46671-1.74518-11.89058.70105-21.73262,3.956-15.9162,23.09909-23.4232,25.93894-24.53683a27.94,27.94,0,0,1,8.41262-2.10315c6.77476-.2801,10.32932,1.81553,16.82526,3.50526,10.91556,2.83934,11.09279-.42109,17.52631,2.10316,6.85045,2.68782,10.87645,8.80243,18.92841,21.03156,7.63267,11.59236,7.13919,14.57281,6.30947,16.12421C199.08346,425.50183,196.42589,426.19274,191.11083,427.57461Z" transform="translate(0 -24)"/><path class="cls-6" d="M152.553,433.88408a38.38758,38.38758,0,0,1,3.50526-2.80421c7.09007-4.69577,15.42974-4.1272,15.42315-4.20631a20.164,20.164,0,0,0-8.41262.70105c-11.406,3.21943-17.81667,15.73919-18.22736,15.42315-.11553-.08892.45942-1.01521.70105-1.4021A32.55637,32.55637,0,0,1,152.553,433.88408Z" transform="translate(0 -24)"/><path class="cls-6" d="M97.87088,437.38934c-.16016-.20363,4.59706-2.86578,8.41262-7.71157,5.0695-6.43823,3.04879-9.8375,9.11368-21.03157,2.67276-4.93317,5.34536-8.48148,9.11368-9.11368a9.82716,9.82716,0,0,1,3.50526,0c.01156.152-2.322.159-4.20631.70105-5.95073,1.71185-9.878,9.46686-11.21684,14.7221a45.8467,45.8467,0,0,1-2.80421,9.11368,29.86961,29.86961,0,0,1-1.4021,2.80421,28.43853,28.43853,0,0,1-5.60842,7.01052C100.53765,435.90667,97.99064,437.54167,97.87088,437.38934Z" transform="translate(0 -24)"/><path class="cls-6" d="M139.233,480.85458a71.353,71.353,0,0,0-15.42315,11.21684c-1.52,1.47934-2.75924,2.84576-2.80421,2.80421a41.27754,41.27754,0,0,1,9.11368-9.11368A38.03689,38.03689,0,0,1,139.233,480.85458Z" transform="translate(0 -24)"/><path class="cls-6" d="M146.94454,467.53459a12.2839,12.2839,0,0,0-5.60842,3.50526c-1.93457,1.99238-1.75272,3.01041-3.50526,4.20631a9.30808,9.30808,0,0,1-5.60842,1.40211,7.964,7.964,0,0,0,3.50526-.70105A9.90405,9.90405,0,0,0,139.233,473.143,28.02421,28.02421,0,0,1,146.94454,467.53459Z" transform="translate(0 -24)"/><path class="cls-6" d="M153.95506,454.91565a16.084,16.084,0,0,0-7.01052,4.20631c-1.94377,1.91275-1.68755,2.579-3.50527,4.20632a17.12978,17.12978,0,0,1-7.01052,3.50526,10.4656,10.4656,0,0,0,6.30947-2.10316c2.40623-1.71108,2.24565-3.01747,4.90737-5.60842A22.46727,22.46727,0,0,1,153.95506,454.91565Z" transform="translate(0 -24)"/><path class="cls-6" d="M153.254,382.70726a26.85271,26.85271,0,0,1,18.22735,14.7221,6.61722,6.61722,0,0,1,.70106,2.10316c-.27663.14283-2.58085-4.81486-5.60842-8.41263C164.25454,388.36361,160.30864,384.97734,153.254,382.70726Z" transform="translate(0 -24)"/><path class="cls-6" d="M97.16982,508.89667a29.99731,29.99731,0,0,0,2.10316-14.021c-.07188-.71042-.22434-1.25209-.48424-3.00673-.73066-4.93257-1.096-7.39887-.91786-10.31326a25.72661,25.72661,0,0,1,1.4021-7.01053c1.30185-3.63123,3.29072-6.41952,3.50526-6.30947.248.12717-2.40918,3.85117-3.50526,9.81473a32.66709,32.66709,0,0,0,0,11.21684c.52164,3.04511,1.05723,3.59469,1.40211,5.60842C101.20156,497.94945,100.96947,502.55866,97.16982,508.89667Z" transform="translate(0 -24)"/><path class="cls-6" d="M145.54243,460.52407" transform="translate(0 -24)"/><path class="cls-6" d="M156.75927,441.59566c.2237.466-7.25455,2.16421-13.32,9.11367-4.357,4.992-4.00015,8.128-8.41262,10.51579-3.86448,2.09126-5.67213.516-9.11368,2.80421-5.13231,3.41236-5.742,9.994-6.30947,9.81473-.44659-.141-.40727-4.32407,2.10315-7.71158,2.33726-3.15383,5.83636-4.29552,7.71158-4.90736,3.74732-1.22265,4.29018-.17351,6.30947-1.40211,2.79471-1.70038,2.29267-4.03725,5.60842-8.41262a25.99272,25.99272,0,0,1,4.90736-4.90737C151.12269,442.68746,156.56646,441.194,156.75927,441.59566Z" transform="translate(0 -24)"/><path class="cls-6" d="M131.52139,471.03985c-.02153-.12006-1.02347-.05331-1.40211,0-2.81088.39563-3.84415,4.63343-6.30947,7.71158-2.85953,3.57034-4.49351,1.64458-9.11368,5.60841-4.6731,4.00923-7.22,9.59857-6.30947,13.32.03928.1605.34616,1.41468.701,1.4021.55835-.01977.35763-3.14382,1.40211-6.30947a18.49393,18.49393,0,0,1,6.30947-8.41263c3.89558-3.154,4.83471-1.65053,7.01052-4.20631,2.7989-3.28768,2.47482-7.22032,5.60842-8.41263A14.18729,14.18729,0,0,0,131.52139,471.03985Z" transform="translate(0 -24)"/><path class="cls-6" d="M177.08978,420.56409a21.93275,21.93275,0,0,0-4.20631-1.40211,29.37086,29.37086,0,0,0-4.90737-.70105c-5.58753-.31056-13.72349-.76275-20.33051,2.80421-2.88162,1.55572-1.35568,1.65345-9.81473,10.51578-10.39059,10.886-15.58588,16.329-16.12421,16.82526a13.961,13.961,0,0,0-4.20631,5.60842c-.86836,2.3622-.88731,4.89465-1.4021,4.90736-.31476.00779-.59871-.93168-.70106-1.4021-.65069-2.99094,1.78682-6.57027,6.30947-11.21684,3.33826-3.42974,3.91865-3.44031,7.71158-7.01052,5.496-5.17334,11.05214-11.528,12.61894-13.32,2.30572-2.63712,3.08987-3.65678,4.90737-4.90737a22.90425,22.90425,0,0,1,9.81473-3.50526,33.57119,33.57119,0,0,1,11.21683,0A38.22844,38.22844,0,0,1,177.08978,420.56409Z" transform="translate(0 -24)"/><path class="cls-6" d="M173.58452,413.55356a8.4132,8.4132,0,0,0,2.10316.70106c.1329-.27193-6.97462-3.29278-14.7221-8.41263a139.285,139.285,0,0,1-14.021-10.51578c-4.722-4.17192-6.87805-6.825-9.81474-6.30948-2.34046.41082-4.92782,2.79052-6.30947,4.90737a3.96648,3.96648,0,0,0-.70105,1.40211c.12276.07975,1.42025-2.86981,4.20631-4.20632a7.52981,7.52981,0,0,1,3.50527-.70105c3.26179.09516,5.63447,2.27127,7.01052,3.50526,3.45862,3.10155,6.97941,5.80666,14.021,11.21684a59.744,59.744,0,0,0,8.41263,5.60842A53.44613,53.44613,0,0,0,173.58452,413.55356Z" transform="translate(0 -24)"/><path class="cls-6" d="M181.99715,410.74936a5.16518,5.16518,0,0,1-2.10316-.70106,6.22481,6.22481,0,0,1-2.80421-3.50526c-.42737-1.77167.72275-2.04419,1.40211-5.60842.23581-1.23719.90738-4.76051-.70105-6.30947-.25836-.24877-.75382-.61838-.70106-.70105.06076-.0952.87251.15224,1.40211.70105.48608.50371.62476,1.14751.701,2.80421a19.70334,19.70334,0,0,1,0,3.50526c-.4189,3.0704-1.58126,3.122-1.4021,4.90737a6.02357,6.02357,0,0,0,2.8042,4.20631C181.27329,410.46314,182.017,410.69685,181.99715,410.74936Z" transform="translate(0 -24)"/><path class="cls-6" d="M150.40286,413.03205c.10132-.22079-1.38024-1.38909-3.03065-1.96841-5.32443-1.869-13.48156,2.01424-15.55622,7.60285-.69815,1.88078-.15871,2.4764-1.32564,6.20836-.91325,2.92055-1.58927,4.98383-3.41836,5.999-1.939,1.07614-4.25394.464-4.325.97644-.04065.29332.69121.68449,1.32534.83712,2.05639.49494,3.99207-1.30044,4.3948-1.674.468-.4341,1.77633-1.76038,2.651-5.3712.8702-3.59234.05088-4.24311.62806-6.27811,1.32457-4.67005,7.61457-8.20724,12.766-7.882C147.66236,411.68091,150.27214,413.317,150.40286,413.03205Z" transform="translate(0 -24)"/><path class="cls-6" d="M125.913,421.26514a5.30032,5.30032,0,0,1,0,2.80421,6.23259,6.23259,0,0,1-1.40211,3.50526c-1.37271,1.34087-2.79625.36529-4.90736,1.4021a8.04884,8.04884,0,0,0-3.50526,4.20632c-1.76363,3.80645.03089,5.53657-1.40211,7.71157-1.93915,2.94323-5.8171.61608-9.11368,3.50526-3.3472,2.93352-1.16142,6.90231-4.90736,10.51579a10.2925,10.2925,0,0,1-6.30948,2.80421c-.03008-.077,5.04027-.6429,7.01053-4.20632,1.20771-2.18428.30756-3.7892,2.10315-7.01052a10.06418,10.06418,0,0,1,2.10316-2.80421c3.30552-2.96629,6.76577-1.20515,8.41263-3.50526,1.2042-1.68186-.45553-2.88932.701-6.30947a9.59962,9.59962,0,0,1,3.50526-4.90737c2.43434-1.64086,3.89143-.5272,5.60842-2.10315C125.99709,424.866,125.6244,421.23031,125.913,421.26514Z" transform="translate(0 -24)"/><path class="cls-6" d="M146.24348,405.14094c-.31355.69959-3.44163-1.17965-7.71157-.70106-2.25.2522-1.91831.83413-7.71158,2.80421-3.79678,1.29116-4.29814,1.16326-5.60842,2.10316-2.86385,2.05434-3.83944,5.08323-4.20631,4.90737-.24342-.11669.0303-1.52478.701-2.80421.63174-1.205,1.76483-2.58034,4.90737-4.20632,3.33693-1.72657,3.59542-.97053,7.71157-2.80421,2.5735-1.14644,3.47407-1.88814,5.60842-2.10315a6.99721,6.99721,0,0,1,4.20632.70105C145.14509,403.58659,146.4543,404.67056,146.24348,405.14094Z" transform="translate(0 -24)"/><path class="cls-6" d="M109.08771,464.73038c.60786,4.81327,2.85971,7.28732,1.40211,9.81473-.61077,1.05907-1.06373.72446-2.10316,2.10316-2.351,3.11836-1.66521,6.99426-2.10316,7.01052-.25117.00933-.75595-1.25534-.70105-2.80421.12935-3.6489,3.20313-4.308,4.20631-7.71157.967-3.28088-1.43543-4.20773-1.4021-9.81473.02358-3.96092,1.24353-7.03894,1.4021-7.01053A23.80971,23.80971,0,0,0,109.08771,464.73038Z" transform="translate(0 -24)"/><path class="cls-7" d="M399.36948,427.24573a192.56909,192.56909,0,0,1-11.964,53.60885,189.45286,189.45286,0,0,1-7.71158,17.52631c6.303,11.96906,20.8047,41.17925,21.03157,61.6926.09858,8.91411-2.51393,14.78654-.70105,28.74314.72741,5.59991,1.91454,10.55648-.70106,12.61894-1.99122,1.5701-6.23484.112-14.72209-2.80421-8.1167-2.78889-10.79905-4.69479-12.61894-6.30947-2.335-2.0717-4.12733-3.662-4.90737-6.30947-1.45-4.92148,2.34474-7.30439,2.80421-14.021.41009-5.99519-2.494-5.92258-2.80421-12.61894-.41591-8.97838,4.73356-10.64693,3.50526-18.22736-.63259-3.9041-2.58376-7.03325-5.60842-11.91789-2.64537-4.27212-3.95206-5.13466-5.60842-9.11368-1.6282-3.91141-1.20424-5.0926-2.8042-6.30947-1.81348-1.37921-4.71422-1.15316-10.51579-.70105-2.85025.22211-3.22876.4456-3.50526.70105-2.315,2.13893,1.71891,7.26233,2.10316,13.32.66074,10.4169-10.12333,13.31563-11.91789,25.93894-.7198,5.06294,1.38516,4.67511,2.10315,14.72209.30757,4.304.907,10.79606-.70105,18.22736-1.49042,6.88777-2.77425,5.07408-6.30947,16.12421-1.96529,6.1431-2.24778,8.82678-4.90736,10.51578-3.35071,2.12785-7.61543.86134-10.51579,0-7.06692-2.09871-14.46215-7.99612-15.42315-15.42315a12.682,12.682,0,0,1,0-3.50526c.28493-2.01317,1.09642-4.15878,6.30947-11.21684,2.08117-2.81773,1.94754-2.46677,2.10316-2.80421,2.31689-5.02362-2.44615-8.29269-1.40211-14.72209.7192-4.42895,3.35127-5.16774,2.80421-9.11368-.35373-2.5515-1.58746-3.20348-1.4021-5.60842.24291-3.15119,2.48218-3.60316,2.80421-6.30947.327-2.74777-1.857-3.32752-4.20632-8.41263a29.65037,29.65037,0,0,1-2.8042-10.51578c-.24279-3.70761.46806-5.26166-.70106-6.30947-1.49055-1.33591-4.19048-.194-7.71157.70105-4.32694,1.09984-8.88288.90828-13.32,1.4021-16.309,1.81506-24.46349,2.72257-30.8463.70105-10.12483-3.20663-15.01183-10.15845-18.92842-7.71157-2.43447,1.521-1.36132,4.71614-5.60841,9.11368-2.483,2.57088-4.042,2.71328-4.90737,4.90737-.885,2.24384.08926,3.75857,1.4021,8.41262,2.31527,8.20763.94268,9.37294,3.50527,16.1242,1.59585,4.20439,2.00153,3.41883,2.8042,6.30948,1.20652,4.345.80666,7.98084,0,14.72209a89.4883,89.4883,0,0,1-1.4021,9.81473c-.66057,2.23427-1.51832,4.16708-.70105,6.30948.37936.99441,1.06441,1.88934.70105,2.8042-.35994.90623-1.5143,1.24225-2.10316,1.40211a34.26,34.26,0,0,1-10.51578,1.4021,43.76075,43.76075,0,0,1-9.81473-2.10315c-4.64743-1.35337-6.98592-2.05956-7.71158-3.50526-.828-1.64969-.08463-4.13768,1.40211-9.11368.72146-2.41462.9624-2.73712,1.4021-4.20632.59275-1.98044,2.15746-7.2085.701-12.61894-1.29513-4.8113-4.43959-7.10556-7.71157-10.51578-15.05042-15.68643-15.729-41.456-15.42315-46.97051a27.42913,27.42913,0,0,0,0-3.50526c-.41043-6.36719-2.94263-10.49584-4.20632-13.32-1.798-4.0183-1.71489-8.98976-1.4021-18.92841.24976-7.93558.42442-13.48383,2.80421-20.33052a58.81209,58.81209,0,0,1,7.71157-14.7221c.77577-1.114,5.21186-7.41183,9.81474-11.21683,8.23864-6.81049,18.32872-6.72307,36.45471-6.30947a217.41287,217.41287,0,0,1,40.661,4.90736c11.40177,2.717,16.09176,5.02748,23.13472,2.80421,8.07032-2.54756,9.73262-8.04982,18.22736-14.021,5.44843-3.82986,14.0172-8.07023,27.341-9.11368Q367.79911,414.79123,399.36948,427.24573Z" transform="translate(0 -24)"/><path class="cls-8" d="M307.48551,541.14508a29.86857,29.86857,0,0,1-4.20632-7.01052c-2.87014-6.765-1.49136-10.71514-2.10315-20.33052-.73358-11.5289-3.12115-12.22229-2.80421-21.03157a50.06229,50.06229,0,0,1,2.80421-14.7221" transform="translate(0 -24)"/><path d="M225,582c-1.14008,4.02234-.605,6.3927.14648,7.834.36246.69519,1.09693,1.80738.70105,2.8042-.35992.90625-1.51428,1.24225-2.10315,1.4021a34.25946,34.25946,0,0,1-10.51577,1.4021,43.76209,43.76209,0,0,1-9.81473-2.10315c-4.525-1.31768-6.806-2.00714-7.71158-3.50525-1.972-3.26208.79721-8.09985,1.4021-9.1137C211.74219,587.03,216.58981,586.79639,218,585c.4949-.63049,1.20444-2.26617,3-3A5.94406,5.94406,0,0,1,225,582Z" transform="translate(0 -24)"/><path d="M301,586a13.82826,13.82826,0,0,0-3,5c-2.66669,8.00537,3.56021,15.48755,4,16,.00006.00006,3.67917,4.28687,17,7a4.44264,4.44264,0,0,0,2,0c2.01416-.49475,3.11908-2.44507,4-4a16.67915,16.67915,0,0,0,2-6,5.315,5.315,0,0,0-2-1c-2.16031-.536-3.93378.60229-5,1-4.7905,1.7868-13.30417-4.663-17-12A22.11311,22.11311,0,0,1,301,586Z" transform="translate(0 -24)"/><path d="M369,578a8.78062,8.78062,0,0,0-2,5c-.40646,9.068,16.3201,15.26587,21,17,3.44144,1.27521,9.70193,3.52606,12,1,.76422-.84.85648-1.95135,1-4a25.37749,25.37749,0,0,0-1-9,11.697,11.697,0,0,0-5,1,12.14156,12.14156,0,0,0-3,2C390.28012,592.31177,384.97,590.79321,369,578Z" transform="translate(0 -24)"/><path d="M176.5743,321.5164l8.22706-7.31294a207.3396,207.3396,0,0,1-41.13528-67.64467q-2.74234,5.94177-5.4847,11.88352c3.40947,6.43082,6.34794,11.476,8.22706,14.62588,8.73717,14.64576,13.85916,20.64795,22.85293,35.65057C172.61622,314.315,175.14845,318.8928,176.5743,321.5164Z" transform="translate(0 -24)"/><path class="cls-9" d="M148.23667,178c-10.79338,45.00981-9.66094,58.706-5.4847,61.24585a7.06739,7.06739,0,0,1,2.74235,2.74235c2.61124,4.90515-1.90618,12.43448-6.39882,18.28235-.98609-4.33615-2.35576-9.21915-3.65647-9.14118-2.82593.16937-4.12937,23.68292-3.65647,38.39293.54923,17.084,4.16782,43.24278,20.11058,74.95761-23.289-35.02215-36.77185-65.22224-42.04939-83.18467-2.689-9.152-7.18673-24.46083-4.57059-43.87762.3096-2.29782.65663-4.19131.91412-5.48471l2.74235,2.74236a64.04682,64.04682,0,0,1,3.65647-23.76705c2.1361-5.957,8.3214-23.206,24.68116-30.16587A36.642,36.642,0,0,1,148.23667,178Z" transform="translate(0 -24)"/><path d="M217.04976,353.26307c-.77657,1.96918-2.6209,3.88334-6.30947,7.71157-.34808.36127-1.40048,1.40925-3.50526,3.50527-4.73694,4.71716-4.70266,4.64477-4.90737,4.90736-2.21269,2.83836-2.20217,6.14516-2.10315,11.91789.14732,8.59007,2.175,8.01863,1.4021,13.32-.4379,3.00331-1.49765,5.99155-.70105,10.51579a20.50366,20.50366,0,0,0,.70105,2.80421,15.55363,15.55363,0,0,0-10.51578,3.50526c-4.253,3.69118-6.99606,10.77423-4.20632,14.7221a7.68838,7.68838,0,0,0,4.90737,2.8042c.93558.14955,2.89586.28609,12.61894-4.20631,2.25656-1.04259,3.72537-1.7774,5.60842-1.4021,2.14684.42788,2.51188,1.83628,4.20631,2.10315,2.81731.44377,6.81109-2.66172,7.71158-6.30947,1.09124-4.42038-3.10253-6.62923-3.50526-12.61894a16.52522,16.52522,0,0,1,2.80421-9.81473,73.57952,73.57952,0,0,0,3.50526,9.11368c2.36618,5.11267,3.71719,6.48863,4.90736,9.11368,3.51673,7.7565,1.00815,16.22587,0,19.62946-2.36391,7.98093-5.94974,9.56108-9.81473,19.62947a61.20222,61.20222,0,0,0-2.80421,9.81473c-.5948,2.6939-.88842,4.05818-.701,4.90736,1.12522,5.09958,10.09093,8.40758,17.52631,7.71158,2.461-.23038,7.19126-.67315,10.51578-4.20631,3.78583-4.02344.91063-7.76575,4.90737-17.52631,1.28323-3.1339,2.36117-5.76631,4.90736-8.41263,2.93664-3.05213,4.66728-2.83938,6.30947-5.60842,2.04775-3.4528.15473-5.12892,2.10316-9.11368.15648-.32,2.4601-4.86077,7.01052-6.30947,3.02847-.96416,5.03462.09546,8.41263.70106,6.93958,1.24408,17.16312.12284,21.03157-5.60842,1.80047-2.66746,2.60272-6.89418.70105-9.81473-2.30546-3.5407-7.50987-3.51049-8.41263-3.50527a12.46623,12.46623,0,0,0-5.60841,1.40211,34.986,34.986,0,0,1-2.80421-11.21684A36.09858,36.09858,0,0,1,287.155,377.7999a22.481,22.481,0,0,0,9.81473,7.01052c10.84308,3.83666,20.57424-2.69955,21.73262-3.50526.06183.18707,1.286,3.72122,4.20632,4.20631,2.26806.37676,4.085-1.33047,4.90736-2.10315,3.47878-3.26864,3.49294-8.27849,3.50526-12.61894.01352-4.76441-1.06257-6.5007-1.4021-7.01053a7.95218,7.95218,0,0,0-4.90737-3.50526c-3.38053-.56841-7.26708,1.92841-9.11368,6.30947a20.27937,20.27937,0,0,1-9.11368-1.4021c-7.73356-3.15944-10.91847-10.35956-11.91788-12.61894a26.87488,26.87488,0,0,1-2.10316-7.71158H217.04976A12.42541,12.42541,0,0,1,217.04976,353.26307Z" transform="translate(0 -24)"/><path class="cls-10" d="M285.40236,351.51044l-26.64,35.05261q-4.55682.3505-9.11368.70105l-28.74314-35.05261q4.20631-.70107,8.41263-1.4021L253.154,380.95463l23.13473-32.94945Q280.8455,349.75783,285.40236,351.51044Z" transform="translate(0 -24)"/><path class="cls-11" d="M254.55606,397.07884c-.2973,2.21479-.525,4.00263-.70105,5.60841a4.51079,4.51079,0,0,1-.70106,2.10316c-.5183.77619-1.50235,1.64985-2.10315,1.40211-.35652-.147-.36452-.60085-.70105-2.10316a27.4812,27.4812,0,0,1-.70106-2.80421,6.62077,6.62077,0,0,1,.70106-3.50526c.46353-.89065,1.06082-2.03829,2.10315-2.10316C253.63019,395.60348,254.4876,396.96673,254.55606,397.07884Z" transform="translate(0 -24)"/><path class="cls-11" d="M255.95816,397.77989a10.25941,10.25941,0,0,0,.70106,3.50526,8.927,8.927,0,0,0,.70105,1.4021,4.18415,4.18415,0,0,0,2.10316,2.10316,1.722,1.722,0,0,0,1.4021,0c.16367-.101.57957-.42472.70105-2.80421a9.43351,9.43351,0,0,0,0-2.10315c-.44149-1.979-2.60447-3.99477-4.20631-3.50527A2.40193,2.40193,0,0,0,255.95816,397.77989Z" transform="translate(0 -24)"/><path class="cls-11" d="M250.34975,387.2641a5.777,5.777,0,0,0-1.40211,2.80421,7.37725,7.37725,0,0,0,2.10316,7.01053,5.377,5.377,0,0,0,2.80421,1.4021,5.12137,5.12137,0,0,0,1.4021,0,5.61646,5.61646,0,0,0,4.90737-7.71157c-.34407-1.292-1.03241-3.87667-3.50526-4.90737A5.84978,5.84978,0,0,0,250.34975,387.2641Z" transform="translate(0 -24)"/><path class="cls-11" d="M246.14343,371.1399a8.24354,8.24354,0,0,0-3.50526-4.20631,3.87387,3.87387,0,0,0-2.80421-.70105c-1.47.36015-2.15621,1.97765-2.80421,3.50526-.60388,1.42354-1.28816,3.03672-.70105,4.90736a5.1726,5.1726,0,0,0,2.10316,2.80421,5.5468,5.5468,0,0,0,2.10315.70105,9.79152,9.79152,0,0,0,3.50527,0Q245.09186,374.64519,246.14343,371.1399Z" transform="translate(0 -24)"/><path d="M242.9887,370.78938c.13281.42981-.71287.67392-1.40211,2.10315-.41034.85094-.33983,1.23977-.70105,1.40211-.6106.27436-1.81335-.38677-2.10316-1.40211a2.16724,2.16724,0,0,1,.70106-2.10315C240.65362,369.72145,242.79277,370.15525,242.9887,370.78938Z" transform="translate(0 -24)"/><path class="cls-11" d="M246.494,369.38727a12.7842,12.7842,0,0,0-4.90737,8.41263c-.055.48638-.64521,6.51755,3.50526,9.81473,2.43079,1.93106,5.35738,2.02644,7.71158,2.10316a14.43157,14.43157,0,0,0,5.60842-.70106c.30594-.10983,7.71414-2.90579,8.41262-9.81473.56905-5.62853-3.76208-9.56587-4.90736-10.51578a9.98705,9.98705,0,0,0-2.10316-1.40211C255.52985,365.19041,250.05429,366.54618,246.494,369.38727Z" transform="translate(0 -24)"/><path d="M259.1129,377.09885c-.07009.14022-.51877.04206-.70105,0a2.53076,2.53076,0,0,1-.50474-.17527c-.32952.57487-.71509.94641-.89737.87632-.23837-.09816-.10517-.97447,0-1.40211.007-.02807.014-.06311.02105-.09114-.56087-.54684-.83425-1.19179-.7221-1.311.09816-.10518.54684.11917,1.0586.44868.35754-.7221.83425-1.23386,1.04456-1.14973.23837.09815.10517.97447,0,1.4021q-.05257.21033-.12619.42062C258.79742,376.538,259.183,376.94459,259.1129,377.09885Z" transform="translate(0 -24)"/><path d="M249.975,377.96522c-.07009.14022-.51877.04206-.70105,0a2.53035,2.53035,0,0,1-.50474-.17527c-.32952.57487-.71509.94641-.89737.87632-.23837-.09816-.10517-.97447,0-1.4021.007-.02807.014-.06312.02106-.09114-.56088-.54685-.83426-1.1918-.72211-1.311.09816-.10517.54684.11917,1.0586.44868.35754-.7221.83425-1.23385,1.04456-1.14973.23838.09816.10517.97447,0,1.4021q-.05257.21033-.12619.42062C249.65954,377.40438,250.04511,377.811,249.975,377.96522Z" transform="translate(0 -24)"/><path d="M252.80343,381.30516a1.39,1.39,0,0,0,0,1.4021c.22584.32944.524.30535.70105.70106.1.22357.1534.5631,0,.70105-.093.08361-.20885.04548-.70105,0-.42969-.03971-.64564-.05841-.701,0-.1828.19259.09084,1.04987.701,1.4021.92886.53619,2.23884-.32806,2.80421-.701.06722-.04433.78107-.52005.70105-.70105-.09037-.20449-1.194-.03244-1.4021,0-.37638.05866-.576.121-.70106,0-.155-.14993-.0964-.48561,0-.70105.1789-.39982.47209-.35036.70106-.70106a1.49894,1.49894,0,0,0,0-1.4021,1.22948,1.22948,0,0,0-.70106-.70105A1.32538,1.32538,0,0,0,252.80343,381.30516Z" transform="translate(0 -24)"/><path class="cls-11" d="M267.87605,376.74832c2.29913-.37539,3.57043-2.52236,4.20632-3.50526a6.9046,6.9046,0,0,0,1.4021-4.90737,6.09767,6.09767,0,0,0-2.80421-4.20631,5.46256,5.46256,0,0,0-2.80421-.70105c-3.31913.12408-5.448,3.52943-6.30947,4.90736-.34385.55-.67568.88145-.70105,1.40211-.059,1.21,1.27164,1.55109,2.80421,3.50526,1.46038,1.86208,1.48486,3.12405,2.80421,3.50526A2.95567,2.95567,0,0,0,267.87605,376.74832Z" transform="translate(0 -24)"/><path d="M264.72132,370.08832c.11835.56422.63049.55159,1.4021,1.40211,1.02343,1.12808.81462,1.91313,1.40211,2.10315.88359.28583,2.65162-1.07083,2.80421-2.8042a2.953,2.953,0,0,0-1.40211-2.80421,3.02944,3.02944,0,0,0-2.80421,0C265.38463,368.39337,264.55487,369.29463,264.72132,370.08832Z" transform="translate(0 -24)"/><path class="cls-10" d="M284.00025,385.161c.23718.40957-.511.96189-.70105,2.80421-.13726,1.33077.20132,1.54493,0,2.10315-.51808,1.43651-3.23342,1.32988-7.71157,2.10316-3.40334.58766-3.01888.85368-6.30947,1.4021a76.37534,76.37534,0,0,1-7.71158.70106c-6.22967.44372-7.153.24372-14.7221.70105-3.94175.23816-6.04525.36524-9.11368.70105-.74281.0813-2.98542.34492-6.30827.70093l-.0012.00012c-5.68128.6088-8.88831,2.48608-9.81473,1.40211-.34432-.40286.1294-.62622,0-2.80421-.09918-1.66945-.41958-2.2471,0-2.80421.27428-.36418.87546-.565,2.10316-.70105,3.4739-.385,5.474-.70225,5.60842-.70105,5.6082.05023,11.21722-.06453,16.82525,0a94.53407,94.53407,0,0,0,16.1242-.70106,72.40565,72.40565,0,0,0,10.51579-2.10315C278.21221,386.40927,283.41465,384.14968,284.00025,385.161Z" transform="translate(0 -24)"/><path class="cls-12" d="M251.0508,391.47042v2.80421h7.71157v-3.50526Q254.90656,391.11988,251.0508,391.47042Z" transform="translate(0 -24)"/><path class="cls-6" d="M255.60764,190.61894c-33.00675-3.01907-64.85157,14.33129-80.621,37.85682-2.45446,3.66164-3.97312,6.88109-7.01053,13.32-12.74,27.00715-35.23254,74.68883-16.1242,103.05468,5.3884,7.9989,16.94194,18.70322,29.4442,18.22736,10.17985-.38745,12.96514-7.88187,27.341-8.41263,9.67489-.3572,19.08989,2.643,21.73262,3.50526,8.93452,2.91517,9.17747,4.99094,14.72209,5.60842,7.1774.79934,9.29173-2.39818,23.13473-7.01052,10.27813-3.42456,17.51278-5.7557,26.64-4.90737,7.1625.66571,6.95913,2.49648,14.021,2.80421a38.6297,38.6297,0,0,0,22.43367-5.60841,31.57985,31.57985,0,0,0,11.91789-14.02105c4.38338-10.63767.71821-21.13985-1.4021-28.04209-9.28621-30.22937-2.36849-35.12292-9.11368-53.981C323.808,228.087,296.61787,194.37009,255.60764,190.61894Z" transform="translate(0 -24)"/><path class="cls-13" d="M181.2961,353.96412c7.73014,1.64035,9.00692-2.42715,23.13472-2.80421,5.39777-.14407,14.54508-.38822,24.53683,3.50526,11.425,4.452,11.70407,9.54037,18.92841,9.81474,8.18452.31086,8.84313-6.18137,21.73262-10.51579a59.61307,59.61307,0,0,1,26.64-2.10316c7.38326,1.20768,9.11128,3.13685,15.42315,2.80421,2.85132-.15027,11.33664-.59746,16.82525-6.30947,4.46784-4.64969,4.61435-11.9798,4.90737-26.64a126.97009,126.97009,0,0,0-1.4021-22.43368,115.16,115.16,0,0,0-4.20632-17.5263c-3.34352-10.17472-8.31181-25.29409-20.33051-35.75367-9.04064-7.86788-18.4037-9.90793-30.8463-12.61894-13.64511-2.973-46.4614-10.12311-77.11575,7.71157a77.11921,77.11921,0,0,0-24.53683,21.73263c-8.54917,11.835-11.16806,22.94718-14.02105,35.05261-3.86559,16.402-5.7984,24.60294-2.10316,34.35156C162.18438,340.99538,170.21606,351.613,181.2961,353.96412Z" transform="translate(0 -24)"/><path class="cls-14" d="M174.98663,279.65258c-.81462,5.31245-1.90154,12.401,2.2954,17.85507,3.088,4.01289,9.09516,7.2175,14.52985,8.08386a34.39378,34.39378,0,0,1,7.01052,1.40211,32.31208,32.31208,0,0,1,7.01053,3.50526c6.37677,4.354,10.28108,14.5086,15.42315,26.64,6.62285,15.62485,7.90061,17.07437,9.11368,18.22736.946.89916,10.7975,9.94981,23.83577,7.01052A26.5377,26.5377,0,0,0,269.62868,351.861c2.10111-14.29429,7.28408-23.38206,11.21684-28.74314,6.724-9.16609,23.97266-26.767,37.85682-31.54735,1.00242-.34514,3.58032-1.1719,4.90737-3.50526,2.18522-3.8422-.261-9.5893-4.90737-16.82526-6.60326-10.28344-20.43406-31.82265-47.67155-39.25892-2.0148-.55008-3.66264-.90276-4.6034-1.0926-34.27719-3.19835-63.85574,5.23676-78.12077,21.42311A59.58516,59.58516,0,0,0,174.98663,279.65258Z" transform="translate(0 -24)"/><path d="M234.57607,302.7873c1.81121-.61429,7.61158,12.86111,8.41263,14.7221,1.66153,3.86,1.51185,4.124,1.4021,4.20632-.92017.68982-8.0155-4.65922-9.81473-12.61894C234.08592,306.92832,233.65718,303.099,234.57607,302.7873Z" transform="translate(0 -24)"/><path d="M261.21606,304.18941c-1.35192-.58952-7.93429,6.91065-6.30947,14.021.20264.88678.62758,2.74645,1.4021,2.80421C258.63884,321.18847,263.00322,304.96872,261.21606,304.18941Z" transform="translate(0 -24)"/><path class="cls-6" d="M181.99715,279.65258c.30256,6.57042,7.76108,6.03671,23.83578,20.33052,1.42166,1.26417,3.93884,3.84346,7.41757,3.85578,2.68637.00952,4.19245-1.48928,8.70663-4.55684,8.58554-5.83419,10.099-5.14315,10.51578-7.01052,1.43433-6.4263-15.797-17.713-21.73262-18.22736-.44778-.03881-2.4494-.15639-2.80421-1.15335-.371-1.04249,1.44947-1.949,1.40211-3.053-.10321-2.4042-9.09349-6.39616-16.82526-3.50526C187.11191,268.352,181.7346,273.95088,181.99715,279.65258Z" transform="translate(0 -24)"/><path class="cls-6" d="M264.02027,285.962a9.35085,9.35085,0,0,0-1.40211,4.90737,10.25415,10.25415,0,0,0,2.10316,5.60841c2.06062,2.60148,6.29158,3.654,24.53683,1.40211,14.04975-1.73406,17.20436-3.05716,18.22736-5.60842.85329-2.128-.798-2.56314-.70106-7.71157.11618-6.17326,2.55146-8.80083.70106-11.91789-.83965-1.41437-1.945-1.89078-2.10316-3.50526-.22319-2.27821,1.75729-3.58079,1.4021-4.20632-.76942-1.3551-10.89369,3.29583-19.62946,7.01052C279.04116,275.39124,267.4607,280.01725,264.02027,285.962Z" transform="translate(0 -24)"/><path class="cls-6" d="M162.36769,269.1368c-2.1949,6.08607-4.47294,14.619-2.80421,15.42315,2.4705,1.19045,9.7446-16.41267,25.93893-30.14525,12.74273-10.80568,25.801-14.799,35.05261-17.52631,41.2374-12.15646,75.80988,2.12134,77.11575-2.80421,1.021-3.851-15.41339-12.66121-30.8463-16.82525-5.56515-1.50157-43.33661-11.046-75.71364,11.91789C171.67665,242.96079,164.84456,262.26878,162.36769,269.1368Z" transform="translate(0 -24)"/><path class="cls-15" d="M325.71287,384.81042c.628,3.159,3.85544,19.39284,14.021,30.8463,22.67663,25.54939,71.86453,18.28166,100.95153,4.90737a111.55492,111.55492,0,0,0,14.021-7.71158c1.73826,1.20044,13.92837,9.32964,28.04209,4.90737,2.1433-.67153,11.692-3.66345,16.12421-12.61894,3.93186-7.94443,1.6418-16.1459-.70106-24.53683a61.88607,61.88607,0,0,0-7.01052-16.1242c-5.87362-9.17278-12.17787-12.93567-23.13472-21.03157-21.413-15.82192-16.79026-15.82562-28.74315-23.13473-8.3315-5.09465-20.81548-12.58824-38.55787-14.7221a88.74845,88.74845,0,0,0-25.23788.70106c-4.52133.79352-11.787,2.06867-18.92841,5.60841-25.6917,12.73439-31.12743,45.52891-31.54736,48.37261A72.75637,72.75637,0,0,0,325.71287,384.81042Z" transform="translate(0 -24)"/><path class="cls-6" d="M449.79912,400.23357c-.04835.928-.66682,2.01621-1.40211,2.10316-1.52576.1804-3.69978-3.93345-4.20631-7.71158-.2041-1.52251-.76909-5.7367,2.10316-9.11368,2.7182-3.19581,6.89721-3.74008,7.01052-3.50526.06607.137-1.20468.63452-2.80421,2.10316a12.91979,12.91979,0,0,0-2.80421,3.50526c-.29276.56032-2.49878,4.924-.70105,8.41263C448.06891,398.1115,449.88675,398.55355,449.79912,400.23357Z" transform="translate(0 -24)"/><path class="cls-6" d="M461.717,365.882c.65347.09384.20324-7.03068,4.90736-11.21684,2.79788-2.48984,6.26634-2.91434,6.30947-4.90736a2.29963,2.29963,0,0,0-1.4021-2.10316c-2.67362-.92865-8.28811,5.2-9.81473,11.91789C460.97445,362.83994,461.29562,365.82151,461.717,365.882Z" transform="translate(0 -24)"/><path class="cls-6" d="M475.037,367.28411c-.40547-.0302-5.20415-.321-7.01052,2.80421-1.18346,2.04745-.62891,4.77609,0,4.90737.72552.15143,1.03369-3.26149,3.50526-4.20631,1.57608-.60251,3.30826.07526,4.90736.70105a12.37668,12.37668,0,0,1,3.50527,2.10315c2.50939,2.14056,3.08721,4.3536,3.50526,4.20632.49446-.17419.45228-3.54031-1.40211-6.30947A9.7283,9.7283,0,0,0,475.037,367.28411Z" transform="translate(0 -24)"/><path class="cls-6" d="M456.80964,393.9241c-.43242.56118,4.57224,7.01112,12.61894,9.81473a22.958,22.958,0,0,0,13.32.70105c4.17654-1.11109,7.9482-3.5581,7.71158-4.20631-.1804-.49412-2.60344.29387-6.30947.70105a44.559,44.559,0,0,1-16.1242-1.4021C460.73235,397.35316,457.16051,393.46883,456.80964,393.9241Z" transform="translate(0 -24)"/><path class="cls-6" d="M413.3444,332.93255c-6.17982,2.44521-7.59048,13.90526-6.30947,21.73262,1.32286,8.0832,6.57134,18.73989,13.32,18.92841a9.64868,9.64868,0,0,0,5.60842-2.10315c6.26035-4.11252,7.37936-11.75268,7.71158-14.02105.25972-1.773,1.2959-10.24292-4.20632-17.5263-1.25936-1.667-4.34623-5.75318-9.81473-7.01053C418.1169,332.57918,415.6633,332.015,413.3444,332.93255Z" transform="translate(0 -24)"/><path class="cls-16" d="M414.04545,338.541c-3.094.62215-4.10516,4.49544-4.20631,4.90737a7.96062,7.96062,0,0,0,0,3.50526c.09978.45792,1.09394,5.01832,4.20631,5.60842,2.76707.52463,5.41715-2.42836,6.30947-4.90737a7.463,7.463,0,0,0,0-4.90737,6.36707,6.36707,0,0,0-2.80421-3.50526A5.13334,5.13334,0,0,0,414.04545,338.541Z" transform="translate(0 -24)"/><path class="cls-17" d="M393.71494,252.31154c.46417.44633-.7625,1.86487-1.40211,4.90737-.40487,1.92579-.29267,3.16128,0,7.01052.69344,9.12048.64577,9.84351,0,10.51578-1.341,1.39614-2.68508-.10864-8.41263.70106-3.67881.52-5.203,1.43473-9.11368,1.4021-2.49056-.02077-3.73589-.03117-4.20631-.70105-1.94176-2.76506,7.57722-12.50226,13.32-17.52631C388.225,254.83752,392.91042,251.5379,393.71494,252.31154Z" transform="translate(0 -24)"/><path class="cls-6" d="M384.60126,264.93048c.41873.51531-5.79045,6.7339-6.30947,6.30947-.283-.23142.98688-2.55137,2.80421-4.20631C382.43931,265.81031,384.38962,264.67005,384.60126,264.93048Z" transform="translate(0 -24)"/><path class="cls-18" d="M449.79912,321.71572c-.42866-1.67146-1.65268-2.75036-1.13425-4.05281.33974-.85349,1.19526-.85775,1.8353-1.55561,2.48971-2.7148,1.72422-7.21863,1.4021-9.11368-.34128-2.008-1.055-4.053-3.50526-8.41263-3.448-6.13489-4.44841-5.88019-7.01052-10.51578-3.66469-6.63035-2.58881-8.90763-6.30947-12.61894a21.544,21.544,0,0,0-6.30947-4.20632c-2.88-1.37442-5.7901-2.76321-9.11368-2.10315-1.99713.39663-1.97573,1.10254-4.20631,1.4021a16.27371,16.27371,0,0,1-6.30947-.70105c-3.304-.80024-3.12136-1.271-4.90737-1.40211a12.47388,12.47388,0,0,0-6.30947,1.40211c-2.84417,1.33516-2.33721,2.13655-4.20631,2.80421-3.72982,1.33233-5.76169-1.85436-10.51579-.70106a15.26392,15.26392,0,0,0-3.50526,1.40211,30.45622,30.45622,0,0,0-2.80421,2.10316c-2.62578,1.64837-4.44935-.2098-8.41263.701-2.07072.4759-1.10241.875-5.60841,2.80421-2.90186,1.24239-4.66,1.65766-6.30947,3.50526a9.47265,9.47265,0,0,0-1.40211,2.10316c-1.38336,2.64912-4.9671,9.51163-9.81473,13.32-4.408,3.463-6.5716,1.81634-8.41263,4.90736-1.64985,2.77-.10594,4.41759-2.10316,9.11368-1.17849,2.771-2.118,3.14269-2.8042,5.60842-.37261,1.339-1.39038,4.845,0,7.01053,1.96417,3.0592,8.046,2.39867,10.51578,2.10315,19.40705-2.32223,25.90641-5.60172,36.45472-6.30947,13.91381-.93356,30.35962,2.91028,35.05261,4.20632.44312.12237,1.22256.34385,2.27748.58447a31.096,31.096,0,0,0,4.01385.65938,78.77473,78.77473,0,0,0,9.13182.15825c5.58189-.13618,8.38764-.20019,9.11368,0,4.57883,1.26244,5.47706,4.16269,7.71158,3.50526C448.64793,328.73469,450.5546,324.6616,449.79912,321.71572Z" transform="translate(0 -24)"/><path class="cls-17" d="M348.14654,309.79783c-1.95982.06478-3.82644-9.52065-4.90737-14.7221-3.06873-14.76645-5.06679-19.5159-3.50526-20.33052.31938-.16662.95462-.25566,7.71158,5.60842,2.88328,2.50229,3.07805,2.78787,11.21683,10.51579,2.0406,1.93756,3.56346,4.37655,5.60842,6.30947.59879.56594,1.6537,1.53152,1.4021,2.10315-.28146.6394-1.84676-.01112-4.20631.70106a7.30678,7.30678,0,0,0-3.50526,2.10315c-.95445,1.10049-.621,1.56075-1.4021,2.10316-1.41332.98151-2.83579-.29591-4.20632.70105a7.61328,7.61328,0,0,0-1.4021,2.10316,6.39553,6.39553,0,0,1-1.40211,2.10316A3.05048,3.05048,0,0,1,348.14654,309.79783Z" transform="translate(0 -24)"/><path class="cls-6" d="M347.4236,299.65566a36.83809,36.83809,0,0,0-.8805-9.77516c-.68-2.75922-1.55214-4.59029-1.13847-4.82468.434-.24592,1.6756,1.61012,3.86848,3.87488,4.22833,4.367,7.83422,5.95818,7.61118,6.35333-.20963.37134-3.68856-.51239-6.59849-2.92509-1.64881-1.36708-2.58551-2.78605-3.04447-2.54133-.40739.21724.04542,1.48776.31446,3.49113A17.05488,17.05488,0,0,1,347.4236,299.65566Z" transform="translate(0 -24)"/><path class="cls-19" d="M442.08754,311.19993c-.80092-.20926-.399-1.73874-1.4021-2.80421-1.14469-1.21588-2.56417-.17584-4.20632-1.4021-1.31241-.98-.82069-1.95408-2.10315-2.80421-1.54921-1.027-2.51059.233-4.20632-.70105-1.705-.93913-1.444-2.60452-3.50526-3.50526-.74889-.32727-1.17027-.27655-1.4021-.70106-.36362-.6659.50251-1.30189,1.4021-3.50526.88222-2.16083,1.17978-3.22268,2.10316-3.50526.59459-.182.81478.15323,1.4021,0,1.13228-.29539,1.3909-1.85579,2.10316-3.50526A18.35575,18.35575,0,0,1,435.077,284.56c1.55905-1.80719,2.96082-2.32757,4.90737-3.50527,5.52053-3.34,4.72756-5.49577,9.81473-8.41262.59356-.34035,2.73557-1.15391,7.01052-2.80421,6.90013-2.66371,7.02-2.43062,9.11368-3.50526,5.49837-2.82218,4.33271-4.25576,9.11368-6.30947,4.39749-1.889,6.18444-1.02015,9.11368-3.50527,1.1203-.95044,2.57306-2.53175,3.50526-2.10315.60983.28037.6925,1.28095.70105,1.4021.15961,2.2606-2.89244,4.01507-4.90736,5.60842-2.81654,2.22729-2.081,2.93335-7.01053,9.81473-6.50621,9.0823-13.44887,15.75532-15.42315,18.92841a21.83493,21.83493,0,0,1-2.10315,2.80421,8.46087,8.46087,0,0,1-1.40211,1.40211c-1.63308,1.17421-2.6755.54489-3.50526,1.4021-1.03455,1.06882.24441,2.40022-.70105,4.20632-.52177.99676-.93382.63413-3.50526,2.8042a16.77235,16.77235,0,0,0-2.80421,2.80421c-.46691.61236-.83609,1.20094-1.40211,2.10316-.95282,1.51885-1.24464,2.17977-2.10315,2.80421C442.89959,310.92807,442.51013,311.31035,442.08754,311.19993Z" transform="translate(0 -24)"/><path class="cls-8" d="M446.29386,306.29257a5.15807,5.15807,0,0,0-1.40211-2.10316c-1.62974-1.43332-3.18751-.70381-4.90736-2.10316-1.35444-1.10205-.76883-1.83517-2.10316-2.80421-1.68751-1.22555-2.766-.156-4.90737-1.4021-1.30283-.75818-1.32808-1.4011-2.80421-2.10316a7.51983,7.51983,0,0,0-2.8042-.701" transform="translate(0 -24)"/><path class="cls-8" d="M431.57176,290.86942a4.93064,4.93064,0,0,1,3.50526.70105c.64389.46379.68608.81442,1.4021,1.4021,1.29317,1.06136,2.09811.69115,3.50527,1.40211,1.92584.97306,1.3932,2.15931,3.50526,3.50526,1.33826.85282,1.85755.57123,3.50526,1.4021a11.17428,11.17428,0,0,1,3.50526,2.80421" transform="translate(0 -24)"/><path class="cls-8" d="M454.00543,295.77678a4.98548,4.98548,0,0,0-1.4021-2.10315c-1.35076-1.16626-2.52874-.74284-4.20632-2.10316-.78731-.63841-.6058-.79483-1.4021-1.40211-1.26612-.96553-2.10051-.85637-3.50526-1.4021-2.11771-.82266-2.0697-1.78857-4.90737-3.50526a19.48883,19.48883,0,0,0-2.80421-1.40211" transform="translate(0 -24)"/><path class="cls-8" d="M442.7886,278.95153a26.56921,26.56921,0,0,1,3.50526,2.80421c1.28075,1.21439,1.17036,1.36023,2.10315,2.10315,2.05755,1.63869,3.07335,1.33159,4.20632,2.80421.78235,1.01692.579,1.52863,1.4021,2.10316.94769.66151,1.70548.32389,2.80421.70105a5.128,5.128,0,0,1,2.80421,2.80421" transform="translate(0 -24)"/><path class="cls-8" d="M463.82016,286.6631c-1.1689-1.20221-2.13995-2.15884-2.80421-2.80421a32.984,32.984,0,0,1-2.8042-2.80421c-1.48914-1.82248-1.15368-2.18-2.10316-2.8042-1.28016-.84168-2.11531-.34-3.50526-1.40211-.68967-.527-.648-.77582-1.40211-1.4021a7.13391,7.13391,0,0,0-2.80421-1.40211" transform="translate(0 -24)"/><path class="cls-8" d="M456.80964,269.83785a9.56792,9.56792,0,0,0,3.50526,3.50526,6.36515,6.36515,0,0,1,2.80421,2.10316c.46435.72884.26812.91737.70105,1.4021.95608,1.07034,2.24257.52033,3.50526,1.40211a3.7836,3.7836,0,0,1,1.40211,2.10315" transform="translate(0 -24)"/><path class="cls-8" d="M472.93384,276.14732c-1.2045-1.12706-2.1474-2.1011-2.80421-2.80421-1.32174-1.415-1.43411-1.67824-2.10315-2.10316-1.54066-.97845-2.43067-.52592-3.50526-1.4021a4.25642,4.25642,0,0,1-1.40211-2.80421" transform="translate(0 -24)"/><path class="cls-8" d="M468.72753,264.93048a4.02107,4.02107,0,0,0,1.4021,1.40211c1.55418.89377,2.88277.08645,4.20632.70105.7263.33726,1.61562,1.17913,2.10315,3.50526" transform="translate(0 -24)"/><path class="cls-8" d="M480.64542,264.93048a4.55968,4.55968,0,0,0-2.10316-2.10315c-.83566-.375-1.3843-.23947-2.10316-.70106a3.58766,3.58766,0,0,1-1.4021-2.10315" transform="translate(0 -24)"/><path class="cls-6" d="M448.397,309.09678c.29876.06636.3068,1.5592,0,2.8042a6.43693,6.43693,0,0,1-2.10315,3.50527c-2.52215,2.00318-6.28072,1.072-6.30947.70105-.02679-.34533,3.20265.10226,5.60841-2.10316C447.78205,311.9972,447.97058,309.00208,448.397,309.09678Z" transform="translate(0 -24)"/><path class="cls-6" d="M432.97386,318.91151c.08686.29483-4.968,3.06222-11.21683,2.80421a28.09915,28.09915,0,0,1-7.01053-1.40211c-3.54668-1.0157-7.10311-2.50548-7.01052-2.80421.05349-.17252,1.30523.1126,4.20632.701,6.86812,1.39317,10.34856,2.09,12.61894,2.10316C429.70788,320.34344,432.90506,318.67782,432.97386,318.91151Z" transform="translate(0 -24)"/><path class="cls-6" d="M425.96334,309.09678c1.68674.55687,3.63757,1.6015,3.50526,2.10315-.18639.7066-4.45637.15013-5.60842,0-9.33481-1.21648-11.15316-4.47871-18.92841-6.30947-5.939-1.3984-16.25248-2.17329-20.33051.70105a6.35261,6.35261,0,0,1-4.20632,1.40211c-1.51053-.1501-2.8986-1.06273-2.80421-1.40211.09842-.35384,1.77394.03854,3.50527,0,3.82917-.08523,5.47782-2.2236,8.41262-3.50526,1.86885-.81615,6.15329-.31041,14.7221.70105,8.49829,1.00315,9.77177,1.66289,10.51578,2.10316,2.414,1.42849,3.41336,3.00784,6.30947,3.50526C422.75127,308.6869,423.81363,308.387,425.96334,309.09678Z" transform="translate(0 -24)"/><path class="cls-6" d="M432.78722,281.25166c.243-.40653-3.52529-6.27628-9.37084-7.27682a61.075,61.075,0,0,0-6.56672.06932,45.40106,45.40106,0,0,1-7.01052,0c-2.51607-.27186-4.18415-.78748-4.20632-.701a29.45663,29.45663,0,0,0,6.93462,2.04154c6.75815,1.29971,8.36821-.17255,12.88,1.32434C430.33234,278.32968,432.6182,281.53448,432.78722,281.25166Z" transform="translate(0 -24)"/><path class="cls-6" d="M402.12756,312.602c-.00847.21315-1.56573.16976-4.20631.70105a19.40734,19.40734,0,0,0-4.20631,1.4021c-4.31663,1.78013-10.62507-.29291-16.82526,0-7.70943.36422-7.17663,4.00491-17.52631,5.60842-6.8267,1.0577-12.61748.1607-12.61894,0-.001-.11615,3.017-.03564,7.71158-.70105a45.6506,45.6506,0,0,0,7.01052-1.40211c5.59541-1.69114,5.157-3.43,9.81473-4.90736a24.65247,24.65247,0,0,1,12.61894-.70105,14.86839,14.86839,0,0,0,4.90737.70105c2.49048-.13487,3.10561-.93481,5.60842-1.40211C398.49214,311.13994,402.14049,312.276,402.12756,312.602Z" transform="translate(0 -24)"/><path class="cls-6" d="M350.24969,314.00414c.03278.20457-.8034.49391-1.4021.70105-3.19812,1.10654-4.42385.30562-6.30947,1.40211-.99108.5763-1.02394,1.01358-2.10316,1.4021-1.15453.41563-2.62175.457-2.80421,0-.20162-.505,1.18928-1.55907,2.10316-2.10315.60786-.36189,1.89349-1.02741,5.60842-1.40211C346.85329,313.85175,350.1856,313.60428,350.24969,314.00414Z" transform="translate(0 -24)"/><path class="cls-6" d="M390.784,272.83563c5.43243,2.11638,8.00491,4.49676,9.3452,6.36007.40341.56075,1.1681,1.73217,1.55254,1.58252.51591-.20082.31744-2.76913-.585-4.39507-2.20641-3.97548-9.33755-3.60912-10.31271-3.54752" transform="translate(0 -24)"/><path class="cls-6" d="M374.60433,276.30656c-.0344.34793,2.25292.26495,5.08956,1.94392,2.82526,1.6722,3.88163,3.72267,4.20631,3.50526.37073-.24826-.42318-3.31231-2.8042-4.90737C378.362,275.01679,374.64772,275.86746,374.60433,276.30656Z" transform="translate(0 -24)"/><path class="cls-6" d="M363.272,278.88582a4.34266,4.34266,0,0,1,3.49921-.20582c1.01557.34244,1.8188,1.03088,1.75372,1.16093a16.83578,16.83578,0,0,1-2.1407-.57635C364.44189,278.82073,363.28236,279.02576,363.272,278.88582Z" transform="translate(0 -24)"/><path class="cls-6" d="M422.45808,291.57047c.15164.24618-1.339,2.05808-3.50526,2.80421-3.54352,1.22048-5.6002-1.54551-11.21684-2.10316-4.58611-.45532-7.65663.94779-7.71157.70105-.07232-.32451,5.10428-3.3577,10.51578-2.10315,3.18546.73847,4.54452,2.52037,7.71158,2.10315C420.63288,292.65891,422.30969,291.32959,422.45808,291.57047Z" transform="translate(0 -24)"/><path class="cls-6" d="M386.00336,290.86942c-1.39774.85464-1.14255,1.07053-2.80421,2.10315a16.05012,16.05012,0,0,1-8.41263,2.80421,14.12915,14.12915,0,0,1-6.30947-1.4021c-.23225-.10543-2.22022-1.00787-2.10315-1.40211.04749-.16.46058-.29871,2.80421,0,4.41734.563,5.2786,1.35275,7.01052,1.40211,3.02568.08622,3.56979-2.23345,7.71157-4.20632a18.21443,18.21443,0,0,1,11.21684-1.4021A15.87926,15.87926,0,0,0,386.00336,290.86942Z" transform="translate(0 -24)"/><path class="cls-6" d="M377.59073,289.46731a5.542,5.542,0,0,1-4.20631.70105c-2.18292-.40758-2.41175-1.646-4.20631-2.10315-3.41447-.86986-6.6618,2.57531-7.01053,2.10315-.22849-.30944,1.05851-1.9351,2.80421-2.80421a7.59522,7.59522,0,0,1,3.50526-.70105,5.75427,5.75427,0,0,1,3.50527.70105c.80229.532.66784.86815,1.4021,1.40211C375.15742,290.05562,377.56275,289.2748,377.59073,289.46731Z" transform="translate(0 -24)"/><path class="cls-6" d="M372.68337,303.48836c.05793.36941-2.33182.33264-4.90737,2.10315-2.06576,1.42008-2.00551,2.4591-4.20631,3.50527a7.21063,7.21063,0,0,1-3.50526.701c-.19144-.01215-2.006-.12736-2.10316-.701-.0801-.4731,1.01735-1.20143,2.10316-1.40211.98277-.18164,1.21075.20669,2.10315,0a4.70861,4.70861,0,0,0,2.10316-1.4021c1.21169-1.10355,1.21341-1.54611,2.10316-2.10316a5.59048,5.59048,0,0,1,2.10315-.70105C370.36438,303.11654,372.627,303.12861,372.68337,303.48836Z" transform="translate(0 -24)"/><path class="cls-20" d="M835,870.98081Q876.00006,893.99041,917,917q35.00005-15.33974,70-30.67946,26.00005-416.72937,52-833.45874L983,29q-30.99995,16.192-62,32.38388Q878.00006,466.18237,835,870.98081Z" transform="translate(0 -24)"/><path class="cls-21" d="M1193,261q-224.83941,27.48185-449.67883,54.96371Q735.66058,246.98185,728,178l95,4q5.38806-41.6451,10.77618-83.29017l311.218,2.25253Q1136.49713,144.98118,1128,189l70,12Q1195.50006,231,1193,261Z" transform="translate(0 -24)"/><path class="cls-22" d="M872,24q9.5,19,19,38-16,27.03846-32,54.07692L1112,119l-12-51.15385Q1112.99995,45.92308,1126,24Z" transform="translate(0 -24)"/><path class="cls-23" d="M947.79346,53.94434a13.77659,13.77659,0,0,1-2.436,7.523,21.91582,21.91582,0,0,1-5.96,5.73974,40.08575,40.08575,0,0,1,2.10889,3.51172,34.92462,34.92462,0,0,1,1.915,4.21045,33.14191,33.14191,0,0,1,1.33252,4.40478,15.823,15.823,0,0,1,.43164,4.03516,6.1873,6.1873,0,0,1-1.17383,3.48633,3.96179,3.96179,0,0,1-3.606,1.43652,4.56943,4.56943,0,0,1-3.55273-1.96826,20.18194,20.18194,0,0,1-2.54883-4.47852q-1.0935-2.58471-1.979-5.25634a32.7452,32.7452,0,0,0-1.709-4.29541q-1.23047.32519-2.397.74316-1.16674.419-2.39893.8042-.11572,1.34693-.36865,3.69971a27.91476,27.91476,0,0,1-.91113,4.66211,12.6547,12.6547,0,0,1-1.86865,3.9834,3.62865,3.62865,0,0,1-3.23975,1.60253,4.0301,4.0301,0,0,1-3.39014-1.77783,10.34076,10.34076,0,0,1-1.58447-3.98388,24.33875,24.33875,0,0,1-.41016-4.64795q.01613-2.3606.06446-3.71045.10326-2.87988.33789-5.66455.23511-2.78247.33789-5.66358.09375-2.63525.08642-5.2749-.00732-2.63745.08887-5.33594.022-.61156.05566-1.563a19.6,19.6,0,0,1,.17139-1.957q.1377-1.00707.30615-1.92236a3.89312,3.89312,0,0,1,.52539-1.45361,6.59221,6.59221,0,0,1,3.16456-2.34131,37.40271,37.40271,0,0,1,5.34814-1.86573,52.20822,52.20822,0,0,1,5.66357-1.20947,24.32328,24.32328,0,0,1,4.11036-.37451,14.965,14.965,0,0,1,6.04492,1.38135,12.53885,12.53885,0,0,1,4.2832,3.313,13.31728,13.31728,0,0,1,2.47363,4.69091A17.07694,17.07694,0,0,1,947.79346,53.94434Zm-12.542.41211a3.321,3.321,0,0,0-.72509-2.44971,3.57961,3.57961,0,0,0-2.60889-.92188,9.22837,9.22837,0,0,0-2.75342.33155,18.49287,18.49287,0,0,0-2.57177.88964q.09741,4.85231-.14014,9.62989a23.52274,23.52274,0,0,0,2.94775-.99951,13.385,13.385,0,0,0,2.79834-1.55713,9.40277,9.40277,0,0,0,2.14112-2.13282A4.99526,4.99526,0,0,0,935.25146,54.35645Z" transform="translate(0 -24)"/><path class="cls-23" d="M977.73633,76.36865a6.85408,6.85408,0,0,1-1.60059,4.02393,15.83252,15.83252,0,0,1-3.77832,3.42383,20.84136,20.84136,0,0,1-4.791,2.34521,13.05481,13.05481,0,0,1-4.63282.78613,12.51719,12.51719,0,0,1-6.33154-1.85254,15.5534,15.5534,0,0,1-4.55273-4.30419,18.70451,18.70451,0,0,1-2.67676-5.64942,19.18975,19.18975,0,0,1-.769-5.94922,25.09608,25.09608,0,0,1,1.18066-6.52392,22.316,22.316,0,0,1,3.10352-6.333,17.12611,17.12611,0,0,1,5.04443-4.729A12.33293,12.33293,0,0,1,965.002,49.895a13.76445,13.76445,0,0,1,4.3711.86133,11.36969,11.36969,0,0,1,3.58007,2.12256,10.14267,10.14267,0,0,1,2.39258,3.1538,8.34228,8.34228,0,0,1,.80469,4.01709,11.2132,11.2132,0,0,1-1.54492,5.34522,14.50531,14.50531,0,0,1-3.73926,4.22363,18.728,18.728,0,0,1-5.24609,2.78955,18.29623,18.29623,0,0,1-5.9961,1.04346,3.42065,3.42065,0,0,0,1.49707,2.63135,5.97649,5.97649,0,0,0,3.11719.90869,6.07291,6.07291,0,0,0,2.65918-.519,24.20416,24.20416,0,0,0,2.55078-1.29q1.24512-.72144,2.4502-1.293a5.1807,5.1807,0,0,1,2.42285-.52735,4.01539,4.01539,0,0,1,2.40625.88379A2.47825,2.47825,0,0,1,977.73633,76.36865ZM967.31445,60.96191a3.42324,3.42324,0,0,0-.41406-1.67138,1.58405,1.58405,0,0,0-1.457-.91162,4.28988,4.28988,0,0,0-2.52734.61572,6.10464,6.10464,0,0,0-1.75391,1.71728,9.35581,9.35581,0,0,0-1.12988,2.26075,10.09487,10.09487,0,0,0-.52051,2.252q.95288-.15015,2.2832-.40967a14.06009,14.06009,0,0,0,2.53125-.73779,7.0902,7.0902,0,0,0,2.07617-1.24561A2.52,2.52,0,0,0,967.31445,60.96191Z" transform="translate(0 -24)"/><path class="cls-23" d="M1009.10059,79.7583q-.03956,1.103-.20411,2.87695a16.16057,16.16057,0,0,1-.69921,3.44239,7.795,7.795,0,0,1-1.59082,2.85791,3.48537,3.48537,0,0,1-2.88477,1.12451,4.7635,4.7635,0,0,1-4.95606-5.33154,17.11577,17.11577,0,0,1-4.998,2.522,16.48593,16.48593,0,0,1-5.61524.78125,8.37136,8.37136,0,0,1-3.6875-.99072,11.49855,11.49855,0,0,1-3.0332-2.31739,10.96785,10.96785,0,0,1-2.05566-3.11084,7.66088,7.66088,0,0,1-.69239-3.36963,7.43945,7.43945,0,0,1,2.17871-5.07666,18.04611,18.04611,0,0,1,5.03809-3.59472,30.2917,30.2917,0,0,1,6.27539-2.26074,39.22424,39.22424,0,0,1,5.89356-1.01758,3.85463,3.85463,0,0,1,.05371-.54981,3.86512,3.86512,0,0,0,.05273-.55078,4.17741,4.17741,0,0,0-1.03906-3.105,4.36567,4.36567,0,0,0-3.20508-1.28076,7.36364,7.36364,0,0,0-2.92578.41748,19.55453,19.55453,0,0,0-2.3418,1.082q-1.10449.60425-2.20508,1.08691a5.538,5.538,0,0,1-2.4541.43457A3.87715,3.87715,0,0,1,981.5,62.87988a2.72225,2.72225,0,0,1-.96875-2.24414,5.76339,5.76339,0,0,1,1.44922-3.63037,11.34327,11.34327,0,0,1,3.41406-2.66992,18.83925,18.83925,0,0,1,4.39063-1.623,16.248,16.248,0,0,1,4.31836-.49072,17.10256,17.10256,0,0,1,3.63769.5293,14.28755,14.28755,0,0,1,3.40527,1.34863,13.499,13.499,0,0,1,2.86914,2.12793,9.65016,9.65016,0,0,1,2.03126,2.86377,25.16833,25.16833,0,0,1,1.78906,4.88183,39.92777,39.92777,0,0,1,.96289,5.25049,53.04317,53.04317,0,0,1,.35156,5.35108Q1009.1914,77.24585,1009.10059,79.7583Zm-10.75-2.34717-.05469-4.1748a1.20749,1.20749,0,0,1-.26953-.04053,1.24576,1.24576,0,0,0-.26856-.04053,7.89148,7.89148,0,0,0-2.21191.3208,12.00353,12.00353,0,0,0-2.57715,1.01172,9.80708,9.80708,0,0,0-2.11719,1.48926,2.54,2.54,0,0,0-.91015,1.74756,1.15779,1.15779,0,0,0,.63574,1.18848,3.7249,3.7249,0,0,0,1.54394.3623,8.29292,8.29292,0,0,0,3.20508-.5918Q997.04,78.04053,998.35059,77.41113Z" transform="translate(0 -24)"/><path class="cls-23" d="M1044.47656,71.38623a30.4896,30.4896,0,0,1-.85351,5.89111,20.69939,20.69939,0,0,1-2.377,5.89844,14.25253,14.25253,0,0,1-4.15429,4.45459,10.08526,10.08526,0,0,1-6.25489,1.61768,16.33634,16.33634,0,0,1-1.95605-.19287,9.61856,9.61856,0,0,1-1.91211-.49756,6.43386,6.43386,0,0,1-1.627-.88623,3.42894,3.42894,0,0,1-1.10059-1.42041l-.9248,8.8042q-.11719,1.40625-.22071,3.36718a14.56471,14.56471,0,0,1-.67382,3.71924,7.26375,7.26375,0,0,1-1.79883,2.97315,4.4739,4.4739,0,0,1-3.46094,1.13476,2.60925,2.60925,0,0,1-2.12109-1.27246,9.21559,9.21559,0,0,1-1.2793-3.083,27.86991,27.86991,0,0,1-.62891-4.13427q-.1919-2.27784-.18359-4.36329.00439-2.0874.06836-3.80224.06006-1.71534.08887-2.5127.14648-4.106.22363-8.18457.0791-4.07812.22461-8.18457.02637-.73534.082-2.29834.05566-1.56225.25781-3.39648.19921-1.83472.57422-3.78418a18.1234,18.1234,0,0,1,1.041-3.55322,7.84578,7.84578,0,0,1,1.64843-2.57959,3.03544,3.03544,0,0,1,2.33594-.9292,2.8749,2.8749,0,0,1,1.57422.51611,4.55177,4.55177,0,0,1,1.1748,1.208,7.71558,7.71558,0,0,1,.791,1.53174,14.39662,14.39662,0,0,1,.48926,1.49023,14.03977,14.03977,0,0,1,4.95117-3.07568,15.51938,15.51938,0,0,1,5.88867-.89453,8.22753,8.22753,0,0,1,5.25,1.84423,11.71557,11.71557,0,0,1,3.09961,4.22217,19.546,19.546,0,0,1,1.4707,5.29932A30.64442,30.64442,0,0,1,1044.47656,71.38623Zm-9.65429-.83545a10.72673,10.72673,0,0,0-.10157-1.87549,6.027,6.027,0,0,0-.54492-1.79883,3.59562,3.59562,0,0,0-1.20312-1.39306,3.6904,3.6904,0,0,0-2.01075-.59326,7.30633,7.30633,0,0,0-3.44824.82812,7.55073,7.55073,0,0,0-2.749,2.08057,3.20839,3.20839,0,0,0-.46289,1.57861q-.10841,1.10083-.12793,1.65235c-.00977.28662-.0127.66455-.00586,1.13525q.00879.706.05078,1.44385.041.73755.11816,1.41552a3.22613,3.22613,0,0,0,.26661,1.05274,2.18965,2.18965,0,0,0,.84375,1.04248,9.867,9.867,0,0,0,1.457.88037,8.2427,8.2427,0,0,0,1.63867.61133,6.99947,6.99947,0,0,0,1.44726.23486,2.94032,2.94032,0,0,0,2.334-.89746,7.30967,7.30967,0,0,0,1.4707-2.27978,11.912,11.912,0,0,0,.77539-2.76514A21.464,21.464,0,0,0,1034.82227,70.55078Z" transform="translate(0 -24)"/><path class="cls-23" d="M1059.15039,49.14258a7.77506,7.77506,0,0,1-.666,2.52295,19.83337,19.83337,0,0,1-1.52735,2.9834,11.23318,11.23318,0,0,1-2.01758,2.44433,3.11444,3.11444,0,0,1-2.13281.96729q-1.355-.04834-1.30664-1.33594a3.09871,3.09871,0,0,1,.38867-1.397,15.03856,15.03856,0,0,1,.791-1.29151c.28515-.41943.54687-.8291.78906-1.23047a2.6344,2.6344,0,0,0,.38281-1.27441,4.347,4.347,0,0,1-1.06445.45264,3.67566,3.67566,0,0,1-1.123.144,3.55432,3.55432,0,0,1-2.59863-1.19678,3.492,3.492,0,0,1-.99219-2.55176,3.8389,3.8389,0,0,1,1.53125-3.0747,5.47472,5.47472,0,0,1,3.627-1.03711,7.91117,7.91117,0,0,1,4.21972,1.28613A3.85235,3.85235,0,0,1,1059.15039,49.14258Z" transform="translate(0 -24)"/><path class="cls-23" d="M1082.83008,57.29053a2.92366,2.92366,0,0,1-1.41211,2.58838,24.75242,24.75242,0,0,1-3,1.519,15.22916,15.22916,0,0,0-3.00586,1.70312,3.747,3.747,0,0,0-1.43066,3.07862,3.15826,3.15826,0,0,0,.50683,1.91992,6.80894,6.80894,0,0,0,1.36914,1.4917q.82032.6731,1.8125,1.38379a11.84282,11.84282,0,0,1,1.80567,1.59863,7.46014,7.46014,0,0,1,1.3457,2.13428,7.05047,7.05047,0,0,1,.46777,3.02392,9.89829,9.89829,0,0,1-1.63476,5.0044,17.23073,17.23073,0,0,1-3.877,4.28027,18.85236,18.85236,0,0,1-5.21582,2.9126,14.74594,14.74594,0,0,1-5.65527.96387,17.56077,17.56077,0,0,1-2.29395-.23487,7.05063,7.05063,0,0,1-2.042-.65576,4.18566,4.18566,0,0,1-1.47851-1.25,3.09821,3.09821,0,0,1-.53809-2.01367,4.237,4.237,0,0,1,.83887-2.63916,5.24631,5.24631,0,0,1,1.94824-1.43359,11.93594,11.93594,0,0,1,2.499-.77051,16.96214,16.96214,0,0,0,2.49414-.67822,5.62709,5.62709,0,0,0,1.93653-1.127,2.79787,2.79787,0,0,0,.81933-2.05762,4.2923,4.2923,0,0,0-1.02148-2.706q-1.06641-1.4187-2.36328-3.0293a27.07681,27.07681,0,0,1-2.34863-3.42822,7.23529,7.23529,0,0,1-.97754-3.96289,10.25081,10.25081,0,0,1,1.35937-4.83008,12.77551,12.77551,0,0,1,3.31738-3.77832,15.68178,15.68178,0,0,1,10.10059-3.19873,12.31909,12.31909,0,0,1,2.125.26026,5.75433,5.75433,0,0,1,1.83594.71,3.8158,3.8158,0,0,1,1.27539,1.27246A3.44013,3.44013,0,0,1,1082.83008,57.29053Z" transform="translate(0 -24)"/><path class="cls-23" d="M909.13672,136.94434q-.14283,3.98877-3.92969,7.03662a34.25321,34.25321,0,0,1-9.959,5.25927,45.2092,45.2092,0,0,1,3.67334,3.37256,31.79478,31.79478,0,0,1,3.3623,4.02637,23.90229,23.90229,0,0,1,2.37988,4.19482,8.9219,8.9219,0,0,1,.84082,3.82081,4.27514,4.27514,0,0,1-1.89843,3.26074q-1.834,1.41065-6.08057,1.25879a10.76346,10.76346,0,0,1-6.08057-1.95362A21.82826,21.82826,0,0,1,887,162.92432a56.64049,56.64049,0,0,1-3.5-5.01612,27.26907,27.26907,0,0,0-3.01514-4.10156q-2.07788.27393-4.04638.63721-1.96875.364-4.04834.69482-.16115,1.26856-.52637,3.48291a15.91553,15.91553,0,0,1-1.42139,4.37744,10.40747,10.40747,0,0,1-3.06347,3.71,8.21934,8.21934,0,0,1-5.45411,1.42627,9.56077,9.56077,0,0,1-5.7998-1.76953,8.69327,8.69327,0,0,1-2.79541-3.80468,13.44965,13.44965,0,0,1-.82031-4.39893q-.03663-2.22876.00976-3.50049.09741-2.71728.4209-5.33935.32228-2.62207.42041-5.33887.08862-2.48511.00488-4.97754-.08349-2.491.00733-5.03516.0205-.57714.05224-1.47412a10.40538,10.40538,0,0,1,.23877-1.84326c.13721-.63184.29151-1.23389.4668-1.80713a2.76751,2.76751,0,0,1,.853-1.3584q1.18946-1.17261,5.30615-2.126,4.11329-.95215,9.02539-1.6167,4.908-.66358,9.57666-.99024,4.66773-.32373,6.96387-.24267a43.68262,43.68262,0,0,1,10.29394,1.46679,25.339,25.339,0,0,1,7.35645,3.24366,13.52353,13.52353,0,0,1,4.32324,4.49511A9.8333,9.8333,0,0,1,909.13672,136.94434Zm-21.269.05175a2.48626,2.48626,0,0,0-1.2959-2.333,9.57035,9.57035,0,0,0-4.4502-.94,27.451,27.451,0,0,0-4.66455.23877q-2.36939.32081-4.33887.77149a72.64729,72.64729,0,0,1,.021,9.0874q2.42579-.31713,4.97363-.86426a29.93576,29.93576,0,0,0,4.70557-1.395A14.29988,14.29988,0,0,0,886.395,139.606,3.40851,3.40851,0,0,0,887.86768,136.99609Z" transform="translate(0 -24)"/><path class="cls-23" d="M960.54443,158.9209q-.07031,1.96583-2.605,3.75635a26.06181,26.06181,0,0,1-6.31982,3.13134,49.5914,49.5914,0,0,1-8.064,2.085,38.05134,38.05134,0,0,1-7.83984.61768,35.42431,35.42431,0,0,1-10.79541-1.91894,27.57051,27.57051,0,0,1-7.83984-4.18653,17.55992,17.55992,0,0,1-4.69336-5.40625,11.07086,11.07086,0,0,1-1.46582-5.63672,14.17988,14.17988,0,0,1,1.82812-6.12841,18.85969,18.85969,0,0,1,5.09668-5.895,27.3506,27.3506,0,0,1,8.43164-4.32959,34.26354,34.26354,0,0,1,11.94922-1.42627,40.67051,40.67051,0,0,1,7.439.93115,26.607,26.607,0,0,1,6.1333,2.1001,13.81557,13.81557,0,0,1,4.14453,3.0415,5.30713,5.30713,0,0,1,1.47314,3.81494,7.22766,7.22766,0,0,1-2.478,5.00488,19.87343,19.87343,0,0,1-6.23144,3.88721,42.66414,42.66414,0,0,1-8.82568,2.4917,53.17135,53.17135,0,0,1-10.14551.8252,3.71089,3.71089,0,0,0,2.61133,2.52392,16.859,16.859,0,0,0,5.312.9419,17.41545,17.41545,0,0,0,4.498-.418q2.2002-.49952,4.29493-1.14942,2.0918-.64746,4.12207-1.15478a14.67635,14.67635,0,0,1,4.09619-.43262,10.85,10.85,0,0,1,4.10693.89893Q960.58618,157.70679,960.54443,158.9209Zm-18.09375-14.82569a2.30856,2.30856,0,0,0-.748-1.58984,3.439,3.439,0,0,0-2.49756-.89892,11.86509,11.86509,0,0,0-4.272.51269,9.4482,9.4482,0,0,0-2.92969,1.57373,8.04466,8.04466,0,0,0-1.85694,2.10449,5.94724,5.94724,0,0,0-.82275,2.11231q1.6128-.11646,3.86231-.3252a38.75924,38.75924,0,0,0,4.27636-.6289,15.25609,15.25609,0,0,0,3.48877-1.12012Q942.41162,145.13672,942.45068,144.09521Z" transform="translate(0 -24)"/><path class="cls-23" d="M991.44727,172.41016a58.318,58.318,0,0,1-12.64844-1.52246,15.70117,15.70117,0,0,1-6.666-3.27637,7.8838,7.8838,0,0,1-2.52929-4.83643,38.07611,38.07611,0,0,1-.23829-6.20117,43.66607,43.66607,0,0,1,.54-5.45068q.44092-2.73267,1.24219-5.83106-1.60839-.05712-2.52734-.061-.91992-.00294-1.49317-.02442a22.27608,22.27608,0,0,1-6.34326-1.03662q-2.66822-.90454-2.60937-2.58154.03661-1.04,1.61572-1.79492a17.50031,17.50031,0,0,1,4.01074-1.24561,47.4106,47.4106,0,0,1,5.25684-.73877q2.82569-.24683,5.35547-.27148a15.77988,15.77988,0,0,1,.58789-3.56787,10.38631,10.38631,0,0,1,1.7959-3.61133,9.77083,9.77083,0,0,1,3.374-2.74463,10.74215,10.74215,0,0,1,5.32226-.96777,9.10585,9.10585,0,0,1,3.252.6665,7.38618,7.38618,0,0,1,2.30566,1.47119,5.64155,5.64155,0,0,1,1.31055,1.92774,5.02877,5.02877,0,0,1,.38574,2.03955,8.719,8.719,0,0,1-.42773,2.35791,17.3683,17.3683,0,0,1-1.37012,2.96093q1.9541-.04614,2.64648-.05029c.459-.00293.87891.00195,1.26368.01563q1.9497.06957,4.06933.31933a28.13828,28.13828,0,0,1,3.88379.7168,10.6071,10.6071,0,0,1,2.88867,1.17432,1.89433,1.89433,0,0,1,1.09082,1.63037c-.02441.69384-.60351,1.291-1.73047,1.79a19.75654,19.75654,0,0,1-4.24023,1.23779,47.53943,47.53943,0,0,1-5.42969.7041q-2.87841.21606-5.40918.24121a31.71027,31.71027,0,0,0-1.13281,4.3291q-.36035,1.98414-.77539,3.99512c-.17774.65039-.334,1.31006-.47363,1.98a12.29924,12.29924,0,0,0-.24512,2.04541,15.692,15.692,0,0,0,.05273,1.76709,3.9503,3.9503,0,0,0,.73535,1.96582,5.35238,5.35238,0,0,0,2.12305,1.66748,10.40951,10.40951,0,0,0,4.11133.8125q1.60693.05714,3.334-.02588,1.72852-.082,3.44825-.02148a7.00926,7.00926,0,0,1,4.26855,1.19385,3.241,3.241,0,0,1,1.22656,2.70605,2.53143,2.53143,0,0,1-1.51172,2.05859,12.69347,12.69347,0,0,1-3.668,1.3169,35.90547,35.90547,0,0,1-4.90723.66308A48.09731,48.09731,0,0,1,991.44727,172.41016Z" transform="translate(0 -24)"/><path class="cls-23" d="M1057.94531,164.53809q-.03661,1.04-.26855,2.71093a9.349,9.349,0,0,1-1.09278,3.23145,7.29132,7.29132,0,0,1-2.624,2.65527,8.60388,8.60388,0,0,1-4.86328.98389,12.75546,12.75546,0,0,1-6.49512-1.62061,3.76515,3.76515,0,0,1-2.05859-3.54638,39.93318,39.93318,0,0,1-8.41406,2.24609,48.46691,48.46691,0,0,1-9.50489.5874,24.06414,24.06414,0,0,1-6.28613-1.03515,23.56786,23.56786,0,0,1-5.20605-2.269,13.33,13.33,0,0,1-3.57227-2.99218A4.8541,4.8541,0,0,1,1006.294,162.29q.09814-2.77515,3.56054-4.73535a35.0775,35.0775,0,0,1,8.4502-3.25781,79.30144,79.30144,0,0,1,10.58886-1.96583q5.6001-.6687,9.97364-.80273a2.11226,2.11226,0,0,1,.07519-.51758,2.19282,2.19282,0,0,0,.07617-.51806,3.27187,3.27187,0,0,0-1.84863-2.96,11.38324,11.38324,0,0,0-5.47168-1.29541,21.62807,21.62807,0,0,0-4.9541.31543q-2.08448.41821-3.94336.959-1.86035.54126-3.71387.96728a16.00221,16.00221,0,0,1-4.15039.34424,10.35084,10.35084,0,0,1-4.27734-.96338q-1.752-.87231-1.70508-2.144.06885-1.90869,2.36328-3.38867a20.74528,20.74528,0,0,1,5.71875-2.4292,49.03787,49.03787,0,0,1,7.40918-1.41406,48.34268,48.34268,0,0,1,7.31153-.34717,51.653,51.653,0,0,1,6.1875.59717,38.53149,38.53149,0,0,1,5.81347,1.36523,28.11208,28.11208,0,0,1,4.92676,2.08545,12.41291,12.41291,0,0,1,3.52246,2.75928,19.94387,19.94387,0,0,1,3.168,4.65625,24.44078,24.44078,0,0,1,1.77637,4.9834,29.03653,29.03653,0,0,1,.73828,5.062Q1058.0288,162.168,1057.94531,164.53809Zm-18.30371-2.50538-.20508-3.94287a3.41926,3.41926,0,0,1-.457-.04589,3.88113,3.88113,0,0,0-.459-.04493,23.38773,23.38773,0,0,0-3.74414.24219,30.74519,30.74519,0,0,0-4.34278.8877,19.03045,19.03045,0,0,0-3.55468,1.34863q-1.46631.75952-1.4961,1.62549-.02783.81006,1.11035,1.13916a10.8292,10.8292,0,0,0,2.62989.3833,23.95821,23.95821,0,0,0,5.41992-.47266Q1037.43457,162.59254,1039.6416,162.03271Z" transform="translate(0 -24)"/><path class="cls-23" d="M1085.14453,152.94922q-.02783.81006-.06055,1.70459a12.45735,12.45735,0,0,1-.17578,1.70117,23.58754,23.58754,0,0,0-.209,2.62647,30.30587,30.30587,0,0,1-.35645,3.54638,29.23932,29.23932,0,0,1-.88379,3.84668,10.9827,10.9827,0,0,1-1.793,3.52442,8.65622,8.65622,0,0,1-3.13672,2.522,10.51881,10.51881,0,0,1-4.80274.89892,6.51241,6.51241,0,0,1-3.64355-.99755,7.92446,7.92446,0,0,1-2.38281-2.48731,10.56116,10.56116,0,0,1-1.31739-3.34619,31.57692,31.57692,0,0,1-.56347-3.55078,23.47994,23.47994,0,0,1-.11719-3.15869q.05127-1.44434.07617-2.13868.03222-.92432.09375-2.63037a31.59019,31.59019,0,0,1,.36035-3.66259,21.94355,21.94355,0,0,1,1.00488-3.958,12.82762,12.82762,0,0,1,1.96778-3.63379,9.09429,9.09429,0,0,1,3.2539-2.60449,10.43588,10.43588,0,0,1,4.97461-.86377,6.49949,6.49949,0,0,1,4.65137,1.72851,10.09324,10.09324,0,0,1,2.28125,3.72754,13.56084,13.56084,0,0,1,.77149,4.166Q1085.17724,151.967,1085.14453,152.94922Zm-.21777-19.687a1.795,1.795,0,0,1-.91211,1.41406,8.66171,8.66171,0,0,1-2.28027,1.04736,16.852,16.852,0,0,1-3.01172.645,18.75916,18.75916,0,0,1-2.99317.15381,12.63388,12.63388,0,0,1-3.998-.72168q-1.70069-.63867-1.65821-1.85351a1.91857,1.91857,0,0,1,.915-1.501,7.38879,7.38879,0,0,1,2.16309-1.023,15.90187,15.90187,0,0,1,2.89453-.562,21.79734,21.79734,0,0,1,3.1084-.12061,14.74029,14.74029,0,0,1,4,.66358Q1084.9707,131.99023,1084.92676,133.26221Z" transform="translate(0 -24)"/><path class="cls-23" d="M1115.27832,139.66992a38.64843,38.64843,0,0,1-.74023,6.25342,38.98188,38.98188,0,0,0-.74219,6.31152,65.634,65.634,0,0,0,.22363,8.22657,66.18874,66.18874,0,0,1,.22168,8.28466,13.79327,13.79327,0,0,1-.3125,2.333,5.3875,5.3875,0,0,1-1.17676,2.35986,6.50829,6.50829,0,0,1-2.64941,1.75782,11.6909,11.6909,0,0,1-4.62012.58789,8.3082,8.3082,0,0,1-4.71582-1.52881,11.46353,11.46353,0,0,1-3.20605-3.58691,21.66467,21.66467,0,0,1-2.0127-4.78907,33.01447,33.01447,0,0,1-1.083-5.10351q-.31494-2.46973-.41211-4.5293-.0996-2.05664-.06543-3.04053.03956-1.09716.28711-3.17334a30.56615,30.56615,0,0,1,.90528-4.48193,37.69074,37.69074,0,0,1,1.72754-4.8877,17.707,17.707,0,0,1,2.74707-4.47412,13.37359,13.37359,0,0,1,3.96484-3.21533,10.45393,10.45393,0,0,1,5.38574-1.11035,7.23568,7.23568,0,0,1,3.81543.9751,5.02069,5.02069,0,0,1,1.82227,2.09131,7.07626,7.07626,0,0,1,.59961,2.50976C1115.28711,138.31006,1115.30078,139.05371,1115.27832,139.66992Z" transform="translate(0 -24)"/><path class="cls-23" d="M827.31348,228.34326a15.06708,15.06708,0,0,1-3.5586,10.61377,38.0616,38.0616,0,0,1-10.59521,8.76221,57.50507,57.50507,0,0,1,4.57275,4.43115,44.36736,44.36736,0,0,1,4.3042,5.4126,37.22158,37.22158,0,0,1,3.21338,5.769,15.82885,15.82885,0,0,1,1.4292,5.41358,6.8273,6.8273,0,0,1-1.73633,4.92627q-1.89624,2.25293-6.71338,2.53515a10.38192,10.38192,0,0,1-7.11572-2.10107,28.13822,28.13822,0,0,1-5.56055-5.67334q-2.48437-3.33546-4.58349-6.82178a39.53746,39.53746,0,0,0-3.91993-5.56152q-2.31591.64159-4.49316,1.39746-2.179.75732-4.4873,1.47949-.02271,1.84936-.15821,5.0874a28.14765,28.14765,0,0,1-1.05761,6.48145A15.23979,15.23979,0,0,1,783.856,276.21a8.04389,8.04389,0,0,1-5.98389,2.70117,9.20886,9.20886,0,0,1-6.77588-1.86816,12.58837,12.58837,0,0,1-3.63525-5.15869,24.06941,24.06941,0,0,1-1.47754-6.24854q-.3208-3.21019-.42774-5.05176-.2307-3.93016-.19336-7.75146.03663-3.81958-.19335-7.75049-.21168-3.59472-.61768-7.18115-.4065-3.583-.62256-7.26514-.04907-.835-.125-2.13183a19.11277,19.11277,0,0,1,.03809-2.687c.07666-.92871.17529-1.81543.30175-2.66259a4.35134,4.35134,0,0,1,.793-2.05909q1.19825-1.83324,5.73047-3.69384a92.0173,92.0173,0,0,1,9.99512-3.39795q5.46314-1.53663,10.69775-2.5586a65.37363,65.37363,0,0,1,7.83887-1.17334,39.40986,39.40986,0,0,1,11.81592.90088,25.67273,25.67273,0,0,1,8.71826,3.81055,17.95354,17.95354,0,0,1,5.44824,5.97412A17.24432,17.24432,0,0,1,827.31348,228.34326Zm-24.02735,2.58545a3.82787,3.82787,0,0,0-1.75683-3.21338q-1.62965-1.03564-5.146-.83056a24.63178,24.63178,0,0,0-5.24023.8955,45.50884,45.50884,0,0,0-4.80664,1.62452q.90747,6.57788,1.16211,13.10693a57.80772,57.80772,0,0,0,5.5122-1.8335,29.21288,29.21288,0,0,0,5.14209-2.56836,15.98468,15.98468,0,0,0,3.7959-3.24316A5.47773,5.47773,0,0,0,803.28613,230.92871Z" transform="translate(0 -24)"/><path class="cls-23" d="M859.34424,273.03809a27.76112,27.76112,0,0,1-11.7251-1.57715,27.02947,27.02947,0,0,1-8.67432-5.28223,23.67056,23.67056,0,0,1-5.53857-7.52148,23.11027,23.11027,0,0,1-2.19189-8.38868,27.115,27.115,0,0,1,1.15576-9.25683,25.70551,25.70551,0,0,1,4.7041-8.91992A26.75986,26.75986,0,0,1,845.689,225.208a31.551,31.551,0,0,1,12.87989-3.23145,27.82259,27.82259,0,0,1,12.58886,1.8208,24.76333,24.76333,0,0,1,8.644,5.86963,23.168,23.168,0,0,1,4.9165,8.06153,22.81143,22.81143,0,0,1,1.4126,8.47656,32.48528,32.48528,0,0,1-1.62451,9.07471,24.96783,24.96783,0,0,1-4.668,8.415,25.694,25.694,0,0,1-8.25293,6.35938A31.04162,31.04162,0,0,1,859.34424,273.03809Zm-.916-37.87842a5.04136,5.04136,0,0,0-3.37353,1.54053,11.05287,11.05287,0,0,0-2.28321,3.40722,18.70726,18.70726,0,0,0-1.25976,4.14356,15.96,15.96,0,0,0-.30225,3.75341,18.01683,18.01683,0,0,0,.84082,4.314,18.9513,18.9513,0,0,0,1.88086,4.21094,11.17716,11.17716,0,0,0,2.73145,3.11279,5.12059,5.12059,0,0,0,3.52783,1.09326,5.41124,5.41124,0,0,0,3.50781-1.46387,9.26041,9.26041,0,0,0,2.22364-3.32031,16.187,16.187,0,0,0,1.05468-4.29931,25.89373,25.89373,0,0,0,.1377-4.33057,17.98319,17.98319,0,0,0-.75879-4.0249,18.47984,18.47984,0,0,0-1.74121-4.05176,10.01465,10.01465,0,0,0-2.66114-3.03369A5.23939,5.23939,0,0,0,858.42822,235.15967Z" transform="translate(0 -24)"/><path class="cls-23" d="M959.0376,265.84277a11.228,11.228,0,0,1-7.65674-2.40381,29.18266,29.18266,0,0,1-6.1958-6.47558,48.97809,48.97809,0,0,1-4.58154-7.91211q-1.87573-4.08691-2.81739-6.80029-.94556,1.73438-2.56006,4.2622-1.61571,2.53053-3.73779,5.33838-2.12329,2.81031-4.56836,5.68067a50.03152,50.03152,0,0,1-5.11767,5.20947,30.86974,30.86974,0,0,1-5.39454,3.8418,12.55023,12.55023,0,0,1-5.32666,1.65478,9.52219,9.52219,0,0,1-6.31494-1.81055,17.77113,17.77113,0,0,1-4.82763-5.42382,42.52912,42.52912,0,0,1-3.51709-7.59864,66.441,66.441,0,0,1-2.38965-8.41845q-.90381-4.2268-1.37793-7.89063-.47827-3.6643-.60889-5.92334a24.01991,24.01991,0,0,1,.09033-4.03369,8.96129,8.96129,0,0,1,1.10108-3.50537,6.6456,6.6456,0,0,1,2.7251-2.55176,12.04254,12.04254,0,0,1,4.96337-1.17236,9.13357,9.13357,0,0,1,5.22852,1.12012,12.04269,12.04269,0,0,1,3.80029,3.51123,22.78865,22.78865,0,0,1,2.64844,5.04785,45.90711,45.90711,0,0,1,1.77637,5.76953,56.39672,56.39672,0,0,1,1.05566,5.72851q.35889,2.792.60791,4.79053.67822-1.80249,1.96143-4.4375,1.28247-2.63452,2.80713-5.61914,1.52124-2.98682,3.37549-5.94726a57.84047,57.84047,0,0,1,3.73876-5.33887,25.78282,25.78282,0,0,1,3.75635-3.9126,6.4723,6.4723,0,0,1,3.69336-1.64355l.13037-.00782a8.35853,8.35853,0,0,1,4.64209,1.1543,22.4135,22.4135,0,0,1,4.51416,3.42725,35.79546,35.79546,0,0,1,4.21,4.91455q1.99146,2.77881,3.73,5.65527,1.73731,2.87769,3.07373,5.60938,1.33741,2.73486,2.23584,4.69482-.0139-2.43237.06934-5.50049a43.52676,43.52676,0,0,1,.61621-6.20508,36.5982,36.5982,0,0,1,1.60059-6.13623,22.36508,22.36508,0,0,1,2.75342-5.40576,13.68919,13.68919,0,0,1,4.27832-3.94385,13.29516,13.29516,0,0,1,6.10546-1.74267q3.646-.21387,5.501,1.3125a5.22744,5.22744,0,0,1,1.99219,3.86914,31.1199,31.1199,0,0,1-.585,6.748,92.24051,92.24051,0,0,1-2.13672,9.231q-1.40772,4.99365-3.39356,10.10205a61.47466,61.47466,0,0,1-4.48632,9.28467,32.91247,32.91247,0,0,1-5.34668,6.90186A9.29841,9.29841,0,0,1,959.0376,265.84277Z" transform="translate(0 -24)"/><path class="cls-23" d="M1043.40234,204.58154a103.03227,103.03227,0,0,1-.00488,12.169,102.80615,102.80615,0,0,0-.00488,12.168q.29,4.93652,1.03027,9.7583.73976,4.82373,1.03125,9.75879.07764,1.3374.05762,3.22607a11.796,11.796,0,0,1-.63281,3.68848,7.2191,7.2191,0,0,1-2.168,3.14746,7.451,7.451,0,0,1-4.54981,1.52637,10.5617,10.5617,0,0,1-6.55761-1.50245,8.0473,8.0473,0,0,1-3.43946-4.03662,19.21053,19.21053,0,0,1-6.86426,5.522,24.70906,24.70906,0,0,1-10.0371,2.68652,18.9908,18.9908,0,0,1-10.2461-1.99951,25.35919,25.35919,0,0,1-7.40137-5.85938,27.16831,27.16831,0,0,1-4.62011-7.44873,22.11633,22.11633,0,0,1-1.77539-6.86133,33.5026,33.5026,0,0,1,.11132-4.79052,28.6635,28.6635,0,0,1,1.04883-5.51563,30.547,30.547,0,0,1,2.22266-5.54394,19.22806,19.22806,0,0,1,3.69531-4.95752,18.82509,18.82509,0,0,1,5.53418-3.68311,21.522,21.522,0,0,1,7.5459-1.70117,23.5778,23.5778,0,0,1,9.0918,1.22949,16.71115,16.71115,0,0,1,6.7666,3.96631l.39258-13.3667q.03514-1.59594.17187-3.74463a14.29985,14.29985,0,0,1,.86914-4.1206,8.01756,8.01756,0,0,1,2.47852-3.41846,8.97625,8.97625,0,0,1,5.26172-1.65137,12.09981,12.09981,0,0,1,5.92968.82666,7.61608,7.61608,0,0,1,3.23633,2.78907,10.06079,10.06079,0,0,1,1.40039,3.81982Q1043.29444,202.74293,1043.40234,204.58154Zm-19.05175,38.37891q-.1128-1.92335-.35059-3.75684a26.85841,26.85841,0,0,1-.2207-3.76269q-.84522-1.04-1.96387-2.27686a14.35166,14.35166,0,0,0-2.68262-2.27685,15.05624,15.05624,0,0,0-3.43164-1.686,10.18437,10.18437,0,0,0-3.95117-.52344,6.91638,6.91638,0,0,0-3.72363,1.14161,5.68874,5.68874,0,0,0-1.9541,2.33935,8.659,8.659,0,0,0-.68165,2.85156,20.53,20.53,0,0,0-.04394,2.603,24.72531,24.72531,0,0,0,.43457,2.95459,19.43832,19.43832,0,0,0,1.21094,3.915,10.93014,10.93014,0,0,0,2.22461,3.39453,4.42039,4.42039,0,0,0,3.60547,1.29834,12.909,12.909,0,0,0,3.35937-.65869,19.231,19.231,0,0,0,3.12207-1.3584,25.775,25.775,0,0,0,2.77246-1.75683q1.31543-.95947,2.31445-1.77344Z" transform="translate(0 -24)"/><path class="cls-23" d="M1108.92871,241.01611q.167,2.84473-2.47363,5.727a28.38638,28.38638,0,0,1-6.749,5.26221,47.57316,47.57316,0,0,1-8.85058,3.96094,34.35612,34.35612,0,0,1-8.78125,1.81592,32.25707,32.25707,0,0,1-12.43945-1.49317,29.272,29.272,0,0,1-9.38282-5.11426,24.10839,24.10839,0,0,1-5.97949-7.24365,19.38722,19.38722,0,0,1-2.36328-7.95947,25.12838,25.12838,0,0,1,1.29883-9.05615,27.21908,27.21908,0,0,1,5.02051-9.106,30.14829,30.14829,0,0,1,8.98437-7.24121,31.36779,31.36779,0,0,1,13.32422-3.4668,36.58251,36.58251,0,0,1,8.52246.46387,25.66942,25.66942,0,0,1,7.19336,2.30615,16.18221,16.18221,0,0,1,5.06445,3.89844,8.8352,8.8352,0,0,1,2.14258,5.32861,11.956,11.956,0,0,1-2.17285,7.51221,23.23859,23.23859,0,0,1-6.55469,6.34375,41.50175,41.50175,0,0,1-9.66113,4.63672A48.07371,48.07371,0,0,1,1073.71,239.979a4.822,4.822,0,0,0,3.26758,3.333,15.36136,15.36136,0,0,0,6.12012.73145,15.77507,15.77507,0,0,0,5.03125-1.13526q2.42285-.98,4.709-2.16455,2.28224-1.18067,4.5127-2.15234a13.37642,13.37642,0,0,1,4.57519-1.1084,10.03292,10.03292,0,0,1,4.752.812A3.23445,3.23445,0,0,1,1108.92871,241.01611ZM1086.626,221.76562a3.73853,3.73853,0,0,0-1.04395-2.20556,3.41532,3.41532,0,0,0-2.93457-1.00147,10.86685,10.86685,0,0,0-4.76269,1.24463,10.52405,10.52405,0,0,0-3.11426,2.6167,11.536,11.536,0,0,0-1.835,3.2544,10.2987,10.2987,0,0,0-.665,3.14453q1.80762-.35889,4.32422-.92627a35.45118,35.45118,0,0,0,4.75293-1.41162,15.08666,15.08666,0,0,0,3.80175-2.02735A3.11224,3.11224,0,0,0,1086.626,221.76562Z" transform="translate(0 -24)"/><path class="cls-23" d="M1139.90234,256.57031a27.75066,27.75066,0,0,1-11.72461-1.57763,27.02527,27.02527,0,0,1-8.6748-5.28223,23.6765,23.6765,0,0,1-5.53809-7.521,23.08959,23.08959,0,0,1-2.1914-8.38867,27.10232,27.10232,0,0,1,1.15527-9.25683,25.6976,25.6976,0,0,1,4.7041-8.91993,26.776,26.776,0,0,1,8.61426-6.88427,31.56544,31.56544,0,0,1,12.88086-3.231,27.83158,27.83158,0,0,1,12.58887,1.82031,24.773,24.773,0,0,1,8.64355,5.87012,23.16927,23.16927,0,0,1,4.917,8.06152,22.82049,22.82049,0,0,1,1.41211,8.47656,32.5192,32.5192,0,0,1-1.624,9.07471,24.96192,24.96192,0,0,1-4.66895,8.415,25.68713,25.68713,0,0,1-8.252,6.35889A31.03806,31.03806,0,0,1,1139.90234,256.57031Zm-.916-37.87842a5.04121,5.04121,0,0,0-3.373,1.54053,11.02426,11.02426,0,0,0-2.2832,3.40723,18.73337,18.73337,0,0,0-1.25977,4.14355,16.01138,16.01138,0,0,0-.30273,3.75293,18.0481,18.0481,0,0,0,.8418,4.31446,18.90676,18.90676,0,0,0,1.88085,4.21093,11.16191,11.16191,0,0,0,2.73145,3.1128,5.11936,5.11936,0,0,0,3.52734,1.09326,5.41036,5.41036,0,0,0,3.50782-1.46436,9.26048,9.26048,0,0,0,2.22363-3.31982,16.1913,16.1913,0,0,0,1.05469-4.29932,25.9449,25.9449,0,0,0,.13769-4.33056,17.98281,17.98281,0,0,0-.75879-4.02491,18.50324,18.50324,0,0,0-1.74121-4.05175,10.00229,10.00229,0,0,0-2.66113-3.0337A5.23818,5.23818,0,0,0,1138.98633,218.69189Z" transform="translate(0 -24)"/><path class="cls-2" d="M807,872c1.65607,5.02228,6.64093,11.35291,22,16l26,6c7.39056,4.15808,15.09039,8.80536,23,14,10.69366,7.02307,20.34857,14.11267,29,21l18-3q12.5-5.5,25-11,11.5,2,23,4l9-18q10.5-5.5,21-11c.75378-8.82928,3.303-19.49353,11-28,6.1441-6.79028,13.49353-9.91254,13-11-.41077-.905-5.9903.17969-27,8q2-18.5,4-37-16.87592,35.88272-25,34-5.52081-1.27946-7-20c-.918,1.3858-11.72186,17.39166-20,15-2.24609-.64893-4.13715-2.60345-10-16-3.617-8.26477-6.26324-15.21216-8-20l-15,33q-8-15-16-30-7,12-14,24-9.5-11.5-19-23c3.26471,9.04395,1.27649,18.80292-5,25-.56384.5567-8.27893,7.93872-18,6-9.66217-1.92694-17.372-12.27734-17-25q-2,13.5-4,27l-26-29c4.17566,5.96552,8.99841,14.96362,9,26C809.00153,859.55072,804.59583,864.70886,807,872Z" transform="translate(0 -24)"/><path class="cls-24" d="M1460.57653,891.64665a9.56979,9.56979,0,0,0,12.35966,1.545q1.54487-47.12116,3.08992-94.24241c25.09613-2.331,43.83308-12.421,44.80377-23.17437,1.18776-13.15675-24.21276-27.37726-46.34873-27.80923-17.85075-.34833-42.336,8.09914-43.25881,21.6294-.7523,11.03017,14.2075,24.66935,37.079,29.3542l-.007.08241Q1464.37378,845.33691,1460.57653,891.64665Z" transform="translate(0 -24)"/><path class="cls-25" d="M1490.42522,743.547c-.01547.20076-.0464.40161-.07733.587l-.89619,10.7684-18.47763-1.56042.89619-10.76831h.07714a3.71772,3.71772,0,0,1,0-.58709,5.40084,5.40084,0,0,1,5.39188-4.94388c.139,0,.29364,0,.4481.01546l7.69386.64886A5.40563,5.40563,0,0,1,1490.42522,743.547Z" transform="translate(0 -24)"/><rect class="cls-26" x="1474.48292" y="737.11657" width="1.54496" height="17.02894" transform="translate(84.30105 -171.44799) rotate(5.8898)"/><rect class="cls-26" x="1485.99449" y="737.03171" width="1.54496" height="18.01815" transform="translate(84.40387 -172.62709) rotate(5.8898)"/><path class="cls-26" d="M1478.4945,741.78574h4.333a.92336.92336,0,0,1,.92336.92336v5.878a.92344.92344,0,0,1-.92344.92344h-4.333a.92342.92342,0,0,1-.92342-.92342v-5.878a.92344.92344,0,0,1,.92344-.92344Z" transform="translate(84.32898 -171.99889) rotate(5.88965)"/><path d="M1479.539,748.29677q.85943-.19944,1.71865-.39878-.35673-1.22166-.71364-2.44314a1.25161,1.25161,0,0,0,.90789-1.08026.62831.62831,0,0,0-.81095-.68148,1.25121,1.25121,0,0,0-.90789,1.08026.68768.68768,0,0,0,.219.563.70426.70426,0,0,0,.592.11843Q1480.04164,746.87582,1479.539,748.29677Z" transform="translate(0 -24)"/><path class="cls-27" d="M1406.70191,771.28165c.99563.44786,2.02084.90956,3.01649,1.35754,1.441-1.68373,2.86112-3.34233,4.30214-5.02594q-25.18234,2.58258-50.38993,5.1708l1.29812,5.80576c1.58813-1.02569,3.1467-2.06511,4.73485-3.09068q6.037,8.7999,12.07842,17.61941c-8.89412.62713-17.80911,1.27939-26.70321,1.90663l.86542,3.87051c8.89409-.62724,17.80909-1.2795,26.70321-1.90663q-11.57075,45.25926-23.16672,90.52415c1.87371.25153,3.72654.52818,5.60027.77983q10.50563-44.0154,21.01565-88.01118,13.3974,41.71867,26.79051,83.4181c1.58813-1.02569,3.14669-2.06511,4.73485-3.09069q-13.39745-41.71884-26.79051-83.41809,12.06186-.65484,24.11943-1.32892c.56292-1.48739,1.15542-2.96094,1.71836-4.44822q-12.0619.65464-24.11943,1.32891Q1399.59325,782.01512,1406.70191,771.28165Zm-19.79235,20.68147q-6.03705-8.80008-12.07842-17.61942c8.8941-.62724,17.80909-1.2795,26.70321-1.90662C1396.66927,778.95029,1391.77462,785.44978,1386.90956,791.96312Z" transform="translate(0 -24)"/><path class="cls-21" d="M1352.36242,816.84254q6.06158,35.48484,12.1233,70.96953l69.26148-8.003-4.87117-74.15718Q1390.61931,811.24713,1352.36242,816.84254Z" transform="translate(0 -24)"/><path class="cls-28" d="M1418.34558,820.9276q-2.52823,12.31823-5.05667,24.63648-3.79577-3.92789-7.59172-7.85573a47.24835,47.24835,0,0,1-17.04474,2.799c-11.31186-.27676-24.51012-4.83912-24.46578-9.17593.01291-1.26324,1.15417-2.96051,5.935-4.94447-1.38611-1.75372-3.82749-5.40759-2.72862-8.58539,1.63676-4.73354,10.35363-6.16944,14.0375-6.77621.34085-.05615.77051-.12469,1.35707-.19452a26.8339,26.8339,0,0,1,17.12684,3.601,26.52281,26.52281,0,0,1,9.10987,9.42687Q1413.68516,822.39315,1418.34558,820.9276Z" transform="translate(0 -24)"/><circle class="cls-29" cx="1374.47516" cy="790.71664" r="6.17983"/><circle class="cls-30" cx="1373.65398" cy="790.29155" r="3.7378"/><path class="cls-31" d="M1489.27154,821.75671q-5.85841,35.9815-11.717,71.96287l-66.94015-8.115,4.70791-75.19514Q1452.29684,816.083,1489.27154,821.75671Z" transform="translate(0 -24)"/><polygon class="cls-32" points="1415.549 803.825 1424.643 803.825 1429.19 790.554 1424.643 777.282 1415.549 777.282 1411.002 790.554 1415.549 803.825"/><polygon class="cls-32" points="1433.596 804.754 1442.471 806.834 1449.667 794.922 1447.987 780.929 1439.111 778.849 1431.916 790.762 1433.596 804.754"/><polygon class="cls-32" points="1475.405 812.587 1484.28 814.667 1491.476 802.755 1489.796 788.762 1480.92 786.682 1473.725 798.594 1475.405 812.587"/><polygon class="cls-32" points="1457.976 811.094 1467.052 810.477 1470.771 796.924 1465.415 783.989 1456.34 784.606 1452.621 798.159 1457.976 811.094"/><path class="cls-33" d="M1416.49184,823.13235q-.838-6.46362-1.67623-12.92717l3.63545-1.02142,3.82048,10.09168q-.09264-5.55652-.185-11.11311l3.41775.52841q-.12507,7.10643-.25034,14.21281l-3.41775-.52842q-2.01909-4.271-4.03818-8.54184,1.0557,4.91371,2.11161,9.82748Z" transform="translate(0 -24)"/><path class="cls-33" d="M1457.28483,815.75475l.264,14.09652,2.98578-.06156-.20535-10.964q.77588,1.55094,1.55156,3.10178,1.04661-1.79235,2.093-3.58461.01166,5.5574.02313,11.1148,1.70353-.29935,3.40724-.59882l-.51654-14.20492q-1.70352.29935-3.40724.59881-.82905,1.7711-1.65829,3.54218-.77587-1.55094-1.55156-3.10178Z" transform="translate(0 -24)"/><path class="cls-33" d="M1443.46272,808.18812c-3.17245-.95832-6.85005,2.31278-8.21836,7.29877s.08828,9.808,3.26073,10.76633,6.85-2.31278,8.21836-7.29877S1446.63516,809.14644,1443.46272,808.18812Zm-3.49636,10.68144c-1.14788-.34674-1.64421-2.24431-1.09558-4.24348.54866-1.99925,1.93075-3.3293,3.07863-2.98256s1.64424,2.24425,1.09559,4.24349C1442.49636,817.88618,1441.11425,819.21631,1439.96636,818.86956Z" transform="translate(0 -24)"/><path class="cls-33" d="M1488.76559,818.78725q-.74668,1.56663-1.49318,3.13317c-4.62243.40321-5.92422,1.00225-5.97271,1.56658-.10353,1.20716,5.56005,1.87007,5.97271,4.69974.22347,1.532-1.21284,2.87175-1.49318,3.13317-2.0183,1.8825-5.5553,1.84989-8.95906,0v-3.13317a6.10274,6.10274,0,0,0,4.47953,1.56659c1.26315-.13195,2.972-.79085,2.98636-1.56659.01786-.95463-2.5531-.85376-4.47954-3.13316-.3095-.36621-2.05257-2.42885-1.49317-4.69975a5.04012,5.04012,0,0,1,2.98635-3.13316C1484.84217,815.66843,1488.49163,818.56313,1488.76559,818.78725Z" transform="translate(0 -24)"/><path class="cls-31" d="M1484.28955,900.61976l-14.67238-2.4788q11.58371-46.23126,23.16643-92.46214l7.33619,1.2394Z" transform="translate(0 -24)"/><path class="cls-34" d="M1520.82988,862.98575c-6.02369,10.17211-15.99938,15.42953-24.8868,13.31844-7.99034-1.898-12.17751-9.05727-13.23327-10.99712-7.8963,4.175-16.72627,2.618-22.00857-3.7182-5.937-7.12224-4.64528-16.98738-4.458-18.276a40.76762,40.76762,0,0,0,16.11149-6.03953,46.53566,46.53566,0,0,0,8.7753-7.27892l-14.67238-2.4788q18.99016-23.07609,37.97944-46.15233,3.01841,26.79429,6.0377,53.58873l-14.67238-2.4788a64.9623,64.9623,0,0,0,11.79416,19.51544A56.06416,56.06416,0,0,0,1520.82988,862.98575Z" transform="translate(0 -24)"/><rect class="cls-35" x="1363.81808" y="852.7931" width="126.7402" height="38.99698" rx="2.06452" transform="translate(-53.44128 70.15592) rotate(-3.70921)"/><rect class="cls-24" x="1367.67929" y="860.58973" width="10.62598" height="13.9783" rx="2.06452" transform="matrix(0.99791, -0.06469, 0.06469, 0.99791, -53.24993, 66.63997)"/><rect class="cls-24" x="1383.21137" y="859.11893" width="10.62598" height="13.9783" rx="2.06452" transform="matrix(0.99791, -0.06469, 0.06469, 0.99791, -53.12224, 67.6417)"/><rect class="cls-24" x="1398.69525" y="857.96755" width="10.62598" height="13.9783" rx="2.06452" transform="translate(-53.01532 68.64098) rotate(-3.70921)"/><rect class="cls-24" x="1414.17913" y="856.81617" width="10.62598" height="13.9783" rx="2.06452" transform="matrix(0.99791, -0.06469, 0.06469, 0.99791, -52.9084, 69.64026)"/><rect class="cls-24" x="1429.66301" y="855.66479" width="10.62598" height="13.9783" rx="2.06452" transform="translate(-52.80148 70.63954) rotate(-3.70921)"/><rect class="cls-24" x="1445.14689" y="854.51341" width="10.62598" height="13.9783" rx="2.06452" transform="matrix(0.99791, -0.06469, 0.06469, 0.99791, -52.69456, 71.63883)"/><rect class="cls-24" x="1459.0966" y="853.32462" width="10.55723" height="14.29394" rx="2.06452" transform="translate(-52.59871 72.53689) rotate(-3.70921)"/><rect class="cls-24" x="1474.71219" y="852.01005" width="11.07528" height="33.61974" rx="2.06452" transform="translate(-53.10554 73.58135) rotate(-3.70921)"/><circle cx="1389.0465" cy="870.56278" r="10.8147"/><circle cx="1457.19916" cy="864.57004" r="10.8147"/><path class="cls-31" d="M1358.948,895.38452l11.82125-1.49768q-7.28826-33.82292-14.57576-67.64553l-5.91062.74884Z" transform="translate(0 -24)"/><path class="cls-34" d="M1331.36682,867.29152c4.37841,7.51371,12.12107,11.53885,19.30735,10.18883,6.46092-1.21379,10.10817-6.328,11.03351-7.71535,6.12816,3.19593,13.24506,2.24722,17.73187-2.24652,5.043-5.05119,4.43-12.24418,4.33515-13.18418a33.66679,33.66679,0,0,1-12.609-4.72,34.91685,34.91685,0,0,1-6.69836-5.46883l11.82125-1.49768q-14.18483-17.15529-28.36894-34.31066-3.54705,19.40179-7.09481,38.80369l11.82125-1.49767a48.68575,48.68575,0,0,1-10.24577,13.933A46.27481,46.27481,0,0,1,1331.36682,867.29152Z" transform="translate(0 -24)"/></svg>