<svg xmlns="http://www.w3.org/2000/svg" xmlns:xlink="http://www.w3.org/1999/xlink" width="185.99999" height="186" viewBox="0 0 185.99999 186"><defs><style>.cls-1{fill:none;}.cls-2{clip-path:url(#clip-path);}.cls-3{clip-path:url(#clip-path-2);}.cls-4{fill:url(#linear-gradient);}</style><clipPath id="clip-path" transform="translate(0.0001 0.00011)"><rect class="cls-1" width="186" height="186"/></clipPath><clipPath id="clip-path-2" transform="translate(0.0001 0.00011)"><path class="cls-1" d="M2.5,93A90.5,90.5,0,1,0,93,2.5,90.60233,90.60233,0,0,0,2.5,93"/></clipPath><linearGradient id="linear-gradient" x1="-1211.27074" y1="-340.89502" x2="-1210.27074" y2="-340.89502" gradientTransform="matrix(181.00049, 0, 0, -181.00049, 219243.0947, -61609.16502)" gradientUnits="userSpaceOnUse"><stop offset="0" stop-color="#f6b7d9"/><stop offset="0.00538" stop-color="#f6b7d9"/><stop offset="0.28292" stop-color="#e6cd9f"/><stop offset="0.57297" stop-color="#e8caa6"/><stop offset="0.92756" stop-color="#f2bdca"/><stop offset="1" stop-color="#f2bdca"/></linearGradient></defs><g id="Layer_2" data-name="Layer 2"><g id="Layer_1-2" data-name="Layer 1"><g id="fullscreen-on"><g class="cls-2"><g class="cls-3"><rect class="cls-4" x="2.5001" y="2.50012" width="180.99998" height="180.99999"/></g><g class="cls-2"><path d="M92.9999,4.99989a88,88,0,1,1-88,88,88.09949,88.09949,0,0,1,88-88m0-5a93,93,0,1,0,93,93,93.00062,93.00062,0,0,0-93-93" transform="translate(0.0001 0.00011)"/><polygon points="81.709 96.513 89.487 104.291 58.284 135.495 66.345 143.556 34.687 151.314 42.444 119.656 50.505 127.717 81.709 96.513"/><polygon points="96.513 81.709 104.291 89.487 135.495 58.283 143.556 66.344 151.314 34.687 119.656 42.444 127.717 50.505 96.513 81.709"/><polygon points="89.487 81.709 81.709 89.487 50.505 58.283 42.444 66.344 34.686 34.687 66.344 42.444 58.283 50.505 89.487 81.709"/><polygon points="104.291 96.513 96.513 104.291 127.717 135.495 119.656 143.556 151.314 151.314 143.556 119.656 135.495 127.717 104.291 96.513"/></g></g></g></g></g></svg>