<svg xmlns="http://www.w3.org/2000/svg" xmlns:xlink="http://www.w3.org/1999/xlink" width="186" height="186" viewBox="0 0 186 186"><defs><style>.cls-1{fill:none;}.cls-2{clip-path:url(#clip-path);}.cls-3{clip-path:url(#clip-path-2);}.cls-4{fill:url(#linear-gradient);}</style><clipPath id="clip-path"><rect class="cls-1" width="186" height="186"/></clipPath><clipPath id="clip-path-2"><path class="cls-1" d="M2.5,93A90.5,90.5,0,1,0,93,2.5,90.60169,90.60169,0,0,0,2.5,93"/></clipPath><linearGradient id="linear-gradient" x1="-1433.03867" y1="-334.86188" x2="-1432.03867" y2="-334.86188" gradientTransform="matrix(181, 0, 0, -181, 259382.5, -60517)" gradientUnits="userSpaceOnUse"><stop offset="0" stop-color="#f6b7d9"/><stop offset="0.00538" stop-color="#f6b7d9"/><stop offset="0.28292" stop-color="#e6cd9f"/><stop offset="0.57297" stop-color="#e8caa6"/><stop offset="0.92756" stop-color="#f2bdca"/><stop offset="1" stop-color="#f2bdca"/></linearGradient></defs><g id="Layer_2" data-name="Layer 2"><g id="Layer_1-2" data-name="Layer 1"><g id="fullscreen-off"><g class="cls-2"><g class="cls-3"><rect class="cls-4" x="2.5" y="2.5" width="181" height="181"/></g><g class="cls-2"><path d="M93,5A88,88,0,1,1,5,93,88.10015,88.10015,0,0,1,93,5m0-5a93,93,0,1,0,93,93A93.00062,93.00062,0,0,0,93,0"/><polygon points="42.465 151.313 34.687 143.535 65.891 112.332 57.829 104.271 89.487 96.513 81.73 128.171 73.669 120.11 42.465 151.313"/><polygon points="151.314 42.465 143.536 34.687 112.332 65.891 104.271 57.83 96.513 89.487 128.171 81.73 120.11 73.669 151.314 42.465"/><polygon points="34.687 42.465 42.465 34.687 73.668 65.891 81.729 57.83 89.487 89.487 57.829 81.73 65.89 73.669 34.687 42.465"/><polygon points="143.535 151.313 151.313 143.535 120.109 112.332 128.171 104.271 96.513 96.513 104.27 128.171 112.331 120.11 143.535 151.313"/></g></g></g></g></g></svg>