<svg xmlns="http://www.w3.org/2000/svg" xmlns:xlink="http://www.w3.org/1999/xlink" width="186" height="186" viewBox="0 0 186 186"><defs><style>.cls-1{fill:url(#linear-gradient);}</style><linearGradient id="linear-gradient" x1="2.5" y1="92.99976" x2="183.5" y2="92.99976" gradientUnits="userSpaceOnUse"><stop offset="0.00538" stop-color="#f6b7d9"/><stop offset="0.28292" stop-color="#e6cd9f"/><stop offset="0.57297" stop-color="#e8caa6"/><stop offset="0.92756" stop-color="#f2bdca"/></linearGradient></defs><g id="Layer_2" data-name="Layer 2"><g id="Layer_1-2" data-name="Layer 1"><circle class="cls-1" cx="93" cy="92.99976" r="90.5"/><path d="M93,5A88,88,0,1,1,5,93,88.09965,88.09965,0,0,1,93,5m0-5a93,93,0,1,0,93,93A93,93,0,0,0,93,0Z"/><polygon points="107.5 155.94 107.5 116.06 77.5 116.06 77.5 155.94 56.5 155.94 56.5 81.06 42.674 81.06 66.562 57.334 93 31.084 119.439 57.335 143.326 81.06 129.5 81.06 129.5 155.94 107.5 155.94"/><path d="M93,34.60608l24.67645,24.50146L137.261,78.56006H127v74.88H110v-39.88H75v39.88H59v-74.88H48.739L68.32294,59.10815,93,34.60608m0-7.046-28.2,28-28.19,28H54v74.88H80v-39.88h25v39.88h27v-74.88h17.39l-28.19-28-28.2-28Z"/></g></g></svg>