<svg xmlns="http://www.w3.org/2000/svg" xmlns:xlink="http://www.w3.org/1999/xlink" width="186" height="186" viewBox="0 0 186 186"><defs><style>.cls-1{fill:url(#linear-gradient);}</style><linearGradient id="linear-gradient" x1="2.5" y1="93" x2="183.5" y2="93" gradientUnits="userSpaceOnUse"><stop offset="0.00538" stop-color="#f6b7d9"/><stop offset="0.28292" stop-color="#e6cd9f"/><stop offset="0.57297" stop-color="#e8caa6"/><stop offset="0.92756" stop-color="#f2bdca"/></linearGradient></defs><g id="Layer_2" data-name="Layer 2"><g id="Layer_1-2" data-name="Layer 1"><circle class="cls-1" cx="93" cy="93" r="90.5"/><path d="M93,5A88,88,0,1,1,5,93,88.09965,88.09965,0,0,1,93,5m0-5a93,93,0,1,0,93,93A93,93,0,0,0,93,0Z"/><polygon points="53.976 131.05 58.82 126.205 93 160.385 160.386 93 93 25.615 48.672 69.942 25.604 93 33.45 100.845 42.005 92.29 50.125 122.595 19.817 114.475 28.604 105.679 15.926 93 93 15.925 170.074 93 93 170.075 53.976 131.05"/><path d="M93,19.46106l73.53894,73.539L93,166.53894,57.51111,131.05,58.82,129.74115l30.6445,30.64441L93,163.92114l3.53552-3.53558,63.85-63.85,3.53552-3.53552-3.53552-3.53552-63.85-63.85L93,22.079,89.46448,25.6145,46.90536,68.17365l-21.30007,21.29-3.53724,3.53559,3.53644,3.53637,4.31009,4.31,3.53555,3.53546,3.5355-3.53552,3.7254-3.72546,2.93933,10.97412,2.93857,10.96564-10.97476-2.93946-10.96988-2.93969,3.96295-3.96692,3.532-3.53547-3.53375-3.53381-9.14441-9.14447,26.1344-26.13452L93,19.46106m0-7.071L42.05994,63.33,12.39,93.00006l12.67994,12.68L14.99,115.77l19.33,5.18L53.66,126.13007l-5.18005-19.33-5.18-19.34-9.84986,9.85-4.31006-4.31L50.44006,71.71,93,29.15l63.85,63.85L93,156.85,58.82,122.67l-8.37989,8.38L93,173.61l80.61-80.60993L93,12.39Z"/></g></g></svg>