<svg xmlns="http://www.w3.org/2000/svg" xmlns:xlink="http://www.w3.org/1999/xlink" width="186" height="186" viewBox="0 0 186 186"><defs><style>.cls-1{fill:none;}.cls-2{clip-path:url(#clip-path);}.cls-3{clip-path:url(#clip-path-2);}.cls-4{fill:url(#linear-gradient);}</style><clipPath id="clip-path" transform="translate(0 0.00011)"><rect class="cls-1" width="186" height="186"/></clipPath><clipPath id="clip-path-2" transform="translate(0 0.00011)"><path class="cls-1" d="M2.5,93A90.5,90.5,0,1,0,93,2.5,90.60169,90.60169,0,0,0,2.5,93"/></clipPath><linearGradient id="linear-gradient" x1="-1475.8011" y1="-129.73481" x2="-1474.8011" y2="-129.73481" gradientTransform="matrix(181, 0, 0, -181, 267122.5, -23388.99995)" gradientUnits="userSpaceOnUse"><stop offset="0" stop-color="#f6b7d9"/><stop offset="0.00538" stop-color="#f6b7d9"/><stop offset="0.28292" stop-color="#e6cd9f"/><stop offset="0.57297" stop-color="#e8caa6"/><stop offset="0.92756" stop-color="#f2bdca"/><stop offset="1" stop-color="#f2bdca"/></linearGradient></defs><g id="Layer_2" data-name="Layer 2"><g id="Layer_1-2" data-name="Layer 1"><g id="sound-off"><g class="cls-2"><g class="cls-3"><rect class="cls-4" x="2.5" y="2.50012" width="181" height="180.99999"/></g><g class="cls-2"><path d="M93,4.99989a88,88,0,1,1-88,88,88.10015,88.10015,0,0,1,88-88m0-5a93,93,0,1,0,93,93,93.00062,93.00062,0,0,0-93-93" transform="translate(0 0.00011)"/><polygon points="95.64 23.595 95.64 162.406 35.53 127.705 35.53 114.505 19.64 114.505 19.64 71.505 35.53 71.505 35.53 58.305 95.64 23.595"/><polygon points="149.04 92.523 166.36 109.843 155.04 121.154 137.72 103.834 120.4 121.154 109.08 109.843 126.41 92.523 109.08 75.194 120.4 63.883 137.72 81.204 155.04 63.883 166.36 75.194 149.04 92.523"/></g></g></g></g></g></svg>