<svg xmlns="http://www.w3.org/2000/svg" xmlns:xlink="http://www.w3.org/1999/xlink" width="185.99999" height="186" viewBox="0 0 185.99999 186"><defs><style>.cls-1{fill:none;}.cls-2{clip-path:url(#clip-path);}.cls-3{clip-path:url(#clip-path-2);}.cls-4{fill:url(#linear-gradient);}</style><clipPath id="clip-path" transform="translate(0.0001 -0.00011)"><rect class="cls-1" width="186" height="186"/></clipPath><clipPath id="clip-path-2" transform="translate(0.0001 -0.00011)"><path class="cls-1" d="M2.5,93A90.5,90.5,0,1,0,93,2.5,90.60169,90.60169,0,0,0,2.5,93"/></clipPath><linearGradient id="linear-gradient" x1="-1153.59116" y1="-129.73481" x2="-1152.59116" y2="-129.73481" gradientTransform="matrix(181, 0, 0, -181, 208802.49998, -23388.99998)" gradientUnits="userSpaceOnUse"><stop offset="0" stop-color="#f6b7d9"/><stop offset="0.00538" stop-color="#f6b7d9"/><stop offset="0.28292" stop-color="#e6cd9f"/><stop offset="0.57297" stop-color="#e8caa6"/><stop offset="0.92756" stop-color="#f2bdca"/><stop offset="1" stop-color="#f2bdca"/></linearGradient></defs><g id="Layer_2" data-name="Layer 2"><g id="Layer_1-2" data-name="Layer 1"><g id="sound-on"><g class="cls-2"><g class="cls-3"><rect class="cls-4" x="2.5001" y="2.49991" width="181" height="180.99999"/></g><g class="cls-2"><path d="M92.9999,5.00011a88,88,0,1,1-88,88,88.10013,88.10013,0,0,1,88-88m0-5a93,93,0,1,0,93,93,93.00062,93.00062,0,0,0-93-93" transform="translate(0.0001 -0.00011)"/><polygon points="95.64 23.595 95.64 162.406 35.53 127.705 35.53 114.505 19.64 114.505 19.64 71.505 35.53 71.505 35.53 58.305 95.64 23.595"/><rect x="99.8711" y="77.99989" width="16" height="30"/><rect x="120.8711" y="66.49989" width="16" height="53"/><rect x="142.8711" y="56.49989" width="16" height="73"/></g></g></g></g></g></svg>