<svg xmlns="http://www.w3.org/2000/svg" width="455.19243" height="162.49646" viewBox="0 0 455.19243 162.49646"><defs><style>.cls-1{fill:#42210b;}.cls-2{fill:#fff;}</style></defs><g id="Layer_2" data-name="Layer 2"><g id="Layer_1-2" data-name="Layer 1"><path class="cls-1" d="M455.19243,136.57106Q454.8974,68.28554,454.60227,0L55.84775,53.64176Q27.92386,78.17068,0,102.69969q17.08765,29.8984,34.17542,59.79677Q244.68394,149.53379,455.19243,136.57106Z"/><path class="cls-2" d="M139.97186,67.37882a3.73479,3.73479,0,0,1-1.439,3.17578A15.25508,15.25508,0,0,1,134.6452,73.04q-2.05371,1.02539-4.21485,2.17089a30.155,30.155,0,0,0-3.94677,2.49122,12.40764,12.40764,0,0,0-2.8379,2.88476,4.9866,4.9866,0,0,0-.8872,3.35352,4.1387,4.1387,0,0,0,1.44482,2.75879,19.4757,19.4757,0,0,0,3.12842,2.26562q1.82665,1.08839,4.01855,2.21973a25.41292,25.41292,0,0,1,4.05323,2.59863,16.3708,16.3708,0,0,1,3.23193,3.39551,8.9961,8.9961,0,0,1,.76318,9.02344,24.48231,24.48231,0,0,1-2.93359,5.0996,37.25958,37.25958,0,0,1-4.60059,5.13868,45.01187,45.01187,0,0,1-5.78125,4.59765,37.12731,37.12731,0,0,1-6.53955,3.48828,23.33788,23.33788,0,0,1-6.76025,1.71973,15.73038,15.73038,0,0,1-6.62256-.68848q-2.95605-1.02685-3.18994-3.58984a4.7619,4.7619,0,0,1,1.00879-3.32617,19.17816,19.17816,0,0,1,2.93506-3.12207,43.24222,43.24222,0,0,1,3.958-3.02442q2.18921-1.49413,3.96533-2.94824a18.76154,18.76154,0,0,0,2.94873-2.97168,4.34075,4.34075,0,0,0,1.02978-3.09863q-.2-2.18848-2.83447-4.26953-2.636-2.08155-5.81543-4.26367a60.56427,60.56427,0,0,1-5.83935-4.52832,7.65416,7.65416,0,0,1-2.89942-4.98536,11.50689,11.50689,0,0,1,2.09717-7.07812,31.03744,31.03744,0,0,1,6.37939-7.20313,42.13727,42.13727,0,0,1,9.1294-5.81738A30.42229,30.42229,0,0,1,129.382,62.4091a14.90558,14.90558,0,0,1,7.2417.93847Q139.72259,64.663,139.97186,67.37882Z"/><path class="cls-2" d="M200.74236,79.871q-.446,5.5957-.89453,11.11621a102.17459,102.17459,0,0,0-.30957,10.98633,103.00494,103.00494,0,0,0,.60742,11.89258q.62476,5.57226,1.19874,11.83691.13768,1.50879.27783,3.70313a12.09308,12.09308,0,0,1-.50147,4.30761,8.40517,8.40517,0,0,1-2.34424,3.71485,8.88273,8.88273,0,0,1-5.36914,1.93457,6.23035,6.23035,0,0,1-3.07812-.40332,7.15843,7.15843,0,0,1-2.291-1.58008,9.25655,9.25655,0,0,1-1.64306-2.32324,22.34969,22.34969,0,0,1-1.14112-2.71094,33.067,33.067,0,0,1-1.18457-5.79q-.32519-2.89893-.44775-4.25879l-.53711-5.88672-.38525-4.22558a18.45606,18.45606,0,0,1-6.72413,4.07617,32.8296,32.8296,0,0,1-8.46875,1.95117,23.60417,23.60417,0,0,1-9.31445-.78613,19.30343,19.30343,0,0,1-6.70654-3.57324,16.52072,16.52072,0,0,1-4.17236-5.21387,16.1249,16.1249,0,0,1-1.71924-5.7793l-.04151-.45215A22.38953,22.38953,0,0,1,146.6701,93.745a27.87212,27.87212,0,0,1,4.84375-9.0039,30.36907,30.36907,0,0,1,8.749-7.37989,30.91655,30.91655,0,0,1,12.832-3.79492,24.74676,24.74676,0,0,1,7.48877.38184,8.0853,8.0853,0,0,1,5.10694,3.03516,7.22515,7.22515,0,0,1,2.63965-3.09473,10.249,10.249,0,0,1,4.92724-1.55274q3.90308-.35595,5.64746,1.1211a5.03535,5.03535,0,0,1,1.92383,3.43847,9.04186,9.04186,0,0,1,.01953,1.52051Q200.79047,79.10734,200.74236,79.871Zm-27.03857,4.293a9.86963,9.86963,0,0,0-4.9585,1.86035,17.1585,17.1585,0,0,0-3.83007,3.77441,16.54825,16.54825,0,0,0-2.39063,4.51661,10.113,10.113,0,0,0-.64014,4.09179,9.547,9.547,0,0,0,.502,2.23633,8.34833,8.34833,0,0,0,1.15625,2.21582,5.40036,5.40036,0,0,0,1.939,1.64942,5.33456,5.33456,0,0,0,2.96338.45214,16.02567,16.02567,0,0,0,3.563-.81836,30.28653,30.28653,0,0,0,3.96338-1.65527,20.79591,20.79591,0,0,0,3.38672-2.09765,7.109,7.109,0,0,0,1.95654-2.08008,4.81677,4.81677,0,0,0,.44678-1.64063q.13916-1.07518.21093-2.26269c.04737-.79.07471-1.56836.08594-2.3291.0083-.76172-.00342-1.34375-.04-1.7461a4.41092,4.41092,0,0,0-.84033-2.01562,10.79685,10.79685,0,0,0-1.9209-2.1084,9.30977,9.30977,0,0,0-2.64941-1.585A6.27751,6.27751,0,0,0,173.70379,84.164Z"/><path class="cls-2" d="M259.45672,88.13761a27.02256,27.02256,0,0,1-.55078,8.34473,18.66751,18.66751,0,0,1-3.7124,7.68164,22.13084,22.13084,0,0,1-7.74854,5.91992,42.95349,42.95349,0,0,1-25.48486,2.36231,21.5429,21.5429,0,0,1-8.5669-4.3545,18.14765,18.14765,0,0,1-4.91162-6.78222,27.4319,27.4319,0,0,1-1.98486-8.03711,25.683,25.683,0,0,1,.83594-9.13184,25.97074,25.97074,0,0,1,1.0542-3.48144,22.732,22.732,0,0,1,2.21679-4.46387,18.0013,18.0013,0,0,1,3.33985-3.91992,7.59359,7.59359,0,0,1,4.41552-1.92481,7.49438,7.49438,0,0,1,3.86084.48633,6.71,6.71,0,0,1,2.43653,1.87012,6.83713,6.83713,0,0,1,1.30566,2.54394,15.44011,15.44011,0,0,1,.4668,2.50586,14.05209,14.05209,0,0,1-.104,3.4336q-.26441,1.70069-.58447,3.40234-.26733,2.30713-.47412,4.60938a25.14721,25.14721,0,0,0-.00049,4.56542,20.13186,20.13186,0,0,0,.40772,2.5127,7.45739,7.45739,0,0,0,1.13134,2.59766,6.14726,6.14726,0,0,0,2.207,1.96777,6.60289,6.60289,0,0,0,3.74511.5332,9.86,9.86,0,0,0,4.813-1.50488,7.07964,7.07964,0,0,0,2.479-2.88867,9.43578,9.43578,0,0,0,.814-3.499,26.04558,26.04558,0,0,0-.06641-3.34277,30.27357,30.27357,0,0,0-1.30517-6.46289q-1.002-3.14062-1.89649-6.40918a3.68546,3.68546,0,0,1-.21435-1.0459,4.85247,4.85247,0,0,1,.38476-2.31738,6.84574,6.84574,0,0,1,1.47022-2.18945,8.53484,8.53484,0,0,1,2.46777-1.708,9.9055,9.9055,0,0,1,3.37891-.87891,9.04754,9.04754,0,0,1,4.71924.74805,11.09551,11.09551,0,0,1,3.646,2.71094,17.92868,17.92868,0,0,1,2.626,3.94629,35.82372,35.82372,0,0,1,1.832,4.39941,29.61258,29.61258,0,0,1,1.0918,4.123Q259.35394,87.00626,259.45672,88.13761Z"/><path class="cls-2" d="M317.93768,93.83781q.123,1.35791.1455,3.56347a14.70033,14.70033,0,0,1-.61621,4.35645,9.10771,9.10771,0,0,1-2.27539,3.82129,7.47372,7.47372,0,0,1-4.83007,1.96289q-4.377.39843-6.90625-1.19629a5.20636,5.20636,0,0,1-2.66114-4.32324,35.26493,35.26493,0,0,1-8.27148,4.10254,40.04938,40.04938,0,0,1-9.64844,2.09863,19.97165,19.97165,0,0,1-6.60156-.46484,21.69092,21.69092,0,0,1-5.6875-2.21973,14.8537,14.8537,0,0,1-4.126-3.39063,7.29824,7.29824,0,0,1-1.79492-3.98437q-.3296-3.62256,2.91113-6.65723a32.81289,32.81289,0,0,1,8.15137-5.42383,67.67588,67.67588,0,0,1,10.54394-4.043,94.984,94.984,0,0,1,10.09278-2.44336,3.47669,3.47669,0,0,1-.00195-.6836,3.662,3.662,0,0,0-.00293-.68554,4.452,4.452,0,0,0-2.3545-3.58985,9.72055,9.72055,0,0,0-5.80859-.916,17.91122,17.91122,0,0,0-5.02734,1.10449,41.88814,41.88814,0,0,0-3.89063,1.80176q-1.8208.96533-3.6543,1.77832a13.26269,13.26269,0,0,1-4.19921,1.03027,8.77285,8.77285,0,0,1-4.53223-.65137,3.12149,3.12149,0,0,1-2.08106-2.55078,5.99677,5.99677,0,0,1,1.89356-4.7373,19.83587,19.83587,0,0,1,5.48242-3.96289,41.88052,41.88052,0,0,1,7.37012-2.87793,39.73828,39.73828,0,0,1,7.43847-1.47852,42.16745,42.16745,0,0,1,6.43164-.0918,32.54507,32.54507,0,0,1,6.16993.959,25.7898,25.7898,0,0,1,5.37207,2.02148,13.50986,13.50986,0,0,1,4.03906,3.09375,26.70968,26.70968,0,0,1,3.9707,5.61231,37.37685,37.37685,0,0,1,2.59571,6.23144,47.36027,47.36027,0,0,1,1.54492,6.4795Q317.654,90.744,317.93768,93.83781Zm-19.14551-.68848-.82227-5.09961a2.7735,2.7735,0,0,1-.47656.00488,3.22946,3.22946,0,0,0-.47656.00586,19.318,19.318,0,0,0-3.79981.84082,26.42284,26.42284,0,0,0-4.31054,1.76368,17.73888,17.73888,0,0,0-3.43262,2.25293,2.87206,2.87206,0,0,0-1.2793,2.32421,1.45316,1.45316,0,0,0,1.31446,1.3252,8.91073,8.91073,0,0,0,2.7539.12891,19.89909,19.89909,0,0,0,5.48047-1.374Q296.6203,94.18547,298.79217,93.14933Z"/><path class="cls-2" d="M372.45233,49.52433a92.52122,92.52122,0,0,1,.34765,11.002,92.32664,92.32664,0,0,0,.34766,11.00293q.40576,4.45313,1.21972,8.792.81153,4.34033,1.21875,8.792c.07422.80566.1211,1.77734.14747,2.916a10.6346,10.6346,0,0,1-.46973,3.35352,6.56149,6.56149,0,0,1-1.88086,2.91113,6.8248,6.8248,0,0,1-4.0957,1.51465,9.65156,9.65156,0,0,1-6.00977-1.165,7.27455,7.27455,0,0,1-3.24512-3.5459,17.47035,17.47035,0,0,1-6.08593,5.19727,22.62083,22.62083,0,0,1-9.05371,2.72754,17.36737,17.36737,0,0,1-9.37989-1.50293,23.03617,23.03617,0,0,1-6.90234-5.07813,24.499,24.499,0,0,1-4.418-6.59863,19.83478,19.83478,0,0,1-1.81348-6.15039,29.965,29.965,0,0,1-.03808-4.334,25.87348,25.87348,0,0,1,.79492-5.01856,27.50236,27.50236,0,0,1,1.8623-5.07715,17.41624,17.41624,0,0,1,3.21875-4.59375,17.13339,17.13339,0,0,1,4.92871-3.49316,19.68644,19.68644,0,0,1,6.81543-1.7627,21.54025,21.54025,0,0,1,8.30567.83985,15.219,15.219,0,0,1,6.27246,3.38476L354.509,51.54093q-.01466-1.44287.04882-3.39062a12.88216,12.88216,0,0,1,.6709-3.751,7.27575,7.27575,0,0,1,2.15723-3.166,8.21174,8.21174,0,0,1,4.73828-1.64942,11.09275,11.09275,0,0,1,5.419.57129,6.90494,6.90494,0,0,1,3.02343,2.42676,9.018,9.018,0,0,1,1.38477,3.41113Q372.30145,47.86369,372.45233,49.52433ZM356.22967,84.79q-.15821-1.73437-.42774-3.38477a24.14919,24.14919,0,0,1-.30957-3.39648q-.7998-.91407-1.85253-1.999a13.03892,13.03892,0,0,0-2.50586-1.97851,13.73346,13.73346,0,0,0-3.1709-1.42285,9.32723,9.32723,0,0,0-3.61035-.35547,6.3392,6.3392,0,0,0-3.3545,1.14257,5.16692,5.16692,0,0,0-1.71,2.17286,7.81029,7.81029,0,0,0-.53808,2.59765,18.45171,18.45171,0,0,0,.03613,2.35645,22.0664,22.0664,0,0,0,.48047,2.6582,17.38253,17.38253,0,0,0,1.21387,3.50293,9.83985,9.83985,0,0,0,2.123,3.00293,4.03194,4.03194,0,0,0,3.31739,1.06641,11.75233,11.75233,0,0,0,3.0371-.69532,17.41122,17.41122,0,0,0,2.80079-1.32031,23.26582,23.26582,0,0,0,2.47168-1.67187q1.16893-.90528,2.05468-1.6709Z"/><path class="cls-2" d="M415.6574,53.80167a3.4501,3.4501,0,0,1-2.01074,3.45606,51.39823,51.39823,0,0,1-4.96191,2.46973,30.27852,30.27852,0,0,0-4.94239,2.69531,4.1623,4.1623,0,0,0-1.95507,4.05957,3.168,3.168,0,0,0,1.21777,2.24707,10.86512,10.86512,0,0,0,2.64648,1.54687q1.54982.65772,3.40039,1.32618a20.76733,20.76733,0,0,1,3.42481,1.59082,9.87921,9.87921,0,0,1,2.71777,2.33984,6.552,6.552,0,0,1,1.34278,3.60547,9.74519,9.74519,0,0,1-1.97461,6.457,25.39712,25.39712,0,0,1-6.00977,6.02832,37.6473,37.6473,0,0,1-8.583,4.625,35.439,35.439,0,0,1-9.68652,2.33008q-2.01123.1831-4.03809.17773a16.56673,16.56673,0,0,1-3.67285-.38769,7.54183,7.54183,0,0,1-2.7959-1.22949,3.13527,3.13527,0,0,1-1.28808-2.35547,4.20542,4.20542,0,0,1,1.002-3.40039,9.38618,9.38618,0,0,1,3.14258-2.15332,27.5897,27.5897,0,0,1,4.22168-1.44922,39.73773,39.73773,0,0,0,4.23047-1.33692,11.04274,11.04274,0,0,0,3.17773-1.77343,2.95614,2.95614,0,0,0,1.06641-2.68555,4.63778,4.63778,0,0,0-2.25-3.10449q-2.10645-1.519-4.64844-3.2295a37.32879,37.32879,0,0,1-4.69238-3.71777,7.13119,7.13119,0,0,1-2.3916-4.65332,9.82125,9.82125,0,0,1,1.52246-6.1875,18.56717,18.56717,0,0,1,5.12207-5.30078,31.62163,31.62163,0,0,1,7.6914-3.93457,37.5851,37.5851,0,0,1,9.35547-2.0332,30.52551,30.52551,0,0,1,3.7461-.11329,13.16064,13.16064,0,0,1,3.32519.4961,6.35659,6.35659,0,0,1,2.44434,1.29883A3.34826,3.34826,0,0,1,415.6574,53.80167Z"/></g></g></svg>