<svg xmlns="http://www.w3.org/2000/svg" width="412.33453" height="187.87017" viewBox="0 0 412.33453 187.87017"><defs><style>.cls-1{fill:#42210b;}.cls-2{fill:#fff;}</style></defs><g id="Layer_2" data-name="Layer 2"><g id="Layer_1-2" data-name="Layer 1"><path class="cls-1" d="M26.58052,0Q13.29024,71.23571,0,142.47144l354.4511,45.39873q28.94172-18.468,57.88343-36.93607-8.80272-35.49824-17.60556-70.99646Q210.65474,39.96879,26.58052,0Z"/><path class="cls-2" d="M161.45088,74.35573a20.04826,20.04826,0,0,1-3.88964,10.05567,34.24415,34.24415,0,0,1-8.77442,8.41211,44.3875,44.3875,0,0,1-11.95117,5.6416,39.67179,39.67179,0,0,1-13.41992,1.74023q-.27832,1.74024-.57129,4.41113a53.19408,53.19408,0,0,1-.92676,5.55664,56.88515,56.88515,0,0,1-1.58789,5.74415,19.86957,19.86957,0,0,1-2.49707,5.0791,11.56309,11.56309,0,0,1-3.77832,3.498,8.92046,8.92046,0,0,1-5.30664,1.01563,8.51428,8.51428,0,0,1-5.53711-2.28711,11.74724,11.74724,0,0,1-2.82715-4.60449,20.52585,20.52585,0,0,1-1.01562-5.42871q-.14649-2.80665-.10645-4.76368-.01758-2.8418.15527-5.57324.167-2.72754.41016-5.55078.10841-1.26416.40527-4.71973.29591-3.45262.73926-7.876.44238-4.42091.98438-9.22656.53905-4.80616,1.15136-8.91895.60792-4.11182,1.18067-7.00488.56689-2.89161,1.124-3.334a8.16734,8.16734,0,0,1,.80371-.37207q.668-.28417,1.46485-.56054c.53222-.18262,1.01757-.35352,1.46093-.51172s.752-.26172.92969-.3125A91.91632,91.91632,0,0,1,123.365,51.1946a54.90556,54.90556,0,0,1,14.10058-.6543,30.31918,30.31918,0,0,1,10.52539,2.71582,26.44813,26.44813,0,0,1,7.77832,5.46875,20.376,20.376,0,0,1,4.58789,7.35254A19.52346,19.52346,0,0,1,161.45088,74.35573Zm-22.31933.34082a5.192,5.192,0,0,0-.92285-3.50976,4.996,4.996,0,0,0-3.9043-1.80469,16.88613,16.88613,0,0,0-4.92285.31348q-2.49464.52147-4.60645,1.124.0923,3.44091.13672,6.67676a38.4413,38.4413,0,0,1-.50293,6.62207q2.10938-.60205,4.63086-1.417a32.5094,32.5094,0,0,0,4.67188-1.90235,15.177,15.177,0,0,0,3.69921-2.57422A5.40947,5.40947,0,0,0,139.13155,74.69655Z"/><path class="cls-2" d="M189.02315,69.85769a98.30411,98.30411,0,0,1-1.48047,10.50781A98.90919,98.90919,0,0,0,186.05342,90.971q-.59179,6.90966-.6084,13.86523-.01756,6.95947-.61718,13.96387a34.4537,34.4537,0,0,1-.59375,3.918,11.67521,11.67521,0,0,1-1.56055,3.93457,8.34322,8.34322,0,0,1-3.14453,2.86621,9.22458,9.22458,0,0,1-5.22656.82617,7.20136,7.20136,0,0,1-5.11133-2.74121,18.17324,18.17324,0,0,1-3.208-6.15625,46.98622,46.98622,0,0,1-1.751-8.1377,80.12381,80.12381,0,0,1-.67773-8.63476q-.09522-4.17334.01172-7.64453.10254-3.4673.24414-5.124.1582-1.84716.65234-5.335a76.00329,76.00329,0,0,1,1.48145-7.51855q.98877-4.03125,2.44043-8.1709a36.13336,36.13336,0,0,1,3.53613-7.43945,19.17611,19.17611,0,0,1,4.76855-5.27637,8.75251,8.75251,0,0,1,6.13575-1.67969,5.98671,5.98671,0,0,1,4.16406,1.77832,8.09248,8.09248,0,0,1,1.81836,3.58692,17.00229,17.00229,0,0,1,.40918,4.249Q189.155,68.30105,189.02315,69.85769Z"/><path class="cls-2" d="M249.22676,120.595q-.14942,1.752-.584,4.55664a22.1669,22.1669,0,0,1-1.55664,5.4043,11.8857,11.8857,0,0,1-3.21094,4.38086,7.23745,7.23745,0,0,1-5.541,1.48535q-4.73144-.40577-7.08984-2.96a7.21341,7.21341,0,0,1-1.92773-6.04688,34.68291,34.68291,0,0,1-9.64063,3.48633,36.65,36.65,0,0,1-10.687.65234,18.44639,18.44639,0,0,1-6.918-1.96484,22.29719,22.29719,0,0,1-5.584-4.00684,17.85738,17.85738,0,0,1-3.67969-5.168,10.64169,10.64169,0,0,1-1.08106-5.4336,10.87134,10.87134,0,0,1,4.47461-7.85058,34.21244,34.21244,0,0,1,9.78614-5.18848,64.23546,64.23546,0,0,1,12.04052-2.9375A87.27444,87.27444,0,0,1,229.26,98.00612a5.27306,5.27306,0,0,1,.13867-.87011,5.6052,5.6052,0,0,0,.13867-.87012,6.09855,6.09855,0,0,0-1.75781-5.05078,9.239,9.239,0,0,0-5.98047-2.375,16.39808,16.39808,0,0,0-5.57227.35547,40.22557,40.22557,0,0,0-4.50635,1.47558q-2.13573.84667-4.251,1.49805a12.2356,12.2356,0,0,1-4.67578.43262,8.28364,8.28364,0,0,1-4.67969-1.77344,4.11138,4.11138,0,0,1-1.68262-3.67285,8.32409,8.32409,0,0,1,2.99414-5.624,21.06384,21.06384,0,0,1,6.64746-3.89062,40.0125,40.0125,0,0,1,8.4292-2.12012,36.39494,36.39494,0,0,1,8.207-.32519,38.4356,38.4356,0,0,1,6.85352,1.22461,30.58475,30.58475,0,0,1,6.35742,2.50585,26.22292,26.22292,0,0,1,5.28906,3.6875,15.97639,15.97639,0,0,1,3.6504,4.77247,36.57339,36.57339,0,0,1,3.05273,7.95605,55.012,55.012,0,0,1,1.4668,8.457,72.14037,72.14037,0,0,1,.29687,8.55176Q249.56759,116.60622,249.22676,120.595ZM229.0295,115.7278l.18359-6.64941a2.64037,2.64037,0,0,1-.50781-.09278,2.80822,2.80822,0,0,0-.50781-.09277,17.64594,17.64594,0,0,0-4.21094.27637,25.23014,25.23014,0,0,0-4.94727,1.33984,18.43667,18.43667,0,0,0-4.11328,2.14746,3.80466,3.80466,0,0,0-1.8418,2.68457,1.83032,1.83032,0,0,0,1.1211,1.958,8.2353,8.2353,0,0,0,2.90039.73828,18.32241,18.32241,0,0,0,6.10742-.60254Q226.50606,116.59108,229.0295,115.7278Z"/><path class="cls-2" d="M281.05489,165.6653a38.3709,38.3709,0,0,1-6.90821-1.32715,40.23682,40.23682,0,0,1-7.17578-2.72265,21.663,21.663,0,0,1-5.53711-3.80664,5.71943,5.71943,0,0,1-1.98242-4.67871,3.53542,3.53542,0,0,1,.80664-1.89161,6.08386,6.08386,0,0,1,1.873-1.55468,10.10987,10.10987,0,0,1,2.4668-.96387,8.23554,8.23554,0,0,1,2.72265-.208,13.311,13.311,0,0,1,2.97657.59766q1.4414.46728,2.93554,1.085,1.62012.62841,3.1875,1.15527a14.33732,14.33732,0,0,0,3.35547.67969,9.50767,9.50767,0,0,0,5.70508-1.17676,14.6673,14.6673,0,0,0,4.40039-3.98437,26.104,26.104,0,0,0,3.19531-5.70508,53.24257,53.24257,0,0,0,2.1543-6.333q.84962-3.1626,1.34766-5.96191.4951-2.79931.77539-4.54a41.0172,41.0172,0,0,1-9.56836,7.168,20.00667,20.00667,0,0,1-11.04688,1.84668,21.59237,21.59237,0,0,1-8.373-2.28614,19.7155,19.7155,0,0,1-5.85156-4.61816,22.4184,22.4184,0,0,1-3.72656-6.15137,30.26442,30.26442,0,0,1-1.91406-6.97558,44.00225,44.00225,0,0,1-.498-6.95313,37.02862,37.02862,0,0,1,.5293-6.17871,56.22449,56.22449,0,0,1,1.18164-5.53418,34.65667,34.65667,0,0,1,2.43359-6.60351,15.883,15.883,0,0,1,4.0625-5.28809,7.59211,7.59211,0,0,1,6.19141-1.57617,5.79057,5.79057,0,0,1,3.82617,1.94531,11.61272,11.61272,0,0,1,2.17383,3.96,21.52188,21.52188,0,0,1,.98633,5.03418,46.00973,46.00973,0,0,1,.12109,5.35156q-.09962,2.63819-.34961,4.82227-.252,2.18408-.35156,3.35156-.14062,1.65528-.15625,3.31934a6.84718,6.84718,0,0,0,.64258,3.04394,5.36448,5.36448,0,0,0,2.1875,2.29492,10.62435,10.62435,0,0,0,4.47265,1.167,9.80687,9.80687,0,0,0,5.418-.80957,8.0707,8.0707,0,0,0,3.21094-2.91016,12.15755,12.15755,0,0,0,1.5664-3.98242,35.95177,35.95177,0,0,0,.60938-4.11328q.11718-1.36084.2832-3.30762.167-1.94532.416-4.081a23.55991,23.55991,0,0,1,.873-4.18848,13.46243,13.46243,0,0,1,1.73242-3.67481,8.06186,8.06186,0,0,1,2.79687-2.55371,7.35764,7.35764,0,0,1,4.248-.71386,8.40515,8.40515,0,0,1,5.33789,2.36914,15.83523,15.83523,0,0,1,3.47461,5.29589,32.09925,32.09925,0,0,1,1.98047,6.98243,65.81352,65.81352,0,0,1,.83984,7.47168q.19921,3.69287.12891,6.77441-.07032,3.08057-.22071,4.833-.35156,4.08545-1.18164,9.25879a89.05194,89.05194,0,0,1-2.38867,10.57715,58.34435,58.34435,0,0,1-4.1875,10.5205,35.80331,35.80331,0,0,1-6.5039,8.99805,26.61031,26.61031,0,0,1-9.209,5.97461A27.57115,27.57115,0,0,1,281.05489,165.6653Z"/></g></g></svg>