<?xml version="1.0" standalone="no"?>
<!DOCTYPE svg PUBLIC "-//W3C//DTD SVG 20010904//EN"
 "http://www.w3.org/TR/2001/REC-SVG-20010904/DTD/svg10.dtd">
<svg version="1.0" xmlns="http://www.w3.org/2000/svg"
 width="576.000000pt" height="576.000000pt" viewBox="0 0 576.000000 576.000000"
 preserveAspectRatio="xMidYMid meet">
<metadata>
Created by potrace 1.14, written by Peter Selinger 2001-2017
</metadata>
<g transform="translate(0.000000,576.000000) scale(0.100000,-0.100000)"
fill="#000000" stroke="none">
<path d="M2758 5364 c-2 -1 -26 -6 -53 -9 -28 -4 -61 -8 -75 -10 -361 -47
-784 -210 -1090 -419 -94 -64 -144 -100 -150 -106 -3 -3 -32 -27 -65 -54 -171
-142 -338 -324 -451 -493 -75 -113 -217 -402 -393 -798 -13 -27 -31 -68 -42
-91 -10 -22 -19 -43 -19 -47 0 -3 -11 -30 -25 -59 -72 -156 -236 -613 -270
-758 -2 -8 -4 -15 -5 -15 -1 0 -3 -7 -5 -15 -1 -8 -12 -53 -24 -100 -12 -47
-24 -96 -26 -110 -3 -14 -7 -36 -10 -50 -12 -54 -32 -186 -45 -300 -6 -54 -5
-368 2 -420 13 -101 18 -135 24 -152 3 -10 7 -28 9 -41 3 -12 14 -50 25 -82
12 -33 22 -65 23 -71 6 -27 83 -174 121 -230 64 -95 125 -164 260 -290 59 -56
304 -201 344 -204 4 0 23 -5 42 -10 141 -37 284 -33 393 12 17 7 82 38 143 69
123 62 201 94 271 109 144 33 348 30 518 -6 39 -8 79 -16 90 -18 83 -12 257
-73 383 -133 157 -74 169 -77 292 -78 169 0 299 34 420 108 36 22 79 48 95 57
26 16 216 79 375 124 224 64 485 69 645 11 87 -31 161 -41 290 -40 72 2 145 5
163 9 17 3 46 8 64 11 58 10 192 57 259 91 98 49 154 89 239 173 185 182 265
382 255 633 -2 62 -7 124 -9 138 -3 14 -7 39 -10 55 -8 42 -20 85 -55 201 -17
55 -31 107 -31 116 0 8 -3 18 -7 22 -4 3 -8 12 -9 19 -1 7 -10 39 -19 72 -9
33 -18 67 -20 75 -27 118 -34 150 -39 180 -3 19 -8 46 -11 60 -6 28 -15 89
-20 140 -12 104 -15 147 -20 275 -5 128 -11 231 -19 310 -9 84 -74 337 -88
343 -5 2 -8 14 -8 26 0 12 -4 26 -8 31 -5 6 -19 37 -32 70 -38 96 -175 356
-192 363 -4 2 -8 10 -8 18 0 8 -3 14 -8 14 -4 0 -13 14 -20 30 -8 17 -19 36
-25 43 -25 26 -67 86 -67 95 0 6 -3 12 -8 14 -4 2 -23 23 -42 48 -47 60 -58
74 -105 129 -56 65 -272 280 -324 321 -24 19 -48 40 -55 45 -26 24 -136 105
-191 141 -33 21 -61 42 -63 47 -2 4 -9 7 -16 7 -8 0 -24 8 -37 19 -58 45 -395
202 -463 215 -12 2 -38 11 -58 20 -21 9 -39 16 -40 15 -2 -1 -23 4 -48 11 -25
7 -52 14 -60 15 -8 2 -17 4 -20 5 -3 1 -9 3 -15 4 -15 2 -97 18 -120 22 -27 6
-71 13 -125 20 -46 7 -477 14 -482 8z"/>
</g>
</svg>
