<svg id="Layer_1" data-name="Layer 1" xmlns="http://www.w3.org/2000/svg" width="288.48179" height="249.66219" viewBox="0 0 288.48179 249.66219"><defs><style>.cls-1,.cls-3{stroke:#000;stroke-miterlimit:10;}.cls-1{stroke-width:2px;}.cls-2{fill:#373737;}.cls-3{fill:#e6cd9f;stroke-width:4px;}</style></defs><path class="cls-1" d="M159.54774,1.48729c-47.08173-4.30648-92.506,20.44254-115,54-3.5011,5.22306-5.66736,9.81537-10,19-18.17273,38.52375-50.25666,106.53818-23,147,7.68615,11.40986,24.16644,26.67878,42,26,14.52081-.55267,18.49383-11.24292,39-12,13.80053-.50952,27.23034,3.77,31,5,12.74444,4.15827,13.091,7.11921,21,8,10.238,1.1402,13.254-3.42083,33-10,14.661-4.88488,24.98071-8.21008,38-7,10.21679.94959,9.92669,3.561,20,4,4.45611.19416,18.3808.613,32-8a45.04631,45.04631,0,0,0,17-20c6.25256-15.17385,1.02447-30.15444-2-40-13.2461-43.12-3.37848-50.10028-13-77C256.83057,54.93279,218.04585,6.838,159.54774,1.48729Z" transform="translate(0 0)"/><path class="cls-2" d="M53.54774,234.48729c11.02649,2.33985,12.84771-3.46215,33-4,7.69952-.2055,20.7475-.55377,35,5,16.297,6.35047,16.695,13.60865,27,14,11.67462.44343,12.61407-8.81726,31-15,18.06817-6.07586,35.71887-3.3731,38-3,10.53167,1.72266,12.99658,4.47449,22,4,4.0672-.21435,16.17084-.85223,24-9,6.37311-6.63244,6.58209-17.08831,7-38a181.10686,181.10686,0,0,0-2-32,164.27,164.27,0,0,0-6-25c-4.76929-14.51348-11.85626-36.08016-29-51-12.89582-11.223-26.25153-14.13293-44-18-19.46375-4.24081-66.27381-14.43988-110,11a110.00511,110.00511,0,0,0-35,31c-12.19477,16.88181-15.93042,32.73249-20,50-5.514,23.39621-8.271,35.0943-3,49C26.28626,215.98833,37.74287,231.13353,53.54774,234.48729Z" transform="translate(0 0)"/><path class="cls-3" d="M44.54774,128.48729c-1.162,7.57782-2.7124,17.68912,3.27423,25.469,4.40472,5.72409,12.97357,10.29523,20.72577,11.531a49.061,49.061,0,0,1,10,2,46.09253,46.09253,0,0,1,10,5c9.096,6.21064,14.66522,20.69547,22,38,9.447,22.28772,11.26965,24.35535,13,26,1.34942,1.2826,15.40185,14.19269,34,10,12.92676-2.91418,20.0794-12.294,22-15,2.99707-20.38977,10.3902-33.35281,16-41,9.59137-13.07476,34.19525-38.18121,54-45,1.42987-.4923,5.107-1.67163,7-5,3.11706-5.48062-.37232-13.67843-7-24-9.41907-14.66857-29.14771-45.3927-68-56-2.874-.78463-5.22449-1.28772-6.56641-1.5585-48.89392-4.56222-91.08557,7.46985-111.43359,30.5585A84.994,84.994,0,0,0,44.54774,128.48729Z" transform="translate(0 0)"/><path d="M129.54774,161.48729c2.58355-.87625,10.85736,18.34543,12,21,2.37,5.50608,2.15655,5.88263,2,6-1.31256.984-11.43354-6.646-14-18C128.84858,167.39416,128.237,161.93184,129.54774,161.48729Z" transform="translate(0 0)"/><path d="M167.54774,163.48729c-1.92841-.84091-11.31769,9.85755-9,20,.28906,1.26493.8952,3.91761,2,4C163.87153,187.73522,170.097,164.59893,167.54774,163.48729Z" transform="translate(0 0)"/><path class="cls-1" d="M54.54774,128.48729c.43158,9.37223,11.07062,8.61094,34,29,2.02789,1.80326,5.61847,5.48243,10.58063,5.5,3.8319.01359,5.98022-2.12435,12.41937-6.5,12.24664-8.322,14.40545-7.33633,15-10,2.046-9.16665-22.53327-25.26635-31-26-.63874-.05535-3.4939-.22308-4-1.64517-.52924-1.487,2.06756-2.78012,2-4.35483-.14722-3.42941-12.97119-9.12365-24-5C61.84358,112.36788,54.17323,120.35424,54.54774,128.48729Z" transform="translate(0 0)"/><path class="cls-1" d="M171.54774,137.48729a13.3384,13.3384,0,0,0-2,7,14.62673,14.62673,0,0,0,3,8c2.93933,3.71082,8.97448,5.21213,35,2,20.041-2.47351,24.54077-4.3608,26-8,1.21716-3.03549-1.13825-3.65612-1-11,.16571-8.80569,3.63946-12.55374,1-17-1.1977-2.01748-2.77442-2.69705-3-5-.31836-3.24969,2.50665-5.10772,2-6-1.09754-1.933-15.53906,4.70127-28,10C192.974,122.4088,176.45527,129.00747,171.54774,137.48729Z" transform="translate(0 0)"/><path class="cls-1" d="M26.54774,113.48729c-3.13086,8.68134-6.38031,20.853-4,22,3.524,1.69809,13.9-23.41146,37-43,18.17657-15.41351,36.80328-21.10971,50-25,58.82214-17.3403,108.13727,3.02594,110-4,1.45636-5.49319-21.98609-18.0603-44-24-7.9383-2.14187-61.81653-15.75625-108,17C39.8263,76.14913,30.08082,103.69057,26.54774,113.48729Z" transform="translate(0 0)"/></svg>