<svg id="Layer_1" data-name="Layer 1" xmlns="http://www.w3.org/2000/svg" width="107.05218" height="189.17578" viewBox="0 0 107.05218 189.17578"><defs><style>.cls-1{fill:#373737;stroke:#000;stroke-miterlimit:10;stroke-width:2px;}</style></defs><path d="M105.05218,181.17578A509.91639,509.91639,0,0,1,50.23791,90.53611Q44.793,78.94882,40.18261,67.68317q-2.74237,5.94177-5.48468,11.88354,4.00113,7.29,8.227,14.62586a809.80069,809.80069,0,0,0,64.1272,94.98321Q106.05215,185.17581,105.05218,181.17578Z"/><path class="cls-1" d="M44.75321,1.12439c-10.79338,45.00981-9.66094,58.706-5.4847,61.24585a7.06731,7.06731,0,0,1,2.74235,2.74235c2.61124,4.90515-1.90618,12.43448-6.39882,18.28234-.98609-4.33614-2.35576-9.21914-3.65647-9.14117-2.82593.16936-4.12937,23.68291-3.65647,38.39292.54923,17.084,4.16781,43.24279,20.11058,74.95761-23.289-35.02214-36.77185-65.22223-42.04939-83.18466C3.67133,95.26763-.82644,79.95879,1.7897,60.542c.3096-2.29782.65663-4.19131.91412-5.48471l2.74235,2.74235a64.04679,64.04679,0,0,1,3.65647-23.767c2.1361-5.957,8.3214-23.206,24.68116-30.16587A36.642,36.642,0,0,1,44.75321,1.12439Z"/></svg>