<svg xmlns="http://www.w3.org/2000/svg" width="126.0532" height="199.43744" viewBox="0 0 126.0532 199.43744"><defs><style>.cls-1{fill:#c7b299;}.cls-1,.cls-2,.cls-3,.cls-4,.cls-5{stroke:#000;stroke-miterlimit:10;}.cls-1,.cls-2,.cls-3,.cls-4{stroke-width:2px;}.cls-2{fill:#ff0;}.cls-3{fill:#754c24;}.cls-5{fill:#ed1c24;}</style></defs><g id="Layer_2" data-name="Layer 2"><g id="Layer_1-2" data-name="Layer 1"><path class="cls-1" d="M60.10311,14.95134l6.93776.93137a176.03864,176.03864,0,0,1,9.36531,20.4277C83.026,53.586,94.666,83.96289,83.82187,93.8083c-8.10344,7.35723-28.56533,3.07036-38.2541-8.16238C32.63042,70.64687,36.05434,39.96209,60.10311,14.95134Z"/><path class="cls-2" d="M65.65808,18h-20l-9,25a38.3755,38.3755,0,0,0-6-19,37.17916,37.17916,0,0,0-7-8q-.50006,3.5-1,7a43.71649,43.71649,0,0,1,8,18,44.36548,44.36548,0,0,1-3.0448,26.00671Q23.43152,80.06864,19.65808,94A609.64054,609.64054,0,0,0,1.0935,198.43744h115A468.12267,468.12267,0,0,0,96.65808,94Q94.25171,86.18136,91.647,78.6785c-.00305-.94834.05872-6.94657,4.01111-9.6785,4.63733-3.20538,13.583-1.19012,19,7q5.00006-3.5,10-7a33.22808,33.22808,0,0,0-11-10c-1.51331-.83954-15.444-8.56769-24-2a14.79,14.79,0,0,0-5,8,48.67067,48.67067,0,0,1-12-13C63.76611,37.83179,64.98523,23.13657,65.65808,18Z"/><rect class="cls-3" x="45.65808" y="1" width="21" height="17"/><path class="cls-4" d="M90.33618,97.6815a12.49644,12.49644,0,0,1-24.15557,6.37067c-.07588-.23905-.142-.48035-.20063-.73367a12.5,12.5,0,0,1,24.3562-5.637Z"/><path class="cls-3" d="M86.02158,110.21717a12.49473,12.49473,0,0,1-19.841-6.165,12.49473,12.49473,0,0,1,19.841,6.165Z"/><path class="cls-4" d="M69.65808,126.5a8.92669,8.92669,0,0,1-4.53,7.44,14.04566,14.04566,0,0,1-7.47,2.06,14.25118,14.25118,0,0,1-6.5-1.51c-3.31006-1.69-5.5-4.64-5.5-7.99,0-.17.01-.33.02-.5h23.96C69.64807,126.17,69.65808,126.33,69.65808,126.5Z"/><path class="cls-5" d="M65.12805,133.94a14.04566,14.04566,0,0,1-7.47,2.06,14.25118,14.25118,0,0,1-6.5-1.51,6.99605,6.99605,0,0,1,13.97-.55Z"/><path class="cls-4" d="M46.93821,91.23115a12.49644,12.49644,0,0,1-16.66058,18.61456c-.19492-.15781-.38295-.32288-.57132-.5021a12.5,12.5,0,1,1,17.2319-18.11246Z"/><path class="cls-3" d="M50.23594,104.07185a12.49474,12.49474,0,0,1-19.95831,5.77386,12.49474,12.49474,0,0,1,19.95831-5.77386Z"/></g></g></svg>