<svg xmlns="http://www.w3.org/2000/svg" xmlns:xlink="http://www.w3.org/1999/xlink" width="182.823" height="230.8818" viewBox="0 0 182.823 230.8818"><defs><style>.cls-1,.cls-4,.cls-6{fill:none;}.cls-2{clip-path:url(#clip-path);}.cls-3{fill:#c08f6a;}.cls-4,.cls-6{stroke:#000;stroke-miterlimit:10;}.cls-4{stroke-width:2px;}.cls-5{fill:#201f32;}.cls-7{fill:#d89660;}.cls-8{fill:#fff;}.cls-9{fill:#150d00;}.cls-10{fill:#ea8d4c;}</style><clipPath id="clip-path" transform="translate(-0.00096 -0.00008)"><rect class="cls-1" width="182.82401" height="230.882"/></clipPath></defs><g id="Layer_2" data-name="Layer 2"><g id="Layer_1-2" data-name="Layer 1"><g id="default4"><g class="cls-2"><g class="cls-2"><path class="cls-3" d="M76.4382,124.6707c-.58,3.45-11.3,5.41-20,3-7.26-2.01-14.81-7.52-14-11,.36-1.58,2.351-2.35,4-3,2.38-.93,6.84-1.96,15,1,1.641.6,15.71,5.71,15,10" transform="translate(-0.00096 -0.00008)"/><path class="cls-4" d="M76.4382,124.6707c-.58,3.45-11.3,5.41-20,3-7.26-2.01-14.81-7.52-14-11,.36-1.58,2.351-2.35,4-3,2.38-.93,6.84-1.96,15,1C63.0792,115.27071,77.1482,120.38071,76.4382,124.6707Z" transform="translate(-0.00096 -0.00008)"/><path class="cls-3" d="M82.1179,111.9007c-1.329,1.33-2.67,2.67-4,4a82.14137,82.14137,0,0,1-10-3c-7.909-2.94-10.819-4.7-16-5a24.33868,24.33868,0,0,0-9.18,1.27c1.601-2.86,4.21-6.39,8-7,3.951-.63,6.92,2.29,11.18,4.73,4.101,2.35,10.461,4.86,20,5" transform="translate(-0.00096 -0.00008)"/><path class="cls-4" d="M82.1179,111.9007c-1.329,1.33-2.67,2.67-4,4a82.14137,82.14137,0,0,1-10-3c-7.909-2.94-10.819-4.7-16-5a24.33868,24.33868,0,0,0-9.18,1.27c1.601-2.86,4.21-6.39,8-7,3.951-.63,6.92,2.29,11.18,4.73C66.21889,109.25071,72.5789,111.7607,82.1179,111.9007Z" transform="translate(-0.00096 -0.00008)"/><path class="cls-3" d="M140.37869,108.9007a19.6461,19.6461,0,0,0-6-1c-5.55-.05-8.84,2.34-16,5a81.58433,81.58433,0,0,1-10,3l-4-4c9.31-.15,15.71-2.58,20-5,4.59-2.59,8.18-5.97,11.56-4.73,2.54.94,3.78,4.06,4.44,6.73" transform="translate(-0.00096 -0.00008)"/><path class="cls-4" d="M140.37869,108.9007a19.6461,19.6461,0,0,0-6-1c-5.55-.05-8.84,2.34-16,5a81.58433,81.58433,0,0,1-10,3l-4-4c9.31-.15,15.71-2.58,20-5,4.59-2.59,8.18-5.97,11.56-4.73C138.47868,103.11071,139.71869,106.23071,140.37869,108.9007Z" transform="translate(-0.00096 -0.00008)"/><path class="cls-3" d="M130.4382,127.6707c-8.71,2.41-19.43.45-20-3-.72-4.29,13.351-9.4,15-10,8.15-2.96,12.61-1.93,15-1,1.641.65,3.63,1.42,4,3,.8,3.48-6.75,8.99-14,11" transform="translate(-0.00096 -0.00008)"/><path class="cls-4" d="M130.4382,127.6707c-8.71,2.41-19.43.45-20-3-.72-4.29,13.351-9.4,15-10,8.15-2.96,12.61-1.93,15-1,1.641.65,3.63,1.42,4,3C145.23819,120.1507,137.6882,125.66071,130.4382,127.6707Z" transform="translate(-0.00096 -0.00008)"/><polygon class="cls-3" points="150.958 94.01 150.958 109.81 150.748 109.99 150.748 93.84 150.958 94.01"/><polygon class="cls-4" points="150.958 94.01 150.958 109.81 150.748 109.99 150.748 93.84 150.958 94.01"/><path class="cls-3" d="M76.4382,124.6707c-.58,3.45-11.3,5.41-20,3-7.26-2.01-14.81-7.52-14-11,.36-1.58,2.351-2.35,4-3,2.38-.93,6.84-1.96,15,1,1.641.6,15.71,5.71,15,10" transform="translate(-0.00096 -0.00008)"/><path class="cls-4" d="M76.4382,124.6707c-.58,3.45-11.3,5.41-20,3-7.26-2.01-14.81-7.52-14-11,.36-1.58,2.351-2.35,4-3,2.38-.93,6.84-1.96,15,1C63.0792,115.27071,77.1482,120.38071,76.4382,124.6707Z" transform="translate(-0.00096 -0.00008)"/><path class="cls-3" d="M82.1179,111.9007c-1.329,1.33-2.67,2.67-4,4a82.14137,82.14137,0,0,1-10-3c-7.909-2.94-10.819-4.7-16-5a24.33868,24.33868,0,0,0-9.18,1.27c1.601-2.86,4.21-6.39,8-7,3.951-.63,6.92,2.29,11.18,4.73,4.101,2.35,10.461,4.86,20,5" transform="translate(-0.00096 -0.00008)"/><path class="cls-4" d="M82.1179,111.9007c-1.329,1.33-2.67,2.67-4,4a82.14137,82.14137,0,0,1-10-3c-7.909-2.94-10.819-4.7-16-5a24.33868,24.33868,0,0,0-9.18,1.27c1.601-2.86,4.21-6.39,8-7,3.951-.63,6.92,2.29,11.18,4.73C66.21889,109.25071,72.5789,111.7607,82.1179,111.9007Z" transform="translate(-0.00096 -0.00008)"/><path class="cls-3" d="M140.37869,108.9007a19.6461,19.6461,0,0,0-6-1c-5.55-.05-8.84,2.34-16,5a81.58433,81.58433,0,0,1-10,3l-4-4c9.31-.15,15.71-2.58,20-5,4.59-2.59,8.18-5.97,11.56-4.73,2.54.94,3.78,4.06,4.44,6.73" transform="translate(-0.00096 -0.00008)"/><path class="cls-4" d="M140.37869,108.9007a19.6461,19.6461,0,0,0-6-1c-5.55-.05-8.84,2.34-16,5a81.58433,81.58433,0,0,1-10,3l-4-4c9.31-.15,15.71-2.58,20-5,4.59-2.59,8.18-5.97,11.56-4.73C138.47868,103.11071,139.71869,106.23071,140.37869,108.9007Z" transform="translate(-0.00096 -0.00008)"/><path class="cls-3" d="M130.4382,127.6707c-8.71,2.41-19.43.45-20-3-.72-4.29,13.351-9.4,15-10,8.15-2.96,12.61-1.93,15-1,1.641.65,3.63,1.42,4,3,.8,3.48-6.75,8.99-14,11" transform="translate(-0.00096 -0.00008)"/><path class="cls-4" d="M130.4382,127.6707c-8.71,2.41-19.43.45-20-3-.72-4.29,13.351-9.4,15-10,8.15-2.96,12.61-1.93,15-1,1.641.65,3.63,1.42,4,3C145.23819,120.1507,137.6882,125.66071,130.4382,127.6707Z" transform="translate(-0.00096 -0.00008)"/><path class="cls-5" d="M52.2761,166.8665c-5.21.191-23.887.286-33-12-7.044-9.496-5.952-23.124-5-35,.68-8.479,2.355-13.467,2-25-.197-6.379-.756-6.155-1-14-.3-9.623-.463-16.631,2-25,.779-2.648,2.187-5.766,5-12,4.938-10.942,8.104-15.684,9-17,4.229-6.218,6.512-9.469,11-11a16.206,16.206,0,0,1,10,0c1.339.455,4.922,1.672,7,5,1.619,2.592.342,3.29,2,8,1.44,4.093,2.877,4.909,3,8,.016.404.039,1.59-1,5-1.702,5.585-2.557,8.389-5,11a21.95268,21.95268,0,0,1-8,5c-4.487,1.889-5.814,2.25-7,3-5.832,3.688.375,20.165,3,38,3.378,22.95-2.097,28.304,3,55,1.074,5.626,2.229,10.159,3,13" transform="translate(-0.00096 -0.00008)"/><path class="cls-6" d="M52.2761,166.8665c-5.21.191-23.887.286-33-12-7.044-9.496-5.952-23.124-5-35,.68-8.479,2.355-13.467,2-25-.197-6.379-.756-6.155-1-14-.3-9.623-.463-16.631,2-25,.779-2.648,2.187-5.766,5-12,4.938-10.942,8.104-15.684,9-17,4.229-6.218,6.512-9.469,11-11a16.206,16.206,0,0,1,10,0c1.339.455,4.922,1.672,7,5,1.619,2.592.342,3.29,2,8,1.44,4.093,2.877,4.909,3,8,.016.404.039,1.59-1,5-1.702,5.585-2.557,8.389-5,11a21.95268,21.95268,0,0,1-8,5c-4.487,1.889-5.814,2.25-7,3-5.832,3.688.375,20.165,3,38,3.378,22.95-2.097,28.304,3,55C50.3501,159.49251,51.5051,164.02551,52.2761,166.8665Z" transform="translate(-0.00096 -0.00008)"/><path class="cls-5" d="M124.5027,177.1097c17.945,2.372,27.978-12.62,38.223-8.005,5.188,2.337,7.066,8.189,7.628,9.94,3.088,9.628-3.33,18.787-6.479,23.281-7.912,11.292-19.268,15.355-23.678,16.864a46.32284,46.32284,0,0,1-17.783,2.782c-15.538-.774-17.564-9.509-32.113-11.169-15.125-1.725-28.26,5.97-29.33,6.614-7.191,4.334-7.859,7.648-15.559,10.532-.949.356-15.717,5.714-21.365-.705-2.016-2.29-2.23-5.351-2.534-9.725-.433-6.199,1.214-7.482,1.108-12.32-.217-9.885-7.358-16.673-7.722-17.01a24.36027,24.36027,0,0,0-13.093-6.049,28.92291,28.92291,0,0,1,14.819-2.319c2.152.241,10.635,1.188,16.366,7.561,4.057,4.511,3.281,7.897,7.783,10.928a16.73929,16.73929,0,0,0,9.51,2.561c8.917.013,11.499-5.927,21.642-10.472,12.351-5.536,14.126.761,25.532-5.008,7.553-3.82,11.282-8.859,19.82-9.175,3.107-.114,4.199.494,7.225.894" transform="translate(-0.00096 -0.00008)"/><path class="cls-6" d="M124.5027,177.1097c17.945,2.372,27.978-12.62,38.223-8.005,5.188,2.337,7.066,8.189,7.628,9.94,3.088,9.628-3.33,18.787-6.479,23.281-7.912,11.292-19.268,15.355-23.678,16.864a46.32284,46.32284,0,0,1-17.783,2.782c-15.538-.774-17.564-9.509-32.113-11.169-15.125-1.725-28.26,5.97-29.33,6.614-7.191,4.334-7.859,7.648-15.559,10.532-.949.356-15.717,5.714-21.365-.705-2.016-2.29-2.23-5.351-2.534-9.725-.433-6.199,1.214-7.482,1.108-12.32-.217-9.885-7.358-16.673-7.722-17.01a24.36027,24.36027,0,0,0-13.093-6.049,28.92291,28.92291,0,0,1,14.819-2.319c2.152.241,10.635,1.188,16.366,7.561,4.057,4.511,3.281,7.897,7.783,10.928a16.73929,16.73929,0,0,0,9.51,2.561c8.917.013,11.499-5.927,21.642-10.472,12.351-5.536,14.126.761,25.532-5.008,7.553-3.82,11.282-8.859,19.82-9.175C120.3847,176.1017,121.4767,176.70971,124.5027,177.1097Z" transform="translate(-0.00096 -0.00008)"/><path class="cls-5" d="M52.2761,22.8665c3.799-5.511,11.759-15.24,25-20,9.415-3.385,17.276-2.59,33-1,9.476.958,22.523,2.38,38,9,10.609,4.538,15.913,6.806,21,12,12.042,12.296,12.464,29.759,13,52,.396,16.434-1.789,12.806-2,37-.115,13.202.46,23.05-3,37a81.80644,81.80644,0,0,1-5,15c-3.763,8.338-9.622,21.319-23,28a40.83952,40.83952,0,0,1-21,4q-37.99949-86.5005-76-173" transform="translate(-0.00096 -0.00008)"/><path class="cls-6" d="M52.2761,22.8665c3.799-5.511,11.759-15.24,25-20,9.415-3.385,17.276-2.59,33-1,9.476.958,22.523,2.38,38,9,10.609,4.538,15.913,6.806,21,12,12.042,12.296,12.464,29.759,13,52,.396,16.434-1.789,12.806-2,37-.115,13.202.46,23.05-3,37a81.80644,81.80644,0,0,1-5,15c-3.763,8.338-9.622,21.319-23,28a40.83952,40.83952,0,0,1-21,4Q90.2766,109.366,52.2761,22.8665Z" transform="translate(-0.00096 -0.00008)"/><path class="cls-7" d="M161.0392,105.3307c-1.661-.42-4.651-.16-10.08,4.48l-.21.18v-71.32h-115v71.68c-5.561-4.81-8.611-5.09-10.29-4.66-5.471,1.4-7.281,13.18-2.941,22.15,3.37,6.97,9.87,11.03,13.231,12.83v44.47h.679v.28q24.522,19.5675,49.044,39.136a22.68471,22.68471,0,0,0,15.564.708q24.96-19.9215,49.923-39.844v-45.22c3.409-1.86,9.719-5.89,13.019-12.72,4.34-8.97,2.53-20.75-2.939-22.15m-84.601,19.34c-.58,3.45-11.3,5.41-20,3-7.26-2.01-14.81-7.52-14-11,.36-1.58,2.351-2.35,4-3,2.38-.93,6.84-1.96,15,1,1.641.6,15.71,5.71,15,10m54,3c-8.71,2.41-19.43.45-20-3-.72-4.29,13.351-9.4,15-10,8.15-2.96,12.61-1.93,15-1,1.641.65,3.63,1.42,4,3,.8,3.48-6.75,8.99-14,11" transform="translate(-0.00096 -0.00008)"/><path class="cls-4" d="M161.0392,105.3307c-1.661-.42-4.651-.16-10.08,4.48l-.21.18v-71.32h-115v71.68c-5.561-4.81-8.611-5.09-10.29-4.66-5.471,1.4-7.281,13.18-2.941,22.15,3.37,6.97,9.87,11.03,13.231,12.83v44.47h.679v.28q24.522,19.5675,49.044,39.136a22.68471,22.68471,0,0,0,15.564.708q24.96-19.9215,49.923-39.844v-45.22c3.409-1.86,9.719-5.89,13.019-12.72C168.31819,118.5107,166.50819,106.73071,161.0392,105.3307Zm-84.601,19.34c-.58,3.45-11.3,5.41-20,3-7.26-2.01-14.81-7.52-14-11,.36-1.58,2.351-2.35,4-3,2.38-.93,6.84-1.96,15,1C63.0792,115.27071,77.1482,120.38071,76.4382,124.6707Zm54,3c-8.71,2.41-19.43.45-20-3-.72-4.29,13.351-9.4,15-10,8.15-2.96,12.61-1.93,15-1,1.641.65,3.63,1.42,4,3C145.23819,120.1507,137.6882,125.66071,130.4382,127.6707Z" transform="translate(-0.00096 -0.00008)"/><path class="cls-5" d="M145.45869,112.81081a14.13966,14.13966,0,0,0-7-4c-3.93-.827-7.009.593-11,2a90.28112,90.28112,0,0,1-16,4q-.501-3.4995-1-7a35.6173,35.6173,0,0,0,13.92-.91c7.075-1.942,10.162-5.29,14.08-4.09,2.14.655,4.949,2.797,7,10" transform="translate(-0.00096 -0.00008)"/><path class="cls-6" d="M145.45869,112.81081a14.13966,14.13966,0,0,0-7-4c-3.93-.827-7.009.593-11,2a90.28112,90.28112,0,0,1-16,4q-.501-3.4995-1-7a35.6173,35.6173,0,0,0,13.92-.91c7.075-1.942,10.162-5.29,14.08-4.09C140.59869,103.46581,143.40768,105.60781,145.45869,112.81081Z" transform="translate(-0.00096 -0.00008)"/><path class="cls-5" d="M41.5388,112.5276a14.13976,14.13976,0,0,1,7-4c3.93-.827,7.008.593,11,2a90.28112,90.28112,0,0,0,16,4q.4995-3.49949,1-7a35.61707,35.61707,0,0,1-13.92-.91c-7.075-1.942-10.162-5.29-14.08-4.09-2.14.655-4.95,2.797-7,10" transform="translate(-0.00096 -0.00008)"/><path class="cls-6" d="M41.5388,112.5276a14.13976,14.13976,0,0,1,7-4c3.93-.827,7.008.593,11,2a90.28112,90.28112,0,0,0,16,4q.4995-3.49949,1-7a35.61707,35.61707,0,0,1-13.92-.91c-7.075-1.942-10.162-5.29-14.08-4.09C46.3988,103.18261,43.5888,105.32461,41.5388,112.5276Z" transform="translate(-0.00096 -0.00008)"/><path class="cls-8" d="M76.4382,124.6707c-.58,3.45-11.3,5.41-20,3-7.26-2.01-14.81-7.52-14-11,.36-1.58,2.351-2.35,4-3,2.38-.93,6.84-1.96,15,1,1.641.6,15.71,5.71,15,10" transform="translate(-0.00096 -0.00008)"/><path class="cls-6" d="M76.4382,124.6707c-.58,3.45-11.3,5.41-20,3-7.26-2.01-14.81-7.52-14-11,.36-1.58,2.351-2.35,4-3,2.38-.93,6.84-1.96,15,1C63.0792,115.27071,77.1482,120.38071,76.4382,124.6707Z" transform="translate(-0.00096 -0.00008)"/><path class="cls-9" d="M69.9343,122.17361a6,6,0,1,1-6-6,6.00027,6.00027,0,0,1,6,6" transform="translate(-0.00096 -0.00008)"/><circle class="cls-6" cx="63.93335" cy="122.17352" r="6"/><path class="cls-8" d="M130.4382,127.6707c-8.71,2.41-19.43.45-20-3-.72-4.29,13.351-9.4,15-10,8.15-2.96,12.61-1.93,15-1,1.641.65,3.63,1.42,4,3,.8,3.48-6.75,8.99-14,11" transform="translate(-0.00096 -0.00008)"/><path class="cls-6" d="M130.4382,127.6707c-8.71,2.41-19.43.45-20-3-.72-4.29,13.351-9.4,15-10,8.15-2.96,12.61-1.93,15-1,1.641.65,3.63,1.42,4,3C145.23819,120.1507,137.6882,125.66071,130.4382,127.6707Z" transform="translate(-0.00096 -0.00008)"/><path class="cls-9" d="M116.9343,122.17361a6,6,0,1,0,6-6,6.00027,6.00027,0,0,0-6,6" transform="translate(-0.00096 -0.00008)"/><circle class="cls-6" cx="122.93335" cy="122.17352" r="6"/><path d="M56.2761,127.8665a28.55221,28.55221,0,0,1-10-4,38.99881,38.99881,0,0,1-5-4,95.32068,95.32068,0,0,1-8-8c1.657,1.485,4.117,3.162,7,3,2.079-.117,3.054-1.116,5-2a16.96255,16.96255,0,0,1,13,0c-.021.214-9.734-2.325-13,2a5.44157,5.44157,0,0,0-1,4c.39,2.477,2.692,3.923,6,6a34.89219,34.89219,0,0,0,6,3" transform="translate(-0.00096 -0.00008)"/><path class="cls-6" d="M56.2761,127.8665a28.55221,28.55221,0,0,1-10-4,38.99881,38.99881,0,0,1-5-4,95.32068,95.32068,0,0,1-8-8c1.657,1.485,4.117,3.162,7,3,2.079-.117,3.054-1.116,5-2a16.96255,16.96255,0,0,1,13,0c-.021.214-9.734-2.325-13,2a5.44157,5.44157,0,0,0-1,4c.39,2.477,2.692,3.923,6,6A34.89219,34.89219,0,0,0,56.2761,127.8665Z" transform="translate(-0.00096 -0.00008)"/><path class="cls-10" d="M96.2761,122.8665a97.90454,97.90454,0,0,0,.387,21.099c.613,4.761.92,7.142,2,10,2.972,7.876,8.003,11.27,6.613,13.901-.934,1.767-3.179.19-6.817,2.944a13.24971,13.24971,0,0,1-5.796,3.155,4.51649,4.51649,0,0,1-.484.074c-2.21.198-3.538-1.642-5.72-3.229-3.212-2.335-4.796-1.604-5.183-2.944-.532-1.843,2.475-3.189,4.183-7.056a13.85205,13.85205,0,0,0,1-7" transform="translate(-0.00096 -0.00008)"/><path class="cls-6" d="M96.2761,122.8665a97.90454,97.90454,0,0,0,.387,21.099c.613,4.761.92,7.142,2,10,2.972,7.876,8.003,11.27,6.613,13.901-.934,1.767-3.179.19-6.817,2.944a13.24971,13.24971,0,0,1-5.796,3.155,4.51649,4.51649,0,0,1-.484.074c-2.21.198-3.538-1.642-5.72-3.229-3.212-2.335-4.796-1.604-5.183-2.944-.532-1.843,2.475-3.189,4.183-7.056a13.85205,13.85205,0,0,0,1-7" transform="translate(-0.00096 -0.00008)"/><path d="M130.7292,128.2332a28.55255,28.55255,0,0,0,10-4,38.91238,38.91238,0,0,0,5-4,95.3222,95.3222,0,0,0,8-8c-1.658,1.485-4.118,3.162-7,3-2.079-.117-3.054-1.116-5-2a16.96255,16.96255,0,0,0-13,0c.021.215,9.734-2.325,13,2a5.44161,5.44161,0,0,1,1,4c-.391,2.478-2.692,3.923-6,6a34.89294,34.89294,0,0,1-6,3" transform="translate(-0.00096 -0.00008)"/><path class="cls-6" d="M130.7292,128.2332a28.55255,28.55255,0,0,0,10-4,38.91238,38.91238,0,0,0,5-4,95.3222,95.3222,0,0,0,8-8c-1.658,1.485-4.118,3.162-7,3-2.079-.117-3.054-1.116-5-2a16.96255,16.96255,0,0,0-13,0c.021.215,9.734-2.325,13,2a5.44161,5.44161,0,0,1,1,4c-.391,2.478-2.692,3.923-6,6A34.89294,34.89294,0,0,1,130.7292,128.2332Z" transform="translate(-0.00096 -0.00008)"/><path class="cls-5" d="M14.2761,119.8665q4.0005,10.9995,8,22a6.45716,6.45716,0,0,0,4-2c1.94-2.294,1.216-5.824,1-7-1.376-7.483-1.557-25.034,3-36,3.806-9.16,8.017-6.745,11-16,2.808-8.709-.196-13.092,4-21a30.11659,30.11659,0,0,1,9-10,36.70222,36.70222,0,0,1,17-7,37.2881,37.2881,0,0,0,0-11c-.836-5.565-1.674-11.147-6-14-6.177-4.074-14.896.43-16,1-4.162,2.15-6.369,5.118-10,10a81.30783,81.30783,0,0,0-8,14c-4.062,8.593-6.094,12.89-7,18-1.527,8.612.946,10.15-1,21a44.54483,44.54483,0,0,1-3,11c-2.875,6.596-5.192,6.857-7,13-1.939,6.588-.553,10.633,0,12a14.36172,14.36172,0,0,0,1,2" transform="translate(-0.00096 -0.00008)"/><path class="cls-6" d="M14.2761,119.8665q4.0005,10.9995,8,22a6.45716,6.45716,0,0,0,4-2c1.94-2.294,1.216-5.824,1-7-1.376-7.483-1.557-25.034,3-36,3.806-9.16,8.017-6.745,11-16,2.808-8.709-.196-13.092,4-21a30.11659,30.11659,0,0,1,9-10,36.70222,36.70222,0,0,1,17-7,37.2881,37.2881,0,0,0,0-11c-.836-5.565-1.674-11.147-6-14-6.177-4.074-14.896.43-16,1-4.162,2.15-6.369,5.118-10,10a81.30783,81.30783,0,0,0-8,14c-4.062,8.593-6.094,12.89-7,18-1.527,8.612.946,10.15-1,21a44.54483,44.54483,0,0,1-3,11c-2.875,6.596-5.192,6.857-7,13-1.939,6.588-.553,10.633,0,12A14.36172,14.36172,0,0,0,14.2761,119.8665Z" transform="translate(-0.00096 -0.00008)"/><path class="cls-5" d="M72.2761,30.8665c.756-6.109,1.795-14.512,7-19,6.963-6.004,18.606-2.611,31,1a103.84777,103.84777,0,0,1,26,12c14.014,8.79,23.574,14.787,28,26,3.721,9.428-.565,11.451,3,28,2.977,13.817,6.053,12.813,8,24,2.62,15.054-1.051,27.779-4,38-2.347,8.133-3.532,12.244-7,17-2.617,3.59-5.491,6.117-9,12a60.29924,60.29924,0,0,0-4,8c-3.621-15.566-2.691-27.604-1-36,2.582-12.822,7.818-21.528,5-35-.994-4.751-2.017-9.641-6-14-6.961-7.619-14.934-4.829-28-13-3.391-2.12-6.261-4.747-12-10-11.351-10.389-13.112-14.79-21-20a52.5409,52.5409,0,0,0-16-7,49.09573,49.09573,0,0,1,0-12" transform="translate(-0.00096 -0.00008)"/><path class="cls-6" d="M72.2761,30.8665c.756-6.109,1.795-14.512,7-19,6.963-6.004,18.606-2.611,31,1a103.84777,103.84777,0,0,1,26,12c14.014,8.79,23.574,14.787,28,26,3.721,9.428-.565,11.451,3,28,2.977,13.817,6.053,12.813,8,24,2.62,15.054-1.051,27.779-4,38-2.347,8.133-3.532,12.244-7,17-2.617,3.59-5.491,6.117-9,12a60.29924,60.29924,0,0,0-4,8c-3.621-15.566-2.691-27.604-1-36,2.582-12.822,7.818-21.528,5-35-.994-4.751-2.017-9.641-6-14-6.961-7.619-14.934-4.829-28-13-3.391-2.12-6.261-4.747-12-10-11.351-10.389-13.112-14.79-21-20a52.5409,52.5409,0,0,0-16-7A49.09573,49.09573,0,0,1,72.2761,30.8665Z" transform="translate(-0.00096 -0.00008)"/><path class="cls-5" d="M72.2761,42.8665c.7-4,4.358-6.071,6-7,7.18-4.064,15.399-1.218,16-1,9.073,3.292,8.428,10.93,18,22,5.341,6.177,13.228,11.118,29,21,12.594,7.891,17.271,9.568,20,16,3.41,8.038.791,16.459,0,19a33.41383,33.41383,0,0,1-11,16,34.29534,34.29534,0,0,0,6-22,27.60256,27.60256,0,0,0-4-13c-7.31-11.298-18.652-6.165-32-17-10.652-8.648-8.716-16.211-19-20a73.55524,73.55524,0,0,0-16-4c-4.846-.506-8.487-.25-11-3a8.47048,8.47048,0,0,1-2-7" transform="translate(-0.00096 -0.00008)"/><path class="cls-6" d="M72.2761,42.8665c.7-4,4.358-6.071,6-7,7.18-4.064,15.399-1.218,16-1,9.073,3.292,8.428,10.93,18,22,5.341,6.177,13.228,11.118,29,21,12.594,7.891,17.271,9.568,20,16,3.41,8.038.791,16.459,0,19a33.41383,33.41383,0,0,1-11,16,34.29534,34.29534,0,0,0,6-22,27.60256,27.60256,0,0,0-4-13c-7.31-11.298-18.652-6.165-32-17-10.652-8.648-8.716-16.211-19-20a73.55524,73.55524,0,0,0-16-4c-4.846-.506-8.487-.25-11-3A8.47048,8.47048,0,0,1,72.2761,42.8665Z" transform="translate(-0.00096 -0.00008)"/><path class="cls-5" d="M75.2761,41.8665c-2.341.352-3.788,2.662-4,3a8.92574,8.92574,0,0,0-1,6c1.035,8.082,5.741,17.371,8,22,5.292,10.846,3.745,9.638,6,13,2.707,4.037,6.163,7.608,17,15a262.20339,262.20339,0,0,0,23,14,49.03486,49.03486,0,0,0-11-13c-4.391-3.629-5.112-2.88-9-6-8.006-6.424-11.598-14.937-15-23-2.261-5.356-3.391-8.035-4-12-.951-6.19.287-8.834-2-13-1.411-2.571-4.599-6.511-8-6" transform="translate(-0.00096 -0.00008)"/><path class="cls-6" d="M75.2761,41.8665c-2.341.352-3.788,2.662-4,3a8.92574,8.92574,0,0,0-1,6c1.035,8.082,5.741,17.371,8,22,5.292,10.846,3.745,9.638,6,13,2.707,4.037,6.163,7.608,17,15a262.20339,262.20339,0,0,0,23,14,49.03486,49.03486,0,0,0-11-13c-4.391-3.629-5.112-2.88-9-6-8.006-6.424-11.598-14.937-15-23-2.261-5.356-3.391-8.035-4-12-.951-6.19.287-8.834-2-13C81.8651,45.2955,78.67709,41.35551,75.2761,41.8665Z" transform="translate(-0.00096 -0.00008)"/><path class="cls-5" d="M75.2761,45.8665c-1.611-2.167-5.098-5.012-8-4-2.667.93-3.482,4.643-4,7-1.014,4.614.594,5.561,0,10-.77,5.757-3.721,6.025-4,11-.178,3.17.886,5.457,3,10,1.706,3.667,3.494,6.161,7,11,3.883,5.36,5.824,8.04,8,10a35.04287,35.04287,0,0,0,12,7,79.87125,79.87125,0,0,1-7-8,57.17579,57.17579,0,0,1-7-11c-2.664-5.695-4.865-10.403-4-16,.613-3.965,2.031-3.624,5-13a17.93821,17.93821,0,0,0,1-9,11.27941,11.27941,0,0,0-2-5" transform="translate(-0.00096 -0.00008)"/><path class="cls-6" d="M75.2761,45.8665c-1.611-2.167-5.098-5.012-8-4-2.667.93-3.482,4.643-4,7-1.014,4.614.594,5.561,0,10-.77,5.757-3.721,6.025-4,11-.178,3.17.886,5.457,3,10,1.706,3.667,3.494,6.161,7,11,3.883,5.36,5.824,8.04,8,10a35.04287,35.04287,0,0,0,12,7,79.87125,79.87125,0,0,1-7-8,57.17579,57.17579,0,0,1-7-11c-2.664-5.695-4.865-10.403-4-16,.613-3.965,2.031-3.624,5-13a17.93821,17.93821,0,0,0,1-9A11.27941,11.27941,0,0,0,75.2761,45.8665Z" transform="translate(-0.00096 -0.00008)"/></g></g></g></g></g></svg>