<svg xmlns="http://www.w3.org/2000/svg" xmlns:xlink="http://www.w3.org/1999/xlink" width="165.65449" height="263.44279" viewBox="0 0 165.65449 263.44279"><defs><style>.cls-1,.cls-4,.cls-6{fill:none;}.cls-2{clip-path:url(#clip-path);}.cls-3{fill:#c08f6a;}.cls-4,.cls-6{stroke:#000;stroke-miterlimit:10;}.cls-4{stroke-width:2px;}.cls-5{fill:#363430;}.cls-7{fill:#fff;}.cls-8{fill:#150d00;}.cls-9{fill:#c27c54;}</style><clipPath id="clip-path" transform="translate(0.00022 -0.00007)"><rect class="cls-1" width="165.65401" height="263.44299"/></clipPath></defs><g id="Layer_2" data-name="Layer 2"><g id="Layer_1-2" data-name="Layer 1"><g id="default3"><g class="cls-2"><g class="cls-2"><path class="cls-3" d="M65.9172,160.80129c-.58,3.45-11.301,5.41-20,3-7.261-2.01-14.811-7.52-14-11,.359-1.58,2.35-2.35,4-3,2.38-.93,6.84-1.96,15,1,1.64.6,15.709,5.71,15,10" transform="translate(0.00022 -0.00007)"/><path class="cls-4" d="M65.9172,160.80129c-.58,3.45-11.301,5.41-20,3-7.261-2.01-14.811-7.52-14-11,.359-1.58,2.35-2.35,4-3,2.38-.93,6.84-1.96,15,1C52.5572,151.4013,66.6262,156.5113,65.9172,160.80129Z" transform="translate(0.00022 -0.00007)"/><path class="cls-3" d="M71.5968,148.0313l-4,4a82.03388,82.03388,0,0,1-10-3c-7.91-2.94-10.82-4.7-16-5a24.33517,24.33517,0,0,0-9.18,1.27c1.6-2.86,4.209-6.39,8-7,3.95-.63,6.92,2.29,11.18,4.73,4.1,2.35,10.46,4.86,20,5" transform="translate(0.00022 -0.00007)"/><path class="cls-4" d="M71.5968,148.0313l-4,4a82.03388,82.03388,0,0,1-10-3c-7.91-2.94-10.82-4.7-16-5a24.33517,24.33517,0,0,0-9.18,1.27c1.6-2.86,4.209-6.39,8-7,3.95-.63,6.92,2.29,11.18,4.73C55.6968,145.3813,62.0568,147.8913,71.5968,148.0313Z" transform="translate(0.00022 -0.00007)"/><path class="cls-3" d="M129.8566,145.0313a19.63962,19.63962,0,0,0-6-1c-5.55-.05-8.84,2.34-16,5a81.533,81.533,0,0,1-10,3l-4-4c9.311-.15,15.71-2.58,20-5,4.59-2.59,8.18-5.97,11.561-4.73,2.539.94,3.779,4.06,4.439,6.73" transform="translate(0.00022 -0.00007)"/><path class="cls-4" d="M129.8566,145.0313a19.63962,19.63962,0,0,0-6-1c-5.55-.05-8.84,2.34-16,5a81.533,81.533,0,0,1-10,3l-4-4c9.311-.15,15.71-2.58,20-5,4.59-2.59,8.18-5.97,11.561-4.73C127.9566,139.2413,129.19659,142.3613,129.8566,145.0313Z" transform="translate(0.00022 -0.00007)"/><path class="cls-3" d="M119.9172,163.80129c-8.711,2.41-19.431.45-20-3-.721-4.29,13.35-9.4,15-10,8.149-2.96,12.609-1.93,15-1,1.64.65,3.63,1.42,4,3,.8,3.48-6.75,8.99-14,11" transform="translate(0.00022 -0.00007)"/><path class="cls-4" d="M119.9172,163.80129c-8.711,2.41-19.431.45-20-3-.721-4.29,13.35-9.4,15-10,8.149-2.96,12.609-1.93,15-1,1.64.65,3.63,1.42,4,3C134.71719,156.2813,127.1672,161.7913,119.9172,163.80129Z" transform="translate(0.00022 -0.00007)"/><polygon class="cls-3" points="140.437 130.142 140.437 145.942 140.227 146.122 140.227 129.972 140.437 130.142"/><polygon class="cls-4" points="140.437 130.142 140.437 145.942 140.227 146.122 140.227 129.972 140.437 130.142"/><path class="cls-3" d="M65.9172,160.80129c-.58,3.45-11.301,5.41-20,3-7.261-2.01-14.811-7.52-14-11,.359-1.58,2.35-2.35,4-3,2.38-.93,6.84-1.96,15,1,1.64.6,15.709,5.71,15,10" transform="translate(0.00022 -0.00007)"/><path class="cls-4" d="M65.9172,160.80129c-.58,3.45-11.301,5.41-20,3-7.261-2.01-14.811-7.52-14-11,.359-1.58,2.35-2.35,4-3,2.38-.93,6.84-1.96,15,1C52.5572,151.4013,66.6262,156.5113,65.9172,160.80129Z" transform="translate(0.00022 -0.00007)"/><path class="cls-3" d="M71.5968,148.0313l-4,4a82.03388,82.03388,0,0,1-10-3c-7.91-2.94-10.82-4.7-16-5a24.33517,24.33517,0,0,0-9.18,1.27c1.6-2.86,4.209-6.39,8-7,3.95-.63,6.92,2.29,11.18,4.73,4.1,2.35,10.46,4.86,20,5" transform="translate(0.00022 -0.00007)"/><path class="cls-4" d="M71.5968,148.0313l-4,4a82.03388,82.03388,0,0,1-10-3c-7.91-2.94-10.82-4.7-16-5a24.33517,24.33517,0,0,0-9.18,1.27c1.6-2.86,4.209-6.39,8-7,3.95-.63,6.92,2.29,11.18,4.73C55.6968,145.3813,62.0568,147.8913,71.5968,148.0313Z" transform="translate(0.00022 -0.00007)"/><path class="cls-3" d="M129.8566,145.0313a19.63962,19.63962,0,0,0-6-1c-5.55-.05-8.84,2.34-16,5a81.533,81.533,0,0,1-10,3l-4-4c9.311-.15,15.71-2.58,20-5,4.59-2.59,8.18-5.97,11.561-4.73,2.539.94,3.779,4.06,4.439,6.73" transform="translate(0.00022 -0.00007)"/><path class="cls-4" d="M129.8566,145.0313a19.63962,19.63962,0,0,0-6-1c-5.55-.05-8.84,2.34-16,5a81.533,81.533,0,0,1-10,3l-4-4c9.311-.15,15.71-2.58,20-5,4.59-2.59,8.18-5.97,11.561-4.73C127.9566,139.2413,129.19659,142.3613,129.8566,145.0313Z" transform="translate(0.00022 -0.00007)"/><path class="cls-3" d="M119.9172,163.80129c-8.711,2.41-19.431.45-20-3-.721-4.29,13.35-9.4,15-10,8.149-2.96,12.609-1.93,15-1,1.64.65,3.63,1.42,4,3,.8,3.48-6.75,8.99-14,11" transform="translate(0.00022 -0.00007)"/><path class="cls-4" d="M119.9172,163.80129c-8.711,2.41-19.431.45-20-3-.721-4.29,13.35-9.4,15-10,8.149-2.96,12.609-1.93,15-1,1.64.65,3.63,1.42,4,3C134.71719,156.2813,127.1672,161.7913,119.9172,163.80129Z" transform="translate(0.00022 -0.00007)"/><path class="cls-5" d="M56.9367,75.94139a83.406,83.406,0,0,1,41,12c5.93,3.633,16.564,10.315,24,23,5.576,9.513,4.475,14.08,9,26a100.577,100.577,0,0,0,20,32c5.939-35.161,5.628-51.577,4-60-.471-2.433-1.712-7.621-3-16-1.352-8.794-1.342-11.91-3-18-1.833-6.729-2.749-10.094-5-13-4.775-6.164-10.988-5.023-30-9-18.053-3.777-18.927-6.161-31-7a102.72694,102.72694,0,0,0-22,1c-22.509,2.945-34.784,10.271-39,13-10.332,6.688-11.092,10.903-11,13,.157,3.588,3.037,6.145,4,7,11.072,9.833,38.81-2.542,42-4" transform="translate(0.00022 -0.00007)"/><path class="cls-6" d="M56.9367,75.94139a83.406,83.406,0,0,1,41,12c5.93,3.633,16.564,10.315,24,23,5.576,9.513,4.475,14.08,9,26a100.577,100.577,0,0,0,20,32c5.939-35.161,5.628-51.577,4-60-.471-2.433-1.712-7.621-3-16-1.352-8.794-1.342-11.91-3-18-1.833-6.729-2.749-10.094-5-13-4.775-6.164-10.988-5.023-30-9-18.053-3.777-18.927-6.161-31-7a102.72694,102.72694,0,0,0-22,1c-22.509,2.945-34.784,10.271-39,13-10.332,6.688-11.092,10.903-11,13,.157,3.588,3.037,6.145,4,7C26.0087,89.7744,53.7467,77.3994,56.9367,75.94139Z" transform="translate(0.00022 -0.00007)"/><path class="cls-3" d="M150.5172,141.4613c-1.661-.42-4.651-.16-10.08,4.48l-.21.18v-71.32h-115v71.68c-5.56-4.81-8.611-5.09-10.29-4.66-5.47,1.4-7.281,13.18-2.94,22.15,3.369,6.97,9.869,11.03,13.23,12.83v44.47h.679v.28q24.5235,19.5675,49.044,39.136a22.68471,22.68471,0,0,0,15.564.708q24.9615-19.92149,49.923-39.844v-45.22c3.41-1.86,9.719-5.89,13.019-12.72,4.341-8.97,2.53-20.75-2.939-22.15m-84.6,19.34c-.58,3.45-11.301,5.41-20,3-7.261-2.01-14.811-7.52-14-11,.359-1.58,2.35-2.35,4-3,2.38-.93,6.84-1.96,15,1,1.64.6,15.709,5.71,15,10m54,3c-8.711,2.41-19.431.45-20-3-.721-4.29,13.35-9.4,15-10,8.149-2.96,12.609-1.93,15-1,1.64.65,3.63,1.42,4,3,.8,3.48-6.75,8.99-14,11" transform="translate(0.00022 -0.00007)"/><path class="cls-4" d="M150.5172,141.4613c-1.661-.42-4.651-.16-10.08,4.48l-.21.18v-71.32h-115v71.68c-5.56-4.81-8.611-5.09-10.29-4.66-5.47,1.4-7.281,13.18-2.94,22.15,3.369,6.97,9.869,11.03,13.23,12.83v44.47h.679v.28q24.5235,19.5675,49.044,39.136a22.68471,22.68471,0,0,0,15.564.708q24.9615-19.92149,49.923-39.844v-45.22c3.41-1.86,9.719-5.89,13.019-12.72C157.7972,154.6413,155.98619,142.8613,150.5172,141.4613Zm-84.6,19.34c-.58,3.45-11.301,5.41-20,3-7.261-2.01-14.811-7.52-14-11,.359-1.58,2.35-2.35,4-3,2.38-.93,6.84-1.96,15,1C52.5572,151.4013,66.6262,156.5113,65.9172,160.80129Zm54,3c-8.711,2.41-19.431.45-20-3-.721-4.29,13.35-9.4,15-10,8.149-2.96,12.609-1.93,15-1,1.64.65,3.63,1.42,4,3C134.71719,156.2813,127.1672,161.7913,119.9172,163.80129Z" transform="translate(0.00022 -0.00007)"/><path class="cls-5" d="M134.93671,148.94139a14.13978,14.13978,0,0,0-7-4c-3.93-.827-7.008.594-11,2a90.258,90.258,0,0,1-16,4q-.4995-3.49949-1-7a35.61706,35.61706,0,0,0,13.92-.91c7.075-1.942,10.162-5.29,14.08-4.09,2.14.655,4.95,2.797,7,10" transform="translate(0.00022 -0.00007)"/><path class="cls-6" d="M134.93671,148.94139a14.13978,14.13978,0,0,0-7-4c-3.93-.827-7.008.594-11,2a90.258,90.258,0,0,1-16,4q-.4995-3.49949-1-7a35.61706,35.61706,0,0,0,13.92-.91c7.075-1.942,10.162-5.29,14.08-4.09C130.07671,139.5964,132.8867,141.7384,134.93671,148.94139Z" transform="translate(0.00022 -0.00007)"/><path class="cls-5" d="M31.0168,148.6582a14.13961,14.13961,0,0,1,7-4c3.93-.827,7.009.593,11,2a90.28112,90.28112,0,0,0,16,4q.501-3.4995,1-7a35.618,35.618,0,0,1-13.92-.91c-7.075-1.942-10.162-5.29-14.08-4.09-2.14.655-4.949,2.797-7,10" transform="translate(0.00022 -0.00007)"/><path class="cls-6" d="M31.0168,148.6582a14.13961,14.13961,0,0,1,7-4c3.93-.827,7.009.593,11,2a90.28112,90.28112,0,0,0,16,4q.501-3.4995,1-7a35.618,35.618,0,0,1-13.92-.91c-7.075-1.942-10.162-5.29-14.08-4.09C35.8768,139.3132,33.0678,141.4552,31.0168,148.6582Z" transform="translate(0.00022 -0.00007)"/><path class="cls-7" d="M65.9172,160.80129c-.58,3.45-11.301,5.41-20,3-7.261-2.01-14.811-7.52-14-11,.359-1.58,2.35-2.35,4-3,2.38-.93,6.84-1.96,15,1,1.64.6,15.709,5.71,15,10" transform="translate(0.00022 -0.00007)"/><path class="cls-6" d="M65.9172,160.80129c-.58,3.45-11.301,5.41-20,3-7.261-2.01-14.811-7.52-14-11,.359-1.58,2.35-2.35,4-3,2.38-.93,6.84-1.96,15,1C52.5572,151.4013,66.6262,156.5113,65.9172,160.80129Z" transform="translate(0.00022 -0.00007)"/><path class="cls-8" d="M59.4123,158.30419a6,6,0,1,1-6-6,6.00027,6.00027,0,0,1,6,6" transform="translate(0.00022 -0.00007)"/><circle class="cls-6" cx="53.41252" cy="158.30412" r="6"/><path class="cls-7" d="M119.9172,163.80129c-8.711,2.41-19.431.45-20-3-.721-4.29,13.35-9.4,15-10,8.149-2.96,12.609-1.93,15-1,1.64.65,3.63,1.42,4,3,.8,3.48-6.75,8.99-14,11" transform="translate(0.00022 -0.00007)"/><path class="cls-6" d="M119.9172,163.80129c-8.711,2.41-19.431.45-20-3-.721-4.29,13.35-9.4,15-10,8.149-2.96,12.609-1.93,15-1,1.64.65,3.63,1.42,4,3C134.71719,156.2813,127.1672,161.7913,119.9172,163.80129Z" transform="translate(0.00022 -0.00007)"/><path class="cls-8" d="M106.4123,158.30419a6,6,0,1,0,6-6,6.00027,6.00027,0,0,0-6,6" transform="translate(0.00022 -0.00007)"/><circle class="cls-6" cx="112.41252" cy="158.30412" r="6"/><path class="cls-5" d="M36.9367,71.94139c-1.575,1.86-3.974,4.65-7,8-3.245,3.591-4.13,4.416-5,6-1.266,2.304-2.563,6.329-1,13a60.90121,60.90121,0,0,1-20-27c-1.792-4.953-4.502-12.442-3-22,2.199-13.999,11.867-22.469,15-25q10.5,23.50052,21,47" transform="translate(0.00022 -0.00007)"/><path class="cls-6" d="M36.9367,71.94139c-1.575,1.86-3.974,4.65-7,8-3.245,3.591-4.13,4.416-5,6-1.266,2.304-2.563,6.329-1,13a60.90121,60.90121,0,0,1-20-27c-1.792-4.953-4.502-12.442-3-22,2.199-13.999,11.867-22.469,15-25Q26.4367,48.44191,36.9367,71.94139Z" transform="translate(0.00022 -0.00007)"/><path class="cls-5" d="M36.9367,71.94139a36.587,36.587,0,0,1-8-22c-.143-12.333,6.419-20.707,9-24,13.931-17.776,37.371-18.019,41-18a55.49423,55.49423,0,0,0-29-7c-18.481.806-32.516,11.245-40,21-2.638,3.438-8.321,10.846-6,17,1.666,4.417,6.531,5.741,11,8,6.734,3.405,15.047,10.186,22,25" transform="translate(0.00022 -0.00007)"/><path class="cls-6" d="M36.9367,71.94139a36.587,36.587,0,0,1-8-22c-.143-12.333,6.419-20.707,9-24,13.931-17.776,37.371-18.019,41-18a55.49423,55.49423,0,0,0-29-7c-18.481.806-32.516,11.245-40,21-2.638,3.438-8.321,10.846-6,17,1.666,4.417,6.531,5.741,11,8C21.6707,50.34641,29.9837,57.1274,36.9367,71.94139Z" transform="translate(0.00022 -0.00007)"/><path class="cls-5" d="M36.9367,71.94139c3.253-20.166,11.717-28.977,17-33,12.008-9.144,19.207-2.405,56-12,8.534-2.226,13.938-4.098,22-3,15.49,2.11,25.123,13.05,26,12,.831-.996-7.999-10.646-20-20-10.096-7.869-15.144-11.803-23-14-9.239-2.583-16.728-1.351-31,1a125.91566,125.91566,0,0,0-23,6,122.24864,122.24864,0,0,0-19,9c-5.006,2.916-7.559,4.426-10,7a31.55009,31.55009,0,0,0-8,17c-2.255,16.915,11.968,29.141,13,30" transform="translate(0.00022 -0.00007)"/><path class="cls-6" d="M36.9367,71.94139c3.253-20.166,11.717-28.977,17-33,12.008-9.144,19.207-2.405,56-12,8.534-2.226,13.938-4.098,22-3,15.49,2.11,25.123,13.05,26,12,.831-.996-7.999-10.646-20-20-10.096-7.869-15.144-11.803-23-14-9.239-2.583-16.728-1.351-31,1a125.91566,125.91566,0,0,0-23,6,122.24864,122.24864,0,0,0-19,9c-5.006,2.916-7.559,4.426-10,7a31.55009,31.55009,0,0,0-8,17C21.6817,58.8564,35.9047,71.0824,36.9367,71.94139Z" transform="translate(0.00022 -0.00007)"/><path class="cls-5" d="M39.9367,67.94139c-5.414-3.61-1.935-23.306,9-34,2.923-2.858,5.886-4.592,10-7a78.62773,78.62773,0,0,1,23-9c8.163-1.745,14.441-1.497,27-1,9.995.396,15.154.642,22,3a53.108,53.108,0,0,1,15,8,39.87994,39.87994,0,0,1,9,9c2.53,3.592,3.721,6.777,6,13a130.23592,130.23592,0,0,1,4,13c-4.234-1.585-10.483-3.967-18-7-23.502-9.483-25.531-11.661-33-13-14.34-2.57-26.341,1.968-37,6-23.981,9.07-32.022,22.32-37,19" transform="translate(0.00022 -0.00007)"/><path class="cls-6" d="M39.9367,67.94139c-5.414-3.61-1.935-23.306,9-34,2.923-2.858,5.886-4.592,10-7a78.62773,78.62773,0,0,1,23-9c8.163-1.745,14.441-1.497,27-1,9.995.396,15.154.642,22,3a53.108,53.108,0,0,1,15,8,39.87994,39.87994,0,0,1,9,9c2.53,3.592,3.721,6.777,6,13a130.23592,130.23592,0,0,1,4,13c-4.234-1.585-10.483-3.967-18-7-23.502-9.483-25.531-11.661-33-13-14.34-2.57-26.341,1.968-37,6C52.9557,58.0114,44.9147,71.2614,39.9367,67.94139Z" transform="translate(0.00022 -0.00007)"/><path class="cls-5" d="M58.9367,64.94139c22.051-9.712,33.548-7.772,40-4,3.307,1.933,7.566,5.68,16,9,6.655,2.621,10.905,3.005,15,4,6.89,1.674,16.402,5.819,27,17a74.96468,74.96468,0,0,0,1-17,64.17184,64.17184,0,0,0-6-25c-2.855-5.969-4.283-8.953-7-11-6.524-4.916-12.231-1.064-34-1-10.145.03-11.529-.799-19,0-5.936.635-7.84,1.455-18,3-12.491,1.899-12.149,1.045-15,2-14.646,4.907-23.148,27.287-19,31,1.494,1.338,5.699,1.21,19-8" transform="translate(0.00022 -0.00007)"/><path class="cls-6" d="M58.9367,64.94139c22.051-9.712,33.548-7.772,40-4,3.307,1.933,7.566,5.68,16,9,6.655,2.621,10.905,3.005,15,4,6.89,1.674,16.402,5.819,27,17a74.96468,74.96468,0,0,0,1-17,64.17184,64.17184,0,0,0-6-25c-2.855-5.969-4.283-8.953-7-11-6.524-4.916-12.231-1.064-34-1-10.145.03-11.529-.799-19,0-5.936.635-7.84,1.455-18,3-12.491,1.899-12.149,1.045-15,2-14.646,4.907-23.148,27.287-19,31C41.4307,74.2794,45.6357,74.1514,58.9367,64.94139Z" transform="translate(0.00022 -0.00007)"/><path class="cls-5" d="M65.9367,68.94139a183.55384,183.55384,0,0,1,35,26,198.90509,198.90509,0,0,1,27,32c5.251,7.498,9.227,14.104,12,19,7.371-10.911,9.365-20.427,10-26,.8-7.016-.134-13.011-2-25-2.093-13.444-3.139-20.166-5-24-7.729-15.927-26.605-23.638-41-25-6.387-.604-23.86-2.257-32,9a23.2717,23.2717,0,0,0-4,14" transform="translate(0.00022 -0.00007)"/><path class="cls-6" d="M65.9367,68.94139a183.55384,183.55384,0,0,1,35,26,198.90509,198.90509,0,0,1,27,32c5.251,7.498,9.227,14.104,12,19,7.371-10.911,9.365-20.427,10-26,.8-7.016-.134-13.011-2-25-2.093-13.444-3.139-20.166-5-24-7.729-15.927-26.605-23.638-41-25-6.387-.604-23.86-2.257-32,9A23.2717,23.2717,0,0,0,65.9367,68.94139Z" transform="translate(0.00022 -0.00007)"/><path class="cls-5" d="M22.9367,74.94139a77.515,77.515,0,0,0-6,23,88.46842,88.46842,0,0,0,2,28c1.531,7.091,2.31,6.926,3,12,1.879,13.818-2.709,23.783-2,24,.796.243,6.474-12.323,11-29a186.33865,186.33865,0,0,1,6-20c3.603-9.609,5.908-12.768,8-15,2.357-2.516,4.024-3.408,7-7,4.393-5.303,4.136-7.433,6-9,6.782-5.702,30.751,5.187,46,24,4.549,5.612,11.836,14.602,15,28,2.766,11.711,1.199,21.779,9,33,2.106,3.03,3.194,3.696,5,7,4.682,8.565,4.741,17.572,4,24,3.438-4.477,9.176-13.411,9-25-.077-5.108-1.273-8.748-3-14-4.716-14.349-9.638-16.01-15-31a116.08747,116.08747,0,0,1-4-14c-2.027-9.863-.934-12.451-3-17-1.599-3.52-3.475-4.661-16-13-18.6-12.383-21.589-14.611-29-18-5.896-2.696-8.84-4.053-13-5-3.284-.748-21.904-4.986-34,6a27.11867,27.11867,0,0,0-6,8" transform="translate(0.00022 -0.00007)"/><path class="cls-6" d="M22.9367,74.94139a77.515,77.515,0,0,0-6,23,88.46842,88.46842,0,0,0,2,28c1.531,7.091,2.31,6.926,3,12,1.879,13.818-2.709,23.783-2,24,.796.243,6.474-12.323,11-29a186.33865,186.33865,0,0,1,6-20c3.603-9.609,5.908-12.768,8-15,2.357-2.516,4.024-3.408,7-7,4.393-5.303,4.136-7.433,6-9,6.782-5.702,30.751,5.187,46,24,4.549,5.612,11.836,14.602,15,28,2.766,11.711,1.199,21.779,9,33,2.106,3.03,3.194,3.696,5,7,4.682,8.565,4.741,17.572,4,24,3.438-4.477,9.176-13.411,9-25-.077-5.108-1.273-8.748-3-14-4.716-14.349-9.638-16.01-15-31a116.08747,116.08747,0,0,1-4-14c-2.027-9.863-.934-12.451-3-17-1.599-3.52-3.475-4.661-16-13-18.6-12.383-21.589-14.611-29-18-5.896-2.696-8.84-4.053-13-5-3.284-.748-21.904-4.986-34,6A27.11867,27.11867,0,0,0,22.9367,74.94139Z" transform="translate(0.00022 -0.00007)"/><path class="cls-5" d="M52.9367,52.94139c-1.718.401-7.271,1.696-8,5-.602,2.731,2.383,5.524,4,7,5.439,4.967,11.055,5.628,19,8,8.887,2.652,13.642,4.072,19,7,7.24,3.957,11.73,8.565,18,15,7.456,7.652,11.482,11.348,14,17,2.2,4.938,1.04,5.314,4,15a138.20672,138.20672,0,0,0,7,18,117.61266,117.61266,0,0,0,9,17c5.019,7.679,6.979,8.342,9,12,3.023,5.473,4.661,14.898-3,32,12.05-15.437,13.612-27.271,13-35-1.1-13.875-9.266-15.21-18-41-4.352-12.849-4.087-17.722-10-28a86.80888,86.80888,0,0,0-15-19c-6.115-5.873-11.16-8.995-21-15-28.026-17.104-37.408-15.838-41-15" transform="translate(0.00022 -0.00007)"/><path class="cls-6" d="M52.9367,52.94139c-1.718.401-7.271,1.696-8,5-.602,2.731,2.383,5.524,4,7,5.439,4.967,11.055,5.628,19,8,8.887,2.652,13.642,4.072,19,7,7.24,3.957,11.73,8.565,18,15,7.456,7.652,11.482,11.348,14,17,2.2,4.938,1.04,5.314,4,15a138.20672,138.20672,0,0,0,7,18,117.61266,117.61266,0,0,0,9,17c5.019,7.679,6.979,8.342,9,12,3.023,5.473,4.661,14.898-3,32,12.05-15.437,13.612-27.271,13-35-1.1-13.875-9.266-15.21-18-41-4.352-12.849-4.087-17.722-10-28a86.80888,86.80888,0,0,0-15-19c-6.115-5.873-11.16-8.995-21-15C65.9107,50.8374,56.5287,52.10339,52.9367,52.94139Z" transform="translate(0.00022 -0.00007)"/><path class="cls-9" d="M87.1408,158.09619a86.93968,86.93968,0,0,0-1,22c.468,4.677.761,7.009,2,10,2.687,6.485,6.765,8.654,5.796,11.845-.317,1.042-.611.349-6,5a12.56729,12.56729,0,0,1-5.796,3.155,4.46391,4.46391,0,0,1-.483.074c-2.264.203-3.811-1.661-5.721-3.229-3.722-3.054-5.833-2.528-6-4-.209-1.844,3.121-2.533,5-6a11.21641,11.21641,0,0,0,1-7" transform="translate(0.00022 -0.00007)"/><path class="cls-6" d="M87.1408,158.09619a86.93968,86.93968,0,0,0-1,22c.468,4.677.761,7.009,2,10,2.687,6.485,6.765,8.654,5.796,11.845-.317,1.042-.611.349-6,5a12.56729,12.56729,0,0,1-5.796,3.155,4.46391,4.46391,0,0,1-.483.074c-2.264.203-3.811-1.661-5.721-3.229-3.722-3.054-5.833-2.528-6-4-.209-1.844,3.121-2.533,5-6a11.21641,11.21641,0,0,0,1-7" transform="translate(0.00022 -0.00007)"/></g></g></g></g></g></svg>