<svg xmlns="http://www.w3.org/2000/svg" width="185.31518" height="230.7012" viewBox="0 0 185.31518 230.7012"><defs><style>.cls-1{fill:#c08f6a;}.cls-1,.cls-2,.cls-3,.cls-4,.cls-5,.cls-6,.cls-7,.cls-8{stroke:#000;stroke-miterlimit:10;}.cls-1,.cls-2{stroke-width:2px;}.cls-2{fill:#743e26;}.cls-3{fill:#2f2025;}.cls-4{fill:#fff;}.cls-5{fill:#d3bb38;}.cls-7{fill:#8d6b27;}.cls-8{fill:#562c18;}</style></defs><g id="Layer_2" data-name="Layer 2"><g id="Layer_1-2" data-name="Layer 1"><path class="cls-1" d="M73.79645,147.31578c-.58,3.45-11.3,5.41-20,3-7.26-2.01-14.81006-7.52-14-11,.36011-1.58,2.3501-2.35,4-3,2.38-.93,6.84009-1.96,15,1C60.43647,137.91576,74.50641,143.0258,73.79645,147.31578Z"/><path class="cls-1" d="M79.47638,134.54576c-1.32983,1.33-2.66992,2.67005-4,4a82.092,82.092,0,0,1-10-3c-7.90991-2.94-10.81982-4.7-16-5a24.33561,24.33561,0,0,0-9.17993,1.27c1.6001-2.86,4.21-6.39,8-7,3.95-.63,6.92,2.29,11.17993,4.73C63.57648,131.8958,69.93647,134.40581,79.47638,134.54576Z"/><path class="cls-1" d="M137.73639,131.54576a19.63943,19.63943,0,0,0-6-1c-5.54992-.05-8.83984,2.34-16,5a81.51348,81.51348,0,0,1-10,3l-4-4c9.31006-.15,15.71009-2.57995,20-5,4.59009-2.59,8.18006-5.97,11.56006-4.73C135.83649,125.75579,137.07648,128.87578,137.73639,131.54576Z"/><path class="cls-1" d="M127.79645,150.31578c-8.71,2.41-19.42993.45-20-3-.72-4.29,13.3501-9.4,15-10,8.15-2.96,12.61011-1.93,15-1,1.64.65,3.63,1.42,4,3C142.5965,142.79576,135.04645,148.30577,127.79645,150.31578Z"/><polygon class="cls-1" points="148.316 116.656 148.316 132.456 148.107 132.636 148.107 116.486 148.316 116.656"/><path class="cls-1" d="M73.79645,147.31578c-.58,3.45-11.3,5.41-20,3-7.26-2.01-14.81006-7.52-14-11,.36011-1.58,2.3501-2.35,4-3,2.38-.93,6.84009-1.96,15,1C60.43647,137.91576,74.50641,143.0258,73.79645,147.31578Z"/><path class="cls-1" d="M79.47638,134.54576c-1.32983,1.33-2.66992,2.67005-4,4a82.092,82.092,0,0,1-10-3c-7.90991-2.94-10.81982-4.7-16-5a24.33561,24.33561,0,0,0-9.17993,1.27c1.6001-2.86,4.21-6.39,8-7,3.95-.63,6.92,2.29,11.17993,4.73C63.57648,131.8958,69.93647,134.40581,79.47638,134.54576Z"/><path class="cls-1" d="M137.73639,131.54576a19.63943,19.63943,0,0,0-6-1c-5.54992-.05-8.83984,2.34-16,5a81.51348,81.51348,0,0,1-10,3l-4-4c9.31006-.15,15.71009-2.57995,20-5,4.59009-2.59,8.18006-5.97,11.56006-4.73C135.83649,125.75579,137.07648,128.87578,137.73639,131.54576Z"/><path class="cls-1" d="M127.79645,150.31578c-8.71,2.41-19.42993.45-20-3-.72-4.29,13.3501-9.4,15-10,8.15-2.96,12.61011-1.93,15-1,1.64.65,3.63,1.42,4,3C142.5965,142.79576,135.04645,148.30577,127.79645,150.31578Z"/><path class="cls-2" d="M158.39655,121.135c-1.66016-.37689-4.65015-.14356-10.08008,4.02029l-.21.16152v-64.001h-115v64.32405c-5.56006-4.31638-8.61011-4.56762-10.29-4.18176-5.47,1.2563-7.28,11.82744-2.93994,19.87689,3.36987,6.25476,9.86987,9.89811,13.23,11.51338v39.90637h.67993v.2513l49.04407,35.11974a25.11774,25.11774,0,0,0,15.56335.63541L148.31647,193.006V152.4266c3.40991-1.66917,9.72-5.28557,13.02-11.41468C165.67646,132.96247,163.86652,122.39133,158.39655,121.135Zm-84.6001,17.35531c-.58,3.096-11.3,4.85479-20,2.69214-7.26-1.80374-14.81006-6.7483-14-9.87116.36011-1.41788,2.3501-2.10882,4-2.69214,2.38-.83455,6.84009-1.75888,15,.89738C60.43647,130.05492,74.50641,134.64056,73.79645,138.49029Zm54,2.69214c-8.71,2.16265-19.42993.40383-20-2.69214-.72-3.84973,13.3501-8.43537,15-8.97378,8.15-2.65626,12.61011-1.73193,15-.89738,1.64.58332,3.63,1.27426,4,2.69214C142.5965,134.43413,135.04645,139.37869,127.79645,141.18243Z"/><path class="cls-3" d="M143.625,124.2012a13.19474,13.19474,0,0,0-6-3c-4.84168-.93356-8.60865,1.56809-13.47583,3.63709a54.21016,54.21016,0,0,1-16,4q-.50007-3.5-1-7A45.761,45.761,0,0,0,123.625,120.2012c6.31384-1.86105,9.95691-4.5307,14-3C140.79708,118.40219,142.58785,121.5726,143.625,124.2012Z"/><path class="cls-3" d="M38.22969,126.55493a14.151,14.151,0,0,1,7-4c3.92969-.82693,7.00806.59354,11,2a90.21741,90.21741,0,0,0,16,4q.50007-3.5,1-7a35.60919,35.60919,0,0,1-13.91992-.91c-7.07556-1.94156-10.1626-5.2898-14.08008-4.09C43.09,117.21027,40.27974,119.3519,38.22969,126.55493Z"/><path class="cls-4" d="M127.12913,141.40177c-8.71,2.41-19.42993.45-20-3-.72-4.29,13.3501-9.4,15-10,8.15-2.96,12.61011-1.93,15-1,1.64.65,3.63,1.42,4,3C141.92918,133.88175,134.37913,139.39176,127.12913,141.40177Z"/><circle class="cls-5" cx="119.62496" cy="135.90469" r="6"/><circle class="cls-6" cx="119.76205" cy="136.13856" r="3.76613"/><path class="cls-6" d="M131.625,139.90469a34.973,34.973,0,0,0,6-4c2.68847-2.22305,4.1372-3.45483,4-5-.15577-1.75424-2.29749-3.25629-5-4a22.59379,22.59379,0,0,1,4,0,25.73838,25.73838,0,0,1,5,1c1.25561.35538,2.28064.72262,3,1a5.70088,5.70088,0,0,0-4,4c-.965,2.59647-3.53955,4.1301-5,5A14.54364,14.54364,0,0,1,131.625,139.90469Z"/><path class="cls-4" d="M54.75549,141.40177c8.71,2.41,19.42993.45,20-3,.72-4.29-13.3501-9.4-15-10-8.15-2.96-12.61011-1.93-15-1-1.64.65-3.63,1.42-4,3C39.95544,133.88175,47.50549,139.39176,54.75549,141.40177Z"/><circle class="cls-5" cx="62.25966" cy="135.90469" r="6"/><circle class="cls-6" cx="62.12256" cy="136.13856" r="3.76613"/><path class="cls-6" d="M50.25966,139.90469a34.973,34.973,0,0,1-6-4c-2.68848-2.22305-4.13721-3.45483-4-5,.15576-1.75424,2.29748-3.25629,5-4a22.59377,22.59377,0,0,0-4,0,25.73838,25.73838,0,0,0-5,1c-1.25562.35538-2.28064.72262-3,1a5.70088,5.70088,0,0,1,4,4c.965,2.59647,3.53955,4.1301,5,5A14.54362,14.54362,0,0,0,50.25966,139.90469Z"/><path class="cls-7" d="M91.99592,161.66894a10.51613,10.51613,0,1,0,10.51613,10.51613A10.51586,10.51586,0,0,0,91.99592,161.66894Zm0,18.201a7.68487,7.68487,0,1,1,7.68487-7.68487A7.68146,7.68146,0,0,1,91.99592,179.86994Z"/><path class="cls-8" d="M81.625,161.2012c-2.276.12769-4.29407,1.25385-5,3-1.1239,2.78009,1.50988,6.06467,4,7,1.44384.54236,1.83178-.08368,5,0,4.08361.10788,4.04638,1.164,7,1,3.38452-.18789,4.26477-1.62082,7-1,1.70153.38623,1.84729,1.05118,3,1,2.89441-.12851,5.94238-4.497,5-7-.61573-1.63531-2.40943-1.3432-5-3-4.4065-2.81817-5.86316-7.975-7-12a30.391,30.391,0,0,1-1-11"/><path class="cls-3" d="M.625,28.2012c-1.33667,7.72989,8.43444,14.28018,11,16,3.15673,2.11621,12.871,8.62824,20,4,6.16223-4.00058,6.51233-13.80527,4-20a18.821,18.821,0,0,0-8-9,18.02253,18.02253,0,0,0-7-2C13.082,16.62665,1.93392,20.6319.625,28.2012Z"/><path class="cls-3" d="M13.04166,12.704c-2.74656,7.34808,5.6408,15.59631,7.843,17.762,2.70969,2.66476,11.04824,10.86484,18.91172,7.6385,6.79709-2.78879,8.95883-12.35861,7.63851-18.91172A18.82093,18.82093,0,0,0,41.24214,8.86559a18.02264,18.02264,0,0,0-6.50787-3.26308C27.42858,3.63951,15.73122,5.50856,13.04166,12.704Z"/><path class="cls-3" d="M37.98677,3.06546C32.23519,8.4,36.03011,19.53467,37.02657,22.45819c1.78723,5.2435,6.83447,15.38165,13.474,15.3118,4.07068-.04282,8.18213-3.9147,13.12439-8.56879,1.27575-1.20138,2.7091-2.6965,3-3,3.29577-3.438,5.07617-5.29513,6-7,.63232-1.1669,2.48132-5.24844-1-13a10.3639,10.3639,0,0,1-1,8,9.45275,9.45275,0,0,1-3,3,47.34444,47.34444,0,0,0-2.7135-4.913A36.85053,36.85053,0,0,0,60.55953,6.452C54.91133,1.41977,43.61885-2.15826,37.98677,3.06546Z"/><path class="cls-3" d="M184.73763,28.37329a4.0168,4.0168,0,0,1-.02344,1.69055c-.76587,3.06-3.34265,4.71158-5.52136,6.61685a21.24133,21.24133,0,0,0-5.4552,7.6926,7.471,7.471,0,0,0-.11267,3.82791,8.04878,8.04878,0,0,0,4,5,8.49012,8.49012,0,0,1-7-1,8.04741,8.04741,0,0,1-3-4,20.028,20.028,0,0,1-2.75708.82517c-.82557.18356-7.17688,1.73932-11.13025-.65308-6.40967-3.87888-6.48255-13.8786-4-20a18.82086,18.82086,0,0,1,8-9,18.02246,18.02246,0,0,1,7-2C172.2806,16.79874,183.42867,20.804,184.73763,28.37329Z"/><path class="cls-3" d="M172.32091,12.87605c2.74656,7.34808-5.6408,15.59631-7.843,17.762-2.70969,2.66476-11.04824,10.86484-18.91172,7.63851-6.79709-2.7888-8.95883-12.35861-7.63851-18.91173a18.821,18.821,0,0,1,6.19278-10.32712,18.02268,18.02268,0,0,1,6.50787-3.26307C157.934,3.81158,169.63135,5.68063,172.32091,12.87605Z"/><path class="cls-3" d="M147.3758,3.23752c5.75153,5.33459,1.95665,16.46922.96021,19.39274-1.226,3.59726-4.99886,14.667-13.474,15.31181-7.32578.5574-13.55151-7.02513-15.31181-13.474a18.82088,18.82088,0,0,1,.90085-12.00785A18.02245,18.02245,0,0,1,124.803,6.62408C130.45128,1.59183,141.74371-1.9862,147.3758,3.23752Z"/><path class="cls-7" d="M140.9153,68.38644c-2.70375-.73776-6.31563-1.79477-10.526-3.23876-10.8411-3.71807-12.68841-5.55638-13.76477-7.28723a13.14466,13.14466,0,0,1-1.61938-8.09692c.5618-7.89324,6.88317-12.819,8.09692-13.76477,8.43011-6.56894,20.10778-5.53261,27.52953-1.61938,2.19374,1.15669,6.87388,3.62436,8.90661,8.90661a15.152,15.152,0,0,1,.80969,7.28723c-.96575,8.84261-8.85215,17.08554-17.00353,17.81322A13.70272,13.70272,0,0,1,140.9153,68.38644Z"/><path class="cls-7" d="M43.14374,65.97091c2.70375-.73776,6.31564-1.79478,10.526-3.23877,10.84109-3.71807,12.6884-5.55638,13.76476-7.28723A13.14467,13.14467,0,0,0,69.05389,47.348c-.56181-7.89324-6.88318-12.819-8.09692-13.76476-8.43011-6.56894-20.10778-5.53261-27.52953-1.61939-2.19374,1.15669-6.87389,3.62437-8.90662,8.90661a15.15224,15.15224,0,0,0-.80969,7.28723c.96576,8.84262,8.85215,17.08555,17.00353,17.81323A13.70465,13.70465,0,0,0,43.14374,65.97091Z"/><path class="cls-3" d="M50.625,80.2012c3.33923-.91116,7.8-2.21661,13-4,13.38916-4.59195,15.67065-6.86233,17-9a16.23419,16.23419,0,0,0,2-10c-.69385-9.74844-8.501-15.83194-10-17-10.4115-8.11288-24.83387-6.833-34-2-2.70935,1.42856-8.48951,4.47623-11,11a18.71327,18.71327,0,0,0-1,9c1.19275,10.921,10.93274,21.10129,21,22A16.9245,16.9245,0,0,0,50.625,80.2012Z"/><path class="cls-3" d="M135.60519,81.95824c-3.33923-.91116-7.8-2.21661-13-4-13.38916-4.59195-15.67066-6.86233-17-9a16.23412,16.23412,0,0,1-2-10c.69385-9.74844,8.501-15.83194,10-17,10.4115-8.11288,24.83386-6.833,34-2,2.70935,1.42856,8.4895,4.47623,11,11a18.7134,18.7134,0,0,1,1,9c-1.19275,10.921-10.93274,21.10129-21,22A16.9235,16.9235,0,0,1,135.60519,81.95824Z"/><path class="cls-3" d="M90.625,70.2012c-.45948,3.02652-1.549,10.80228-4,16-5.13941,10.89878-14.00684,8.76187-28,21-4.9784,4.354-13.9552,12.31-18,25-2.10083,6.59113-1.25183,9.39517-2.0055,14.42591a44.58472,44.58472,0,0,1-1.9945,7.57409c-2.2002,7.12-3.9917,12.91742-4,19-.00769,5.58841,1.49206,9.78284,3,14,3.77734,10.56433,7.65332,11.51575,7,16-1.09937,7.54547-12.64417,8.76865-13,15-.15027,2.63111,1.6864,6.293,10,11-11.33338-2.729-14.48413-6.15692-15-9-.85035-4.686,5.486-7.62579,6-15,.31164-4.471-1.7782-6.82574-5-13a117.77483,117.77483,0,0,1-10-30c-1.48926-8.24228-1.08289-14.49859-1-21,.22876-17.93918,4.7445-18.63458,4-32-.768-13.78567-5.703-15.39676-4-26,1.59985-9.96115,7.2832-16.80658,10-20a46.281,46.281,0,0,1,21-14c15.77026-4.99029,29.53869.45114,36,3a63.82707,63.82707,0,0,1,10,5A88.30125,88.30125,0,0,1,90.625,70.2012Z"/><path class="cls-3" d="M91.625,57.2012a56.18392,56.18392,0,0,1,0,18c-.84949,5.059-2.36292,9.39438,0,12,1.38549,1.52783,3.2611,1.56647,6,2,3.84814.6091,2.068.83707,15,5,13.83813,4.45462,14.56775,3.119,19,6a31.40575,31.40575,0,0,1,9,9c1.02429,1.57187,2.06494,3.497,6,15,1.95141,5.70432,2.92712,8.55646,3,9,1.78918,10.88223-5.57434,14.72464-5,27,.275,5.87848,1.98852,5.60132,2,12,.01635,9.13367-3.48352,11.11057-2,16,2.10083,6.924,10.14624,6.34363,13,13,1.34826,3.14493,1.81823,8.55951-4,18a20.634,20.634,0,0,0,10-11c.40112-1.07272,2.73083-7.5889,0-14-1.78211-4.18384-3.77747-3.76385-6-9a25.2764,25.2764,0,0,1-2-10c.04919-3.08993.68249-3.77664,1-7,.519-5.2706-.64356-8.82208-1-11-1.72583-10.5433,11.26892-14.38089,13-28,.81689-6.42676-2.01294-6.07461-5-24-1.69983-10.20035-.73511-10.02435-2-17-1.88929-10.41916-4.969-27.40335-18-36-6.24524-4.12-13.11731-5.21908-18-6-4.34986-.69571-9.63062-1.50033-16,0A35.52361,35.52361,0,0,0,91.625,57.2012Z"/></g></g></svg>