<svg xmlns="http://www.w3.org/2000/svg" xmlns:xlink="http://www.w3.org/1999/xlink" width="148.30051" height="209.35942" viewBox="0 0 148.30051 209.35942"><defs><style>.cls-1,.cls-4,.cls-6{fill:none;}.cls-2{clip-path:url(#clip-path);}.cls-3{fill:#754f3c;}.cls-4,.cls-6{stroke:#000;stroke-miterlimit:10;}.cls-4{stroke-width:2px;}.cls-5{fill:#22130b;}.cls-7{fill:#fff;}.cls-8{fill:#150d00;}.cls-9{fill:#471f13;}</style><clipPath id="clip-path" transform="translate(0.00004 0.00032)"><rect class="cls-1" width="148.3" height="209.35899"/></clipPath></defs><g id="Layer_2" data-name="Layer 2"><g id="Layer_1-2" data-name="Layer 1"><g id="default2"><g class="cls-2"><g class="cls-2"><path class="cls-3" d="M144.8806,116.9491c-3.37,6.97-9.87,11.03-13.23,12.83v44.83l-28.73,33.75h-57.45l-28.731-33.75h-.089v-44.47c-3.361-1.8-9.861-5.86-13.23-12.83-4.341-8.97-2.53-20.75,2.939-22.15,1.68-.43,4.731-.15,10.291,4.66v-71.68h115v71.32c5.56-4.81,8.61-5.09,10.29-4.66,5.469,1.4,7.28,13.18,2.94,22.15" transform="translate(0.00004 0.00032)"/><path class="cls-4" d="M144.8806,116.9491c-3.37,6.97-9.87,11.03-13.23,12.83v44.83l-28.73,33.75h-57.45l-28.731-33.75h-.089v-44.47c-3.361-1.8-9.861-5.86-13.23-12.83-4.341-8.97-2.53-20.75,2.939-22.15,1.68-.43,4.731-.15,10.291,4.66v-71.68h115v71.32c5.56-4.81,8.61-5.09,10.29-4.66C147.40959,96.1991,149.2206,107.9791,144.8806,116.9491Z" transform="translate(0.00004 0.00032)"/><path class="cls-5" d="M23.8357,98.639c1.604-2.867,4.211-6.395,8-7,3.955-.632,6.924,2.285,11.186,4.726,4.099,2.347,10.459,4.863,20,5q-2.001,1.9995-4,4a81.8121,81.8121,0,0,1-10-3c-7.908-2.942-10.821-4.7-16-5a24.49006,24.49006,0,0,0-9.186,1.274" transform="translate(0.00004 0.00032)"/><path class="cls-6" d="M23.8357,98.639c1.604-2.867,4.211-6.395,8-7,3.955-.632,6.924,2.285,11.186,4.726,4.099,2.347,10.459,4.863,20,5q-2.001,1.9995-4,4a81.8121,81.8121,0,0,1-10-3c-7.908-2.942-10.821-4.7-16-5A24.49006,24.49006,0,0,0,23.8357,98.639Z" transform="translate(0.00004 0.00032)"/><path class="cls-5" d="M121.279,98.36459c-.657-2.668-1.898-5.79-4.443-6.726-3.379-1.242-6.97,2.136-11.557,4.726-4.289,2.422-10.686,4.853-20,5q2.001,1.9995,4,4a81.73933,81.73933,0,0,0,10-3c7.158-2.663,10.448-5.053,16-5a19.93466,19.93466,0,0,1,6,1" transform="translate(0.00004 0.00032)"/><path class="cls-6" d="M121.279,98.36459c-.657-2.668-1.898-5.79-4.443-6.726-3.379-1.242-6.97,2.136-11.557,4.726-4.289,2.422-10.686,4.853-20,5q2.001,1.9995,4,4a81.73933,81.73933,0,0,0,10-3c7.158-2.663,10.448-5.053,16-5A19.93466,19.93466,0,0,1,121.279,98.36459Z" transform="translate(0.00004 0.00032)"/><path class="cls-7" d="M37.3357,117.139c8.706,2.409,19.427.445,20-3,.715-4.293-13.357-9.403-15-10-8.155-2.961-12.614-1.932-15-1-1.646.643-3.637,1.421-4,3-.801,3.482,6.741,8.992,14,11" transform="translate(0.00004 0.00032)"/><path class="cls-6" d="M37.3357,117.139c8.706,2.409,19.427.445,20-3,.715-4.293-13.357-9.403-15-10-8.155-2.961-12.614-1.932-15-1-1.646.643-3.637,1.421-4,3C22.5347,109.621,30.0767,115.131,37.3357,117.139Z" transform="translate(0.00004 0.00032)"/><path class="cls-8" d="M50.8357,111.639a6,6,0,1,1-6-6,6.0009,6.0009,0,0,1,6,6" transform="translate(0.00004 0.00032)"/><circle class="cls-6" cx="44.83574" cy="111.63931" r="6"/><path class="cls-7" d="M111.3357,117.139c-8.706,2.409-19.427.445-20-3-.715-4.293,13.357-9.403,15-10,8.155-2.961,12.614-1.932,15-1,1.646.643,3.637,1.421,4,3,.801,3.482-6.741,8.992-14,11" transform="translate(0.00004 0.00032)"/><path class="cls-6" d="M111.3357,117.139c-8.706,2.409-19.427.445-20-3-.715-4.293,13.357-9.403,15-10,8.155-2.961,12.614-1.932,15-1,1.646.643,3.637,1.421,4,3C126.1367,109.621,118.5947,115.131,111.3357,117.139Z" transform="translate(0.00004 0.00032)"/><path class="cls-8" d="M97.8357,111.639a6,6,0,1,0,6-6,6.0009,6.0009,0,0,0-6,6" transform="translate(0.00004 0.00032)"/><circle class="cls-6" cx="103.83574" cy="111.63931" r="6"/><path class="cls-5" d="M114.83559,159.63869c-1.91-2.46-5.189-2.46-9-3-7.51-1.06-8.91-3.05-16-5-14.74-4.06-29.55-1.23-36,0a97.03388,97.03388,0,0,0-22,7,39.66123,39.66123,0,0,0-1,9,50.24557,50.24557,0,0,0,2,13c1.86,7.38,3.561,13.78,5,19q4.005,4.5,8,9h57q4.005-4.5,8-9c1.04-7.259,2.16-13.03,3-17a118.95947,118.95947,0,0,0,2-15c.34-4.33.29-6.33-1-8m-3.662,10.512a94.02806,94.02806,0,0,1-1.758,12.436c-.74,3.292-1.729,8.077-2.642,14.091q-3.516,3.7305-7.041,7.461h-9.139a16.61353,16.61353,0,0,1-7.758-6.5,17.1301,17.1301,0,0,1-2.236-11.092,19.671,19.671,0,0,1,3.236-8.908,23.50532,23.50532,0,0,1-19,0,21.494,21.494,0,0,1,3,9,17.11062,17.11062,0,0,1-2,11,16.14034,16.14034,0,0,1-7.774,6.5h-8.526q-1.7565-1.8645-3.516-3.73-1.761-1.866-3.526-3.731c-1.258-4.332-2.766-9.632-4.399-15.746a39.0028,39.0028,0,0,1-1.758-10.781,31.06,31.06,0,0,1,.874-7.461,89.92875,89.92875,0,0,1,19.377-5.797c5.678-1.022,18.714-3.374,31.693,0,6.245,1.618,7.484,3.264,14.093,4.142,3.353.443,6.244.443,7.926,2.487,1.134,1.384,1.182,3.039.874,6.629" transform="translate(0.00004 0.00032)"/><path class="cls-6" d="M114.83559,159.63869c-1.91-2.46-5.189-2.46-9-3-7.51-1.06-8.91-3.05-16-5-14.74-4.06-29.55-1.23-36,0a97.03388,97.03388,0,0,0-22,7,39.66123,39.66123,0,0,0-1,9,50.24557,50.24557,0,0,0,2,13c1.86,7.38,3.561,13.78,5,19q4.005,4.5,8,9h57q4.005-4.5,8-9c1.04-7.259,2.16-13.03,3-17a118.95947,118.95947,0,0,0,2-15C116.1756,163.30869,116.1256,161.30869,114.83559,159.63869Zm-3.662,10.512a94.02806,94.02806,0,0,1-1.758,12.436c-.74,3.292-1.729,8.077-2.642,14.091q-3.516,3.7305-7.041,7.461h-9.139a16.61353,16.61353,0,0,1-7.758-6.5,17.1301,17.1301,0,0,1-2.236-11.092,19.671,19.671,0,0,1,3.236-8.908,23.50532,23.50532,0,0,1-19,0,21.494,21.494,0,0,1,3,9,17.11062,17.11062,0,0,1-2,11,16.14034,16.14034,0,0,1-7.774,6.5h-8.526q-1.7565-1.8645-3.516-3.73-1.761-1.866-3.526-3.731c-1.258-4.332-2.766-9.632-4.399-15.746a39.0028,39.0028,0,0,1-1.758-10.781,31.06,31.06,0,0,1,.874-7.461,89.92875,89.92875,0,0,1,19.377-5.797c5.678-1.022,18.714-3.374,31.693,0,6.245,1.618,7.484,3.264,14.093,4.142,3.353.443,6.244.443,7.926,2.487C111.43359,164.90569,111.4816,166.5607,111.1736,170.15069Z" transform="translate(0.00004 0.00032)"/><path class="cls-9" d="M61.3357,137.139c-3.659,2.453-4.162,4.033-4,5,.325,1.943,3.419,1.959,9,5,5.778,3.148,6.265,5.204,9,5,2.261-.168,2.401-1.444,8-5,4.835-3.071,6.74-3.349,7-5,.1-.632.164-2.781-5-6q-1.5765-6.774-3-14c-.924-4.711.198-8.061-2-11a11.52974,11.52974,0,0,0-7-4" transform="translate(0.00004 0.00032)"/><path class="cls-4" d="M61.3357,137.139c-3.659,2.453-4.162,4.033-4,5,.325,1.943,3.419,1.959,9,5,5.778,3.148,6.265,5.204,9,5,2.261-.168,2.401-1.444,8-5,4.835-3.071,6.74-3.349,7-5,.1-.632.164-2.781-5-6q-1.5765-6.774-3-14c-.924-4.711.198-8.061-2-11a11.52974,11.52974,0,0,0-7-4" transform="translate(0.00004 0.00032)"/><path class="cls-5" d="M18.3357,111.139c.49-.073-1.473-8.309.344-19.69.51-3.197,1.384-7.095,1.656-8.31,1.443-6.442,1.936-6.972,3-12,1.409-6.656.712-6.603,2-12,1.93-8.085,3.47-8.058,3-11-.854-5.343-7.275-5.505-11-13-3.5-7.042-.564-13.65-2-14-1.707-.416-7.395,8.548-8,19a115.41652,115.41652,0,0,0,2,21c1.006,5.784-.02,1.19,2,14,2.801,17.765,6.271,36.109,7,36" transform="translate(0.00004 0.00032)"/><path class="cls-4" d="M18.3357,111.139c.49-.073-1.473-8.309.344-19.69.51-3.197,1.384-7.095,1.656-8.31,1.443-6.442,1.936-6.972,3-12,1.409-6.656.712-6.603,2-12,1.93-8.085,3.47-8.058,3-11-.854-5.343-7.275-5.505-11-13-3.5-7.042-.564-13.65-2-14-1.707-.416-7.395,8.548-8,19a115.41652,115.41652,0,0,0,2,21c1.006,5.784-.02,1.19,2,14C14.1367,92.904,17.6067,111.248,18.3357,111.139Z" transform="translate(0.00004 0.00032)"/><path class="cls-5" d="M16.3357,28.139c8.328,9.978,7.145,9.793,10,12a33.77111,33.77111,0,0,0,9,5c7.348,2.636,12.555,1.118,23,0,14.633-1.565,12.068.595,26-1,8.306-.951,16.681-1.173,25-2,3.875-.385,6.58-.69,9,1,2.037,1.423,3.179,3.774,5,17,1.25,9.078,1.002,10.069,2,15,1.454,7.182,2.664,8.456,4,14,3.146,13.057.38,22.93,1,23,.69.078,4.254-12.106,4-27-.086-5.065-.572-7.994,0-14,.591-6.201,1.683-6.782,3-15,2.207-13.766.82-14.435,3-25,1.064-5.157,1.71-6.527,1-9-1.119-3.897-4.647-7.196-14-11-8.319-3.384-14.126-4.271-31-7-18.921-3.06-20.686-3.409-25-3-6.591.625-5.217,1.702-21,5-6.274,1.311-11.961,2.284-20,5a42.361,42.361,0,0,0-12,7c-2.382,1.967-4.044,3.803-4,6,.033,1.661,1.028,2.836,2,4" transform="translate(0.00004 0.00032)"/><path class="cls-4" d="M16.3357,28.139c8.328,9.978,7.145,9.793,10,12a33.77111,33.77111,0,0,0,9,5c7.348,2.636,12.555,1.118,23,0,14.633-1.565,12.068.595,26-1,8.306-.951,16.681-1.173,25-2,3.875-.385,6.58-.69,9,1,2.037,1.423,3.179,3.774,5,17,1.25,9.078,1.002,10.069,2,15,1.454,7.182,2.664,8.456,4,14,3.146,13.057.38,22.93,1,23,.69.078,4.254-12.106,4-27-.086-5.065-.572-7.994,0-14,.591-6.201,1.683-6.782,3-15,2.207-13.766.82-14.435,3-25,1.064-5.157,1.71-6.527,1-9-1.119-3.897-4.647-7.196-14-11-8.319-3.384-14.126-4.271-31-7-18.921-3.06-20.686-3.409-25-3-6.591.625-5.217,1.702-21,5-6.274,1.311-11.961,2.284-20,5a42.361,42.361,0,0,0-12,7c-2.382,1.967-4.044,3.803-4,6C14.3687,25.8,15.3637,26.975,16.3357,28.139Z" transform="translate(0.00004 0.00032)"/></g></g></g></g></g></svg>