<svg xmlns="http://www.w3.org/2000/svg" xmlns:xlink="http://www.w3.org/1999/xlink" width="151.60911" height="222.44797" viewBox="0 0 151.60911 222.44797"><defs><style>.cls-1,.cls-4,.cls-6{fill:none;}.cls-2{clip-path:url(#clip-path);}.cls-3{fill:#c7b24f;}.cls-4,.cls-6{stroke:#000;stroke-miterlimit:10;}.cls-4{stroke-width:2px;}.cls-5{fill:#cf9468;}.cls-7{fill:#ea9468;}.cls-8{fill:#fff;}.cls-9{fill:#150d00;}</style><clipPath id="clip-path" transform="translate(-0.00026 -0.00014)"><rect class="cls-1" width="151.60899" height="222.448"/></clipPath></defs><g id="Layer_2" data-name="Layer 2"><g id="Layer_1-2" data-name="Layer 1"><g id="default1"><g class="cls-2"><g class="cls-2"><path class="cls-3" d="M23.6445,131.228a228.29,228.29,0,0,1-13-31c-4.111-12.297-6.164-18.597-6-26,.085-3.808.619-7.626,1-19a92.4923,92.4923,0,0,0,0-11,58.601,58.601,0,0,0-4-17,46.81485,46.81485,0,0,0,17,1c10.311-1.334,16.826-5.872,20-3,2.21,2,1.36,6.29,1,8-4.776,22.683-7.165,34.024-12,46-4.37,10.824-8.176,27.516-4,52" transform="translate(-0.00026 -0.00014)"/><path class="cls-4" d="M23.6445,131.228a228.29,228.29,0,0,1-13-31c-4.111-12.297-6.164-18.597-6-26,.085-3.808.619-7.626,1-19a92.4923,92.4923,0,0,0,0-11,58.601,58.601,0,0,0-4-17,46.81485,46.81485,0,0,0,17,1c10.311-1.334,16.826-5.872,20-3,2.21,2,1.36,6.29,1,8-4.776,22.683-7.165,34.024-12,46C23.2745,90.052,19.4685,106.744,23.6445,131.228Z" transform="translate(-0.00026 -0.00014)"/><path class="cls-5" d="M148.1895,130.0381c-3.37,6.97-9.87,11.03-13.23,12.83v44.83l-28.73,33.75h-57.45l-28.731-33.75h-.089v-44.47c-3.361-1.8-9.861-5.86-13.23-12.83-4.341-8.97-2.53-20.75,2.939-22.15,1.68-.43,4.731-.15,10.291,4.66v-71.68h115v71.32c5.56-4.81,8.61-5.09,10.29-4.66,5.469,1.4,7.28,13.18,2.94,22.15" transform="translate(-0.00026 -0.00014)"/><path class="cls-4" d="M148.1895,130.0381c-3.37,6.97-9.87,11.03-13.23,12.83v44.83l-28.73,33.75h-57.45l-28.731-33.75h-.089v-44.47c-3.361-1.8-9.861-5.86-13.23-12.83-4.341-8.97-2.53-20.75,2.939-22.15,1.68-.43,4.731-.15,10.291,4.66v-71.68h115v71.32c5.56-4.81,8.61-5.09,10.29-4.66C150.71849,109.2881,152.5295,121.06811,148.1895,130.0381Z" transform="translate(-0.00026 -0.00014)"/><path class="cls-3" d="M30.3301,111.4536q3-5.5005,6-11a35.3708,35.3708,0,0,0,10,9,36.21481,36.21481,0,0,0,20,5l-4,4a81.798,81.798,0,0,1-10-3c-7.157-2.663-10.448-5.053-16-5a19.94037,19.94037,0,0,0-6,1" transform="translate(-0.00026 -0.00014)"/><path class="cls-6" d="M30.3301,111.4536q3-5.5005,6-11a35.3708,35.3708,0,0,0,10,9,36.21481,36.21481,0,0,0,20,5l-4,4a81.798,81.798,0,0,1-10-3c-7.157-2.663-10.448-5.053-16-5A19.94037,19.94037,0,0,0,30.3301,111.4536Z" transform="translate(-0.00026 -0.00014)"/><path class="cls-3" d="M124.5879,111.4536q-3-5.5005-6-11a35.37094,35.37094,0,0,1-10,9,36.21482,36.21482,0,0,1-20,5q2.001,1.9995,4,4a81.74292,81.74292,0,0,0,10-3c7.158-2.663,10.448-5.053,16-5a19.9405,19.9405,0,0,1,6,1" transform="translate(-0.00026 -0.00014)"/><path class="cls-6" d="M124.5879,111.4536q-3-5.5005-6-11a35.37094,35.37094,0,0,1-10,9,36.21482,36.21482,0,0,1-20,5q2.001,1.9995,4,4a81.74292,81.74292,0,0,0,10-3c7.158-2.663,10.448-5.053,16-5A19.9405,19.9405,0,0,1,124.5879,111.4536Z" transform="translate(-0.00026 -0.00014)"/><path class="cls-7" d="M57.6445,159.228c-2.451,4.016-4.998,9.291-3,12,1.002,1.358,2.575,1.295,6,2,9.79,2.014,9.677,5.151,15,5,5.748-.163,6.082-3.826,13-4,4.338-.109,5.848,1.29,8,0,3.037-1.821,4.051-7.018,3-11-1.521-5.767-6.966-7.467-11-11-4.749-4.158-9.408-12.489-8-31" transform="translate(-0.00026 -0.00014)"/><path class="cls-4" d="M57.6445,159.228c-2.451,4.016-4.998,9.291-3,12,1.002,1.358,2.575,1.295,6,2,9.79,2.014,9.677,5.151,15,5,5.748-.163,6.082-3.826,13-4,4.338-.109,5.848,1.29,8,0,3.037-1.821,4.051-7.018,3-11-1.521-5.767-6.966-7.467-11-11-4.749-4.158-9.408-12.489-8-31" transform="translate(-0.00026 -0.00014)"/><path class="cls-8" d="M40.6445,130.228c8.706,2.409,19.427.445,20-3,.715-4.293-13.357-9.403-15-10-8.155-2.961-12.614-1.932-15-1-1.646.643-3.637,1.421-4,3-.801,3.482,6.741,8.992,14,11" transform="translate(-0.00026 -0.00014)"/><path class="cls-6" d="M40.6445,130.228c8.706,2.409,19.427.445,20-3,.715-4.293-13.357-9.403-15-10-8.155-2.961-12.614-1.932-15-1-1.646.643-3.637,1.421-4,3C25.8435,122.71,33.3855,128.22,40.6445,130.228Z" transform="translate(-0.00026 -0.00014)"/><path class="cls-9" d="M54.1445,124.728a6,6,0,1,1-6-6,6.00091,6.00091,0,0,1,6,6" transform="translate(-0.00026 -0.00014)"/><circle class="cls-6" cx="48.14424" cy="124.72786" r="6"/><path class="cls-8" d="M114.6445,130.228c-8.706,2.409-19.427.445-20-3-.715-4.293,13.357-9.403,15-10,8.155-2.961,12.614-1.932,15-1,1.646.643,3.637,1.421,4,3,.801,3.482-6.741,8.992-14,11" transform="translate(-0.00026 -0.00014)"/><path class="cls-6" d="M114.6445,130.228c-8.706,2.409-19.427.445-20-3-.715-4.293,13.357-9.403,15-10,8.155-2.961,12.614-1.932,15-1,1.646.643,3.637,1.421,4,3C129.4455,122.71,121.9035,128.22,114.6445,130.228Z" transform="translate(-0.00026 -0.00014)"/><path class="cls-9" d="M101.1445,124.728a6,6,0,1,0,6-6,6.00091,6.00091,0,0,0-6,6" transform="translate(-0.00026 -0.00014)"/><circle class="cls-6" cx="107.14424" cy="124.72786" r="6"/><path class="cls-3" d="M137.6445,30.228c-.529-9.822-8.253-19.313-17-23-10.021-4.224-15.587,1.616-39,0-8.885-.613-9.462-1.549-14-1-11.838,1.433-26.596,9.079-28,18-2.551,16.207,37.109,47.888,69,38,13.209-4.095,29.82-16.79,29-32" transform="translate(-0.00026 -0.00014)"/><path class="cls-4" d="M137.6445,30.228c-.529-9.822-8.253-19.313-17-23-10.021-4.224-15.587,1.616-39,0-8.885-.613-9.462-1.549-14-1-11.838,1.433-26.596,9.079-28,18-2.551,16.207,37.109,47.888,69,38C121.8535,58.133,138.46449,45.438,137.6445,30.228Z" transform="translate(-0.00026 -0.00014)"/><path class="cls-3" d="M84.6445,39.228c1.939,6.708,5.169,9.061,7,10,3.646,1.87,4.875-.26,15,0,6.541.168,9.789,1.153,14-1a15.03459,15.03459,0,0,0,4-3,12.74755,12.74755,0,0,1-10,10q4.0005.4995,8,1a17.77428,17.77428,0,0,0,7-7,26.51133,26.51133,0,0,0,2-6c.307.064-1.495,6.956-1,15,.506,8.219,2.863,8.688,4,18,.747,6.118-.455,4.405,0,17,.208,5.754.604,10.104.325,17.388-.091,2.369-.224,4.318-.325,5.612.869-2.459,2.243-6.301,4-11,4.138-11.067,4.558-11.275,5-14,.903-5.566-.72-5.98-1-18-.15-6.443.234-6.005,0-12-.399-10.222-1.446-9.686-1-15,.383-4.563,1.337-7.13,0-11a11.72481,11.72481,0,0,0-3-5c-4.576-3.955-13.496-.573-18,1a169.603,169.603,0,0,1-36,8" transform="translate(-0.00026 -0.00014)"/><path class="cls-4" d="M84.6445,39.228c1.939,6.708,5.169,9.061,7,10,3.646,1.87,4.875-.26,15,0,6.541.168,9.789,1.153,14-1a15.03459,15.03459,0,0,0,4-3,12.74755,12.74755,0,0,1-10,10q4.0005.4995,8,1a17.77428,17.77428,0,0,0,7-7,26.51133,26.51133,0,0,0,2-6c.307.064-1.495,6.956-1,15,.506,8.219,2.863,8.688,4,18,.747,6.118-.455,4.405,0,17,.208,5.754.604,10.104.325,17.388-.091,2.369-.224,4.318-.325,5.612.869-2.459,2.243-6.301,4-11,4.138-11.067,4.558-11.275,5-14,.903-5.566-.72-5.98-1-18-.15-6.443.234-6.005,0-12-.399-10.222-1.446-9.686-1-15,.383-4.563,1.337-7.13,0-11a11.72481,11.72481,0,0,0-3-5c-4.576-3.955-13.496-.573-18,1A169.603,169.603,0,0,1,84.6445,39.228Z" transform="translate(-0.00026 -0.00014)"/><path class="cls-3" d="M62.2305,44.51711q-3.1275,4.296-6.256,8.594a12.923,12.923,0,0,1,8.777-1.988c5.733.958,10.5,6.528,11.336,13.838a18.67953,18.67953,0,0,0,8.871-6.11c2.555-3.288,3.196-6.626,3.864-10.103.783-4.077.792-7.759.808-14.537.01-3.652-.102-5.814,1.16-8.465a16.69215,16.69215,0,0,1,3.993-5.006c-.153-.2-7.647,5.151-32.553,23.777" transform="translate(-0.00026 -0.00014)"/><path class="cls-4" d="M62.2305,44.51711q-3.1275,4.296-6.256,8.594a12.923,12.923,0,0,1,8.777-1.988c5.733.958,10.5,6.528,11.336,13.838a18.67953,18.67953,0,0,0,8.871-6.11c2.555-3.288,3.196-6.626,3.864-10.103.783-4.077.792-7.759.808-14.537.01-3.652-.102-5.814,1.16-8.465a16.69215,16.69215,0,0,1,3.993-5.006C94.6305,20.54012,87.1365,25.89111,62.2305,44.51711Z" transform="translate(-0.00026 -0.00014)"/><path class="cls-3" d="M65.6445,4.228a48.50324,48.50324,0,0,0-19,4c-8.533,3.761-11.275,8.113-18,9-4.101.541-10.088-.153-18-6a22.97035,22.97035,0,0,0,5,11c7.562,8.913,19.665,8.147,22,8,11.418-.722,21.816-8.166,26-18a26.71711,26.71711,0,0,0,2-8" transform="translate(-0.00026 -0.00014)"/><path class="cls-4" d="M65.6445,4.228a48.50324,48.50324,0,0,0-19,4c-8.533,3.761-11.275,8.113-18,9-4.101.541-10.088-.153-18-6a22.97035,22.97035,0,0,0,5,11c7.562,8.913,19.665,8.147,22,8,11.418-.722,21.816-8.166,26-18A26.71711,26.71711,0,0,0,65.6445,4.228Z" transform="translate(-0.00026 -0.00014)"/><path class="cls-3" d="M54.6445,19.228a29.41453,29.41453,0,0,0-18-1c-8.354,2.338-13.019,8.09-17,13a58.73512,58.73512,0,0,0-12,27c9.583-2.967,17.515-4.838,23-6,11.377-2.41,15.565-2.478,22-6,3.722-2.037,9.956-5.557,14-13a30.89328,30.89328,0,0,0,3-20l-15,6" transform="translate(-0.00026 -0.00014)"/><path class="cls-4" d="M54.6445,19.228a29.41453,29.41453,0,0,0-18-1c-8.354,2.338-13.019,8.09-17,13a58.73512,58.73512,0,0,0-12,27c9.583-2.967,17.515-4.838,23-6,11.377-2.41,15.565-2.478,22-6,3.722-2.037,9.956-5.557,14-13a30.89328,30.89328,0,0,0,3-20Z" transform="translate(-0.00026 -0.00014)"/><path class="cls-3" d="M72.1445,36.728c.157,15.443-4.093,21.407-8,24-5.178,3.437-10.559,1.487-23,5a75.935,75.935,0,0,0-13,5q-7.9995-1.9995-16-4a22.59139,22.59139,0,0,1,5-9c3.607-3.895,6.767-4.255,14-9,4.354-2.856,3.81-3.119,8-6,9.266-6.37,13.442-6.125,19-10,3.771-2.63,8.59-7.443,12-17l10,10q-4.0005,5.5005-8,11" transform="translate(-0.00026 -0.00014)"/><path class="cls-4" d="M72.1445,36.728c.157,15.443-4.093,21.407-8,24-5.178,3.437-10.559,1.487-23,5a75.935,75.935,0,0,0-13,5q-7.9995-1.9995-16-4a22.59139,22.59139,0,0,1,5-9c3.607-3.895,6.767-4.255,14-9,4.354-2.856,3.81-3.119,8-6,9.266-6.37,13.442-6.125,19-10,3.771-2.63,8.59-7.443,12-17l10,10Q76.144,31.2285,72.1445,36.728Z" transform="translate(-0.00026 -0.00014)"/><path class="cls-3" d="M73.6445,1.228c5.077.782,6.596,1.674,9,2,5.043.684,6.258-2.172,9-1,3.375,1.443,5.584,7.503,4,12-1.881,5.338-8.006,5.353-16,11a43.62162,43.62162,0,0,0-12,13c4.948-10.598,5.039-18.506,4-24-.89-4.708-3.328-11.445-1-13,.425-.284.901-.323,3,0" transform="translate(-0.00026 -0.00014)"/><path class="cls-4" d="M73.6445,1.228c5.077.782,6.596,1.674,9,2,5.043.684,6.258-2.172,9-1,3.375,1.443,5.584,7.503,4,12-1.881,5.338-8.006,5.353-16,11a43.62162,43.62162,0,0,0-12,13c4.948-10.598,5.039-18.506,4-24-.89-4.708-3.328-11.445-1-13C71.0695.944,71.54549.905,73.6445,1.228Z" transform="translate(-0.00026 -0.00014)"/><path class="cls-3" d="M79.6445,50.228a10.56429,10.56429,0,0,1,4,3c3.308,4.075,2.179,9.242,2,10,6.509-2.293,9.486-5.575,11-8,4.534-7.264.838-14.692,6-21a16.01267,16.01267,0,0,1,8-5" transform="translate(-0.00026 -0.00014)"/><path class="cls-4" d="M79.6445,50.228a10.56429,10.56429,0,0,1,4,3c3.308,4.075,2.179,9.242,2,10,6.509-2.293,9.486-5.575,11-8,4.534-7.264.838-14.692,6-21a16.01267,16.01267,0,0,1,8-5" transform="translate(-0.00026 -0.00014)"/><path class="cls-3" d="M90.0547,24.35739c-.081-1.05-.406-6.308,1.414-9.38,3.44-5.807,16.037-6.346,24.159-1.155,2.031,1.297,6.583,4.206,6.468,8.011-.133,4.391-6.391,6.759-17.992,13.277-7.852,4.412-14.098,8.447-18.334,11.307,5.369-9.584,5.746-14.95,4.971-18.119a21.62962,21.62962,0,0,1-.686-3.941" transform="translate(-0.00026 -0.00014)"/><path class="cls-4" d="M90.0547,24.35739c-.081-1.05-.406-6.308,1.414-9.38,3.44-5.807,16.037-6.346,24.159-1.155,2.031,1.297,6.583,4.206,6.468,8.011-.133,4.391-6.391,6.759-17.992,13.277-7.852,4.412-14.098,8.447-18.334,11.307,5.369-9.584,5.746-14.95,4.971-18.119A21.62962,21.62962,0,0,1,90.0547,24.35739Z" transform="translate(-0.00026 -0.00014)"/></g></g></g></g></g></svg>