<svg xmlns="http://www.w3.org/2000/svg" width="148.30035" height="203.51998" viewBox="0 0 148.30035 203.51998"><defs><style>.cls-1,.cls-2,.cls-3,.cls-4,.cls-5,.cls-6{stroke:#000;stroke-miterlimit:10;}.cls-1,.cls-2,.cls-6{stroke-width:2px;}.cls-2{fill:#f7b778;}.cls-4{fill:#fff;}.cls-5{fill:#150d00;}.cls-6{fill:#eaab63;}</style></defs><g id="Layer_2" data-name="Layer 2"><g id="Layer_1-2" data-name="Layer 1"><path class="cls-1" d="M4.58551,84.3242c6.65991,21.45529,7.54174,35.73465,7,45-.38684,6.61591-1.5951,12.31149-1,23,.36132,6.48963,1.1372,10.32645,0,16a36.49343,36.49343,0,0,1-7,15,31.7478,31.7478,0,0,0,14-3c6.78271-3.26495,10.085-8.13214,15-14,1.356-1.6188,11.09594-13.17337,19-19,15.03393-11.08252,39.981-13.64667,53-3,4.78027,3.90918,4.02075,6.38416,11,16a104.57112,104.57112,0,0,0,23,23,63.77949,63.77949,0,0,1-7-23c-1.55042-15.42306,3.40539-26.6394,6-35,4.0111-12.925,6.5039-32.31619-1-60Q70.58551,74.82423,4.58551,84.3242Z"/><path class="cls-2" d="M144.88016,111.11c-3.37,6.97-9.87,11.03-13.23,12.83v44.83l-28.73,33.75h-57.45l-28.73-33.75h-.09008V124.3c-3.36-1.8-9.86-5.86-13.23-12.83-4.34009-8.97-2.53-20.75,2.93994-22.15,1.68005-.43,4.73-.15,10.29,4.66V22.3h115V93.62c5.56-4.81,8.61-5.09,10.29-4.66C147.41019,90.36,149.22024,102.14,144.88016,111.11Z"/><path class="cls-3" d="M22.60924,91.8242a12.79738,12.79738,0,0,1,3-4,12.93973,12.93973,0,0,1,6-3q-.50007,1-1,2,11.18171,2.618,23,6,5.09088,1.466,10,3-1.97589,1.85079-3.95166,3.7016a81.83034,81.83034,0,0,1-10-3c-7.943-2.95511-10.82483-4.30075-16-5A35.34391,35.34391,0,0,0,22.60924,91.8242Z"/><path class="cls-3" d="M125.69111,92.17723a12.79722,12.79722,0,0,0-3-4,12.93983,12.93983,0,0,0-6-3q.50007,1,1,2-11.18171,2.61806-23,6-5.09088,1.466-10,3,1.97589,1.85079,3.95166,3.7016a81.82854,81.82854,0,0,0,10-3c7.943-2.95511,10.82483-4.30075,16-5A35.34453,35.34453,0,0,1,125.69111,92.17723Z"/><path class="cls-4" d="M42.27462,107.52712c7.54491,1.80146,16.83506.33269,17.33183-2.24341.61916-3.21056-11.57553-7.032-12.99887-7.478-7.06708-2.21466-10.9313-1.4449-12.99887-.7478-1.42609.48082-3.15155,1.06253-3.46636,2.24341C29.44808,101.90515,35.98443,106.02526,42.27462,107.52712Z"/><ellipse class="cls-5" cx="48.77406" cy="103.4142" rx="5.19955" ry="4.48683"/><path class="cls-4" d="M106.40237,107.52712c-7.54491,1.80146-16.83505.33269-17.33182-2.24341-.61916-3.21056,11.57553-7.032,12.99887-7.478,7.06707-2.21466,10.9313-1.4449,12.99886-.7478,1.42609.48082,3.15155,1.06253,3.46637,2.24341C119.22892,101.90515,112.69256,106.02526,106.40237,107.52712Z"/><ellipse class="cls-5" cx="99.90294" cy="103.4142" rx="5.19955" ry="4.48683"/><path class="cls-1" d="M75.58551,147.3242c-3.38514-.10617-14.44715-.45315-22,8a24.99518,24.99518,0,0,0-6,14,48.12123,48.12123,0,0,1,8-5,49.44647,49.44647,0,0,1,20.2937-5.04181,54.64686,54.64686,0,0,1,18.7063,5.04181,53.51206,53.51206,0,0,1,7,4,24.08456,24.08456,0,0,0-5-12C89.68072,147.76631,78.89788,147.42811,75.58551,147.3242Z"/><path class="cls-6" d="M66.58551,139.3242q-1.5,2.5-3,5a5.86956,5.86956,0,0,0,2,2c1.365.79852,2.18518.4473,4,1,2.618.79733,2.52954,2.02118,4,2,2.06347-.02969,2.33374-2.44128,5-3,2.00524-.42019,2.90527.72318,4,0,1.568-1.0358,1.10131-4.29278,1-5-.49207-3.434-2.26282-4.93942-4-8-1.29078-2.274-1.86048-4.516-3-9a66.116,66.116,0,0,1-2-17"/><path class="cls-1" d="M72.58551,40.3242c-1.70874-2.00326-7.255-7.97149-16-9a23.99291,23.99291,0,0,0-10,1,32.6949,32.6949,0,0,0-13,8,34.50487,34.50487,0,0,0-7,9,35.83237,35.83237,0,0,0-4,17,36.262,36.262,0,0,0,1,8,28.63226,28.63226,0,0,0-4,6,29.51558,29.51558,0,0,0-3,14,17.37255,17.37255,0,0,0-12-6,193.75468,193.75468,0,0,1-1-36,97.2292,97.2292,0,0,1,2-15c2.13781-9.74771,3.80066-17.32968,10-24,6.00964-6.46631,13.22534-8.78634,17-10,7.58984-2.44034,13.78906-2.20111,19-2a72.35849,72.35849,0,0,1,21,4Z"/><path class="cls-1" d="M74.58551,40.3242c1.656-1.99692,7.19336-8.147,16-9.20587a23.81333,23.81333,0,0,1,10,1,32.69506,32.69506,0,0,1,13,8,34.50508,34.50508,0,0,1,7,9,35.83249,35.83249,0,0,1,4,17,36.26322,36.26322,0,0,1-1,8,28.63238,28.63238,0,0,1,4,6,29.51581,29.51581,0,0,1,3,14,17.37255,17.37255,0,0,1,12-6,193.75556,193.75556,0,0,0,1-36,97.23026,97.23026,0,0,0-2-15c-2.13782-9.74771-3.80066-17.32968-10-24-6.00965-6.46631-13.22535-8.78635-17-10-7.58985-2.44034-13.78907-2.20111-19-2a72.35849,72.35849,0,0,0-21,4Z"/><path class="cls-1" d="M77.45648,202.3242h25.129q14.49993-17,29-34-.50007-36-1-72a23.72671,23.72671,0,0,0-4,6c-2.3479,5.07746-2.22986,9.71671-2,16,.19043,5.20474.84973,7.15491,1,15,.04443,2.32205.06677,3.4831,0,4-.49707,3.85089-3.67151,7.61966-10,15-3.308,3.85785-4.5774,5.27588-7,6a11.11292,11.11292,0,0,1-6,0,27.27612,27.27612,0,0,1,1,6,30.66382,30.66382,0,0,1-2,12,23.59276,23.59276,0,0,1-4,8c-1.97413,2.46222-4.04322,5.04294-7,5-3.59485-.05221-6.1095-4.40533-7-7-2.00733-5.84884,1.45031-11.18106,2-12a25.76941,25.76941,0,0,1-20,0,59.87958,59.87958,0,0,1,7,12A60.25534,60.25534,0,0,1,77.45648,202.3242Z"/><path class="cls-1" d="M81.58551,202.3242h-34.92q-14.49993-17-29-34,.50007-36,1-72a23.727,23.727,0,0,1,4,6c2.3479,5.07746,2.22986,9.71671,2,16-.19043,5.20474-.84973,7.15491-1,15-.04443,2.32205-.06677,3.4831,0,4,.49707,3.85089,3.67151,7.61966,10,15,2.97986,3.4751,4.29834,5.27509,7,6a9.97942,9.97942,0,0,0,4.92,0c-.05042,1.48752-.068,3.54914.08,6a43.87376,43.87376,0,0,0,2,12,23.59276,23.59276,0,0,0,4,8c1.69251,2.111,3.71228,4.48282,7,5a10.01825,10.01825,0,0,0,9.92-5c2.72058-4.77991.16772-9.69058,0-10Q75.08557,188.32423,81.58551,202.3242Z"/></g></g></svg>