<svg xmlns="http://www.w3.org/2000/svg" width="563" height="703.55148" viewBox="0 0 563 703.55148"><defs><style>.cls-1{fill:#327ed6;}.cls-2{fill:#1a1a1a;}.cls-3{fill:#e09f07;}.cls-4{fill:#b7b7b7;}.cls-5{fill:#29abe2;}.cls-6{fill:#1b1464;}.cls-7{fill:gray;}</style></defs><g id="Layer_2" data-name="Layer 2"><g id="Layer_1-2" data-name="Layer 1"><path class="cls-1" d="M551.88293,605.03839v54.04483H21.59093A21.58752,21.58752,0,0,1,0,637.49228V493.27217a21.58748,21.58748,0,0,1,21.59093-21.59093H438.97329a20.76529,20.76529,0,0,1,3.93859.36525,15.11915,15.11915,0,0,1,3.35892-.36525H458.976a15.87414,15.87414,0,0,1,11.33148,26.99859,1.34007,1.34007,0,0,1-.10323.11118,15.835,15.835,0,0,1-9.6401,4.57384,14.9766,14.9766,0,0,1-1.58815.07944H447.06488v61.93794H464.749c13.30078-.10324,43.18972,1.65959,69.66429,22.23413A101.08045,101.08045,0,0,1,551.88293,605.03839Z"/><path class="cls-1" d="M460.56417,503.36485v62.01738H447.06488V503.44429H458.976A14.9766,14.9766,0,0,0,460.56417,503.36485Z"/><rect class="cls-2" x="447.06488" y="503.44429" width="13.49929" height="61.93794"/><rect class="cls-2" x="418.47814" y="503.44429" width="19.05783" height="150.87447"/><rect class="cls-2" x="392.27362" y="503.44429" width="19.05783" height="150.87447"/><rect class="cls-2" x="3.97039" y="565.35612" width="386.71493" height="7.17252"/><rect class="cls-2" x="324.77715" y="503.44429" width="54.79126" height="57.96756"/><rect class="cls-2" x="201.69535" y="503.44429" width="54.79126" height="57.96756"/><rect class="cls-2" x="262.83921" y="503.44429" width="54.79126" height="57.96756"/><rect class="cls-2" x="138.96333" y="503.44429" width="54.79126" height="57.96756"/><rect class="cls-2" x="15.88152" y="503.44429" width="54.79126" height="57.96756"/><rect class="cls-2" x="77.02539" y="503.44429" width="54.79126" height="57.96756"/><circle class="cls-2" cx="498.28279" cy="659.48025" r="44.07123"/><circle class="cls-2" cx="312.46897" cy="658.68618" r="44.07123"/><circle class="cls-2" cx="95.68618" cy="658.68618" r="44.07123"/><circle class="cls-3" cx="497.98181" cy="659.79404" r="31.05222"/><circle class="cls-3" cx="95.69899" cy="658.51968" r="31.05222"/><circle class="cls-3" cx="312.48178" cy="659.31375" r="31.05222"/><path class="cls-2" d="M475.65162,488.35684a15.79764,15.79764,0,0,1-4.55,11.11707h-15.6989a10.72,10.72,0,1,1,0-21.44006h16.42939A15.80716,15.80716,0,0,1,475.65162,488.35684Z"/><path class="cls-4" d="M338.65267,132.21368c0,18.68209-4.613,32.15844-26.87849,79.91981-26.68036,57.23155-50.32535,104.45974-68.01361,138.84817H169.11741c-17.68826-34.38843-41.33326-81.61662-68.01362-138.84817C78.83826,164.37212,74.2253,150.89577,74.2253,132.21368a132.21368,132.21368,0,0,1,264.42737,0Z"/><path class="cls-1" d="M338.33889,132.21368a83.24321,83.24321,0,0,1-.64741,10.82033,46.03307,46.03307,0,0,0-28.61815,7.04638c-15.56649,10.0738-19.20817,26.23811-19.8519,29.38082a92.2355,92.2355,0,0,0-164.37377,5.55854c-.333-3.04923-2.54294-20.59127-18.26375-32.55713A47.924,47.924,0,0,0,74.559,143.034a88.07833,88.07833,0,0,1-.64742-10.82033,132.21368,132.21368,0,0,1,264.42736,0Z"/><path class="cls-1" d="M281.69641,276.4682q-4.738,9.5178-9.47608,19.03556A233.47812,233.47812,0,0,1,142.651,297.59138q-5.03651-10.13723-10.0731-20.27448a343.85946,343.85946,0,0,0,74.8537,7.75644A343.858,343.858,0,0,0,281.69641,276.4682Z"/><path class="cls-5" d="M187.57968,419.27221h39.70381c3.62946-2.83185,4.59085-5.33558,4.76445-7.14668.19416-2.02617-.60244-3.13649,0-5.55853.76209-3.06391,2.77646-4.26065,2.38223-4.76446-.55145-.70485-5.16673.77832-6.35261,3.97038-.75,2.01878.165,3.93149,0,3.97038-.23613.05566-2.46569-3.776-1.58815-7.94076.62784-2.97982,2.21686-3.14284,3.1763-6.35261,1.31141-4.38724-.26181-8.75141-.79407-8.73484-.41827.013-.05913,2.72668-1.58815,6.35261-.86668,2.05535-2.95113,5.85292-4.76446,5.55853-1.25015-.203-1.8711-2.26956-2.38223-3.97038a11.85034,11.85034,0,0,1,0-7.94076c1.30559-3.22,3.30639-2.98052,3.97038-5.55853,1.005-3.902-2.6233-8.16027-3.1763-7.94076-.47691.18928,1.57952,3.61061,0,6.35261-1.17377,2.03755-4.13992,3.32616-5.55854,2.38222-1.42307-.94689-.93569-3.90526-.79407-4.76445.59158-3.5905,2.63667-4.18642,3.1763-7.14669.65149-3.57414-1.49907-7.26206-2.38223-7.14668-.81908.107.04789,3.408-1.58815,7.94076-2.0639,5.71833-5.58344,6.39288-5.55853,10.323.02084,3.2917,2.50116,4.61246,1.58815,6.35261-1.01266,1.93015-5.31765,2.6943-7.14669.79407-1.74566-1.81366-.43474-5.22222,0-6.35261,1.39-3.61407,4.2323-5.2024,3.97039-5.55853-.28014-.381-3.98415.8225-6.35261,3.97038-2.17741,2.894-3.53671,7.84432-1.58816,11.11707.96449,1.61985,2.38417,2.23234,3.17631,4.76446.23748.75927.76819,2.45568,0,3.1763-.813.76257-2.76415.13559-3.97038-.79408-.42825-.33005-1.01955-.89626-2.38223-3.97038-1.42143-3.20659-1.37723-3.94234-2.38223-4.76445-1.48017-1.21087-3.68036-1.33623-3.97038-.79408-.22207.415.77488,1.035,2.38223,3.1763a19.98117,19.98117,0,0,1,2.38223,3.97039c.88441,2.04638,1.56353,3.61766.79407,4.76445a3.09787,3.09787,0,0,1-3.97038.79408c-1.38285-.98678-.90477-3.40967-.79407-3.97038.29894-1.51495,1.03718-2.089.79407-2.38223-.45423-.54782-3.79406.53461-5.55853,3.1763-1.08342,1.622-1.93227,4.36982-.79408,6.35261,1.224,2.13231,4.01623,2.10847,3.97038,3.17631-.0345.80486-1.65959,1.72311-3.1763,1.58815-2.63426-.23441-3.92541-3.5557-4.76446-3.1763-.53429.24158-.60884,1.85862,0,3.1763.75976,1.6443,1.979,1.51332,4.76446,3.97038,1.71562,1.51339,2.17508,2.37632,2.38223,3.17631A4.96881,4.96881,0,0,1,187.57968,419.27221Z"/><path class="cls-5" d="M182.50239,379.52037c1.35234,1.1521,3.2012.531,3.64825,1.56659.55869,1.29419-1.97022,3.09605-1.56658,3.64825.39759.54393,3.66185-.09633,4.48519-2.395a3.82973,3.82973,0,0,0-.93569-3.85856c-.92375-.90637-1.683-.54291-2.9186-1.25326-2.55955-1.47156-2.4987-4.8696-3.12463-4.79851C181.332,372.516,180.26586,377.615,182.50239,379.52037Z"/><path class="cls-5" d="M236.67656,376.18447c-.99509,1.47172-2.94268,1.36758-3.09661,2.48494-.19234,1.39645,2.72625,2.4566,2.48494,3.09662-.23769.63043-3.5543.88619-4.96223-1.10867a3.8297,3.8297,0,0,1-.13-3.96825c.6478-1.12035,1.4766-.97312,2.47729-1.988,2.07295-2.1023,1.10583-5.36037,1.728-5.45921C235.93171,369.12219,238.32226,373.75048,236.67656,376.18447Z"/><path class="cls-5" d="M198.30577,365.0326c1.43029-1.05377,3.23069-.30377,3.74973-1.30516.64864-1.25153-1.74677-3.2274-1.30516-3.74973.435-.51451,3.64591.35456,4.30494,2.7056a3.82971,3.82971,0,0,1-1.2057,3.78288c-.98543.83891-1.71715.42276-2.99979,1.04413-2.657,1.28722-2.8362,4.68107-3.45554,4.566C196.64388,371.93686,195.94032,366.77539,198.30577,365.0326Z"/><rect class="cls-6" x="159.38997" y="346.21721" width="96.08322" height="8.73484" rx="4.36741"/><rect x="165.74258" y="353.36389" width="8.73484" height="66.7024"/><rect x="240.38574" y="353.36389" width="8.73484" height="66.7024"/><rect class="cls-7" x="161.37516" y="415.30183" width="9.52891" height="60.34979"/><rect class="cls-7" x="202.56786" y="414.11072" width="9.52891" height="91.31876" transform="translate(-252.43778 667.10242) rotate(-90)"/><rect class="cls-2" x="177.55447" y="431.18336" width="59.55571" height="44.46827"/><circle class="cls-5" cx="207.33232" cy="453.41749" r="18.26375"/><rect class="cls-7" x="243.95908" y="415.30183" width="9.52891" height="60.34979"/><rect class="cls-7" x="202.27009" y="374.40691" width="9.52891" height="91.31876" transform="translate(-213.03175 627.10083) rotate(-90)"/><path class="cls-2" d="M131.3875,182.63745H118.88026A476.30417,476.30417,0,0,1,95.4292,333.62272a511.15391,511.15391,0,0,1-65.663,132.11211q6.25352,3.37024,12.50723,6.74041c22.47928-31.16976,50.15737-77.01046,68.78978-136.15636A445.17584,445.17584,0,0,0,131.3875,182.63745Z"/><path class="cls-2" d="M283.50466,181.04937h12.50723A476.30445,476.30445,0,0,0,319.463,332.03463a511.15391,511.15391,0,0,0,65.663,132.11211q-6.25352,3.37024-12.50723,6.74041c-22.47928-31.16976-50.15737-77.01046-68.78978-136.15635A445.1756,445.1756,0,0,1,283.50466,181.04937Z"/><path class="cls-2" d="M291.68174,183.43159h-6.35261A322.14607,322.14607,0,0,1,273.418,272.36812a322.07972,322.07972,0,0,1-33.3512,77.81947q3.17625,1.9852,6.35261,3.97038a301.69849,301.69849,0,0,0,34.93935-80.20169A301.74107,301.74107,0,0,0,291.68174,183.43159Z"/><path class="cls-2" d="M122.46543,183.43159H128.818a321.86075,321.86075,0,0,0,45.26234,166.756q-3.17625,1.9852-6.35261,3.97038a301.46234,301.46234,0,0,1-45.26234-170.72638Z"/><rect class="cls-7" x="117.70097" y="173.1086" width="15.88152" height="19.8519" rx="6.46774"/><rect class="cls-7" x="282.07474" y="170.72638" width="15.88152" height="19.8519" rx="6.46774"/><rect class="cls-7" x="162.96332" y="341.45275" width="15.88152" height="19.8519" rx="6.46774"/><rect class="cls-7" x="236.8124" y="343.0409" width="15.88152" height="19.8519" rx="6.46774"/><polygon class="cls-4" points="389.714 572.529 389.031 572.529 389.595 572.926 318.731 674.21 302.469 662.831 369.862 566.502 369.862 455.006 389.714 455.006 389.714 572.529"/><polygon class="cls-4" points="22.851 574.117 23.533 574.117 22.97 574.514 93.833 675.799 110.096 664.419 42.702 568.09 42.702 456.594 22.851 456.594 22.851 574.117"/><rect class="cls-7" x="365.27504" y="455.00564" width="28.58674" height="19.8519" rx="6.46774"/><rect class="cls-7" x="19.8519" y="455.79972" width="28.58674" height="19.8519" rx="6.46774"/><path class="cls-3" d="M318.42454,457.38787q-.39708,4.36744-.79407,8.73484a148.5511,148.5511,0,0,0,17.46967,1.58815c18.40014.584,27.26254-2.57445,44.46827-3.1763,21.16961-.74052,25.14542-.21951,28.58674,1.58815,7.6899,4.0393,8.95022,9.27732,15.88152,10.323,7.75019,1.16916,11.02934-4.64722,20.646-7.94076,12.28754-4.20831,30.33522-2.72707,37.32158,6.35261,5.949,7.73148-1.048,14.57093.79408,38.90973.95721,12.64725,1.624,21.45745,7.14668,30.17489,4.5735,7.21919,14.166,13.01827,33.3512,24.61636,13.03848,7.88227,22.35947,12.49018,23.82229,21.44006.10817.66162.08365,3.60383.0346,9.4883-.08414,10.10087-.486,13.39979.75947,18.30437a32.81826,32.81826,0,0,0,3.17631,7.94076,24.21147,24.21147,0,0,0,4.76445-11.11707c.93114-6.71305-2.06128-8.62792-2.38222-17.46967-.31581-8.69893,2.4495-10.4603.79407-15.88153-1.15612-3.78616-3.60271-6.52219-9.52891-11.11706-12.40987-9.622-19.69216-11.58889-30.969-19.05783-8.63917-5.722-12.9588-8.58295-15.88153-12.70522-11.57158-16.32083-6.63138-41.17768-5.55853-46.05642,1.60076-7.279,3.12532-8.88654,2.38223-13.49929-1.77485-11.01781-13.28158-19.28354-23.02821-22.23414-8.336-2.5236-16.06-1.36355-19.8519-.79407a115.02552,115.02552,0,0,0-15.88153,3.97038c-7.48827,2.392-7.61826,3.17781-10.323,3.1763-6.9311-.00383-9.37246-5.16561-16.6756-7.94076-5.62813-2.13868-9.69205-1.16833-19.05782,0-3.94111.49165-14.80324,1.12186-36.52751,2.38223A306.27222,306.27222,0,0,1,318.42454,457.38787Z"/><rect class="cls-4" x="289.8378" y="440.71227" width="38.11566" height="38.11566" rx="13.82258"/><rect class="cls-4" x="539.97179" y="606.67419" width="23.02821" height="38.11566" rx="11.51409"/></g></g></svg>