<svg xmlns="http://www.w3.org/2000/svg" xmlns:xlink="http://www.w3.org/1999/xlink" width="414.81219" height="437.94426" viewBox="0 0 414.81219 437.94426"><defs><style>.cls-1,.cls-10,.cls-11,.cls-12,.cls-13,.cls-14,.cls-15,.cls-2,.cls-3,.cls-4,.cls-5,.cls-6,.cls-7,.cls-8,.cls-9{stroke:#000;stroke-miterlimit:10;}.cls-1,.cls-11,.cls-12,.cls-13,.cls-14,.cls-15,.cls-2,.cls-3,.cls-4,.cls-5{stroke-width:2px;}.cls-1{fill:url(#linear-gradient);}.cls-3{fill:url(#linear-gradient-2);}.cls-4{fill:none;}.cls-5,.cls-9{fill:#373737;}.cls-6{fill:#705b3a;}.cls-7{fill:#623d09;}.cls-10,.cls-15{fill:#e6cd9f;}.cls-10{stroke-width:4px;}.cls-11{fill:url(#linear-gradient-3);}.cls-12{fill:#fff;}.cls-13{fill:#93cfb3;}.cls-14{fill:url(#linear-gradient-4);}</style><linearGradient id="linear-gradient" x1="2.90973" y1="297.46278" x2="89.02821" y2="225.10101" gradientUnits="userSpaceOnUse"><stop offset="0.00538" stop-color="#f6b7d9"/><stop offset="0.28292" stop-color="#e6cd9f"/><stop offset="0.57297" stop-color="#e8caa6"/><stop offset="0.92756" stop-color="#f2bdca"/></linearGradient><linearGradient id="linear-gradient-2" x1="82.71583" y1="331.20269" x2="313.74614" y2="331.20269" gradientUnits="userSpaceOnUse"><stop offset="0" stop-color="#e1776a"/><stop offset="0.2072" stop-color="#d36eba"/><stop offset="0.38105" stop-color="#8766bd"/><stop offset="0.60031" stop-color="#87a0b8"/><stop offset="0.71386" stop-color="#78d4bb"/><stop offset="0.82192" stop-color="#9ccd9c"/><stop offset="1" stop-color="#93cfb3"/></linearGradient><linearGradient id="linear-gradient-3" x1="240.00871" y1="178.70735" x2="412.63543" y2="216.46433" gradientUnits="userSpaceOnUse"><stop offset="0" stop-color="#87a0b8"/><stop offset="0.10108" stop-color="#78d4bb"/><stop offset="0.29919" stop-color="#9ccd9c"/><stop offset="1" stop-color="#93cfb3"/></linearGradient><linearGradient id="linear-gradient-4" x1="244.12517" y1="122.09034" x2="365.08212" y2="122.09034" gradientUnits="userSpaceOnUse"><stop offset="0" stop-color="#f6b7d9"/><stop offset="0.53834" stop-color="#e6cd9f"/><stop offset="0.78064" stop-color="#f2bdca"/></linearGradient></defs><g id="Layer_2" data-name="Layer 2"><g id="Layer_1-2" data-name="Layer 1"><path class="cls-1" d="M103.923,250.699c-6.06365,1.57647-11.39873,2.96351-16.1242.701a9.49831,9.49831,0,0,0-5.60842-1.4021,8.30409,8.30409,0,0,0-3.50526,1.4021,12.04135,12.04135,0,0,0-4.20631,4.90737c-3.19226,6.465.58937,10.55292-2.10316,16.1242-2.94353,6.09065-9.46228,5.34146-10.51578,11.21684-.4077,2.27362.22246,4.31572-1.40211,6.30947-1.38037,1.69409-2.699,1.2796-4.20631,2.8042-2.35189,2.37885-.47166,4.733-2.10316,8.41263-1.95921,4.41876-5.88577,3.76431-9.11368,9.11368-1.45739,2.41522-1.1238,3.3223-2.10316,5.60842-3.59011,8.38045-12.72762,7.05708-19.62946,14.7221-6.62807,7.361-4.98943,16.12048-7.71157,16.1242-2.54936.00351-6.0539-7.67666-5.60842-14.7221.2252-3.56148,1.33257-4.9499.70105-8.41262-.62681-3.43689-2.23054-4.8811-4.20631-8.41263a42.10886,42.10886,0,0,1-4.20632-11.91789c-1.86255-7.83147-1.28991-13.9937-.701-20.33052a40.63067,40.63067,0,0,1,5.60842-17.5263c4.73428-7.87923,8.299-7.15952,11.21684-13.32,4.01016-8.46671-1.74519-11.89059.70105-21.73262,3.956-15.9162,23.09908-23.4232,25.93893-24.53683a27.93993,27.93993,0,0,1,8.41263-2.10315c6.77476-.2801,10.32931,1.81553,16.82525,3.50526,10.91556,2.83934,11.0928-.42109,17.52631,2.10315,6.85045,2.68783,10.87645,8.80244,18.92841,21.03157,7.63267,11.59235,7.13919,14.57281,6.30947,16.1242C111.89565,248.62622,109.23808,249.31713,103.923,250.699Z"/><path class="cls-2" d="M65.36515,257.00847a38.38758,38.38758,0,0,1,3.50526-2.80421c7.09007-4.69578,15.42974-4.1272,15.42315-4.20631a20.16405,20.16405,0,0,0-8.41263.70105c-11.406,3.21943-17.81667,15.73919-18.22736,15.42315-.11553-.08892.45943-1.01521.701-1.40211A32.55638,32.55638,0,0,1,65.36515,257.00847Z"/><path class="cls-2" d="M10.68307,260.51373c-.16016-.20363,4.59706-2.86578,8.41263-7.71157,5.06949-6.43823,3.04879-9.8375,9.11368-21.03157,2.67276-4.93317,5.34535-8.48148,9.11368-9.11368a9.82719,9.82719,0,0,1,3.50526,0c.01155.152-2.322.159-4.20632.701-5.95072,1.71185-9.878,9.46686-11.21683,14.7221a45.84758,45.84758,0,0,1-2.80421,9.11368,29.87022,29.87022,0,0,1-1.40211,2.80421,28.43856,28.43856,0,0,1-5.60841,7.01052C13.34984,259.03105,10.80284,260.66606,10.68307,260.51373Z"/><path class="cls-2" d="M52.04515,303.979A71.35353,71.35353,0,0,0,36.622,315.19581c-1.52,1.47934-2.75923,2.84575-2.8042,2.80421a41.27709,41.27709,0,0,1,9.11367-9.11368A38.03653,38.03653,0,0,1,52.04515,303.979Z"/><path class="cls-2" d="M59.75673,290.659a12.2839,12.2839,0,0,0-5.60842,3.50526c-1.93457,1.99238-1.75271,3.01041-3.50526,4.20631a9.30807,9.30807,0,0,1-5.60842,1.40211,7.964,7.964,0,0,0,3.50526-.701,9.90427,9.90427,0,0,0,3.50526-2.80421A28.02437,28.02437,0,0,1,59.75673,290.659Z"/><path class="cls-2" d="M66.76725,278.04a16.08413,16.08413,0,0,0-7.01052,4.20631c-1.94377,1.91275-1.68755,2.579-3.50526,4.20631a17.12994,17.12994,0,0,1-7.01052,3.50527,10.46562,10.46562,0,0,0,6.30947-2.10316c2.40623-1.71108,2.24564-3.01747,4.90736-5.60842A22.46743,22.46743,0,0,1,66.76725,278.04Z"/><path class="cls-2" d="M66.0662,205.83165a26.8527,26.8527,0,0,1,18.22736,14.7221,6.61708,6.61708,0,0,1,.701,2.10316c-.27663.14283-2.58085-4.81486-5.60842-8.41263C77.06674,211.488,73.12084,208.10173,66.0662,205.83165Z"/><path class="cls-2" d="M9.982,332.02106A29.9972,29.9972,0,0,0,12.08517,318c-.07188-.71043-.22434-1.25209-.48424-3.00673-.73066-4.93257-1.096-7.39888-.91786-10.31327a25.7266,25.7266,0,0,1,1.4021-7.01052c1.30186-3.63123,3.29072-6.41952,3.50527-6.30947.248.12717-2.40919,3.85117-3.50527,9.81473a32.66736,32.66736,0,0,0,0,11.21684c.52164,3.04511,1.05723,3.59469,1.40211,5.60842C14.01375,321.07384,13.78167,325.68305,9.982,332.02106Z"/><path class="cls-2" d="M69.57146,264.72c.2237.466-7.25455,2.16422-13.32,9.11368-4.357,4.992-4.00016,8.128-8.41263,10.51579-3.86447,2.09126-5.67213.516-9.11368,2.80421-5.13231,3.41236-5.742,9.994-6.30947,9.81473-.44659-.141-.40726-4.32407,2.10316-7.71158,2.33725-3.15383,5.83635-4.29552,7.71157-4.90736,3.74732-1.22265,4.29018-.17351,6.30947-1.40211,2.79471-1.70038,2.29267-4.03725,5.60842-8.41262a25.99269,25.99269,0,0,1,4.90737-4.90737C63.93489,265.81184,69.37865,264.31843,69.57146,264.72Z"/><path class="cls-2" d="M44.33358,294.16424c-.02152-.12007-1.02347-.05332-1.40211,0-2.81088.39563-3.84414,4.63343-6.30947,7.71157-2.85953,3.57035-4.49351,1.64459-9.11368,5.60842-4.67309,4.00923-7.22,9.59857-6.30947,13.32.03928.1605.34617,1.41468.70106,1.4021.55835-.01977.35763-3.14382,1.4021-6.30947a18.49393,18.49393,0,0,1,6.30947-8.41263c3.89558-3.154,4.83471-1.65053,7.01052-4.20631,2.79891-3.28768,2.47483-7.22032,5.60842-8.41263A14.1864,14.1864,0,0,0,44.33358,294.16424Z"/><path class="cls-2" d="M89.902,243.68848a21.9327,21.9327,0,0,0-4.20632-1.40211,29.37065,29.37065,0,0,0-4.90736-.70105c-5.58754-.31056-13.72349-.76275-20.33052,2.80421-2.88161,1.55571-1.35568,1.65344-9.81473,10.51578-10.39058,10.886-15.58588,16.329-16.1242,16.82526a13.961,13.961,0,0,0-4.20632,5.60841c-.86835,2.36221-.88731,4.89466-1.4021,4.90737-.31476.00779-.5987-.93168-.70105-1.4021-.65069-2.99094,1.78682-6.57027,6.30947-11.21684,3.33825-3.42974,3.91864-3.44031,7.71157-7.01052,5.49606-5.17334,11.05214-11.528,12.61894-13.32,2.30572-2.63711,3.08987-3.65677,4.90737-4.90736a22.90425,22.90425,0,0,1,9.81473-3.50526,33.57125,33.57125,0,0,1,11.21684,0A38.22883,38.22883,0,0,1,89.902,243.68848Z"/><path class="cls-2" d="M86.39672,236.678a8.41322,8.41322,0,0,0,2.10315.70106c.1329-.27193-6.97462-3.29278-14.7221-8.41263a139.28371,139.28371,0,0,1-14.021-10.51579c-4.722-4.17191-6.878-6.82494-9.81473-6.30947-2.34047.41082-4.92782,2.79052-6.30947,4.90737a3.96684,3.96684,0,0,0-.70106,1.4021c.12277.07976,1.42025-2.8698,4.20632-4.20631a7.52979,7.52979,0,0,1,3.50526-.70105c3.26179.09516,5.63448,2.27127,7.01052,3.50526,3.45862,3.10155,6.97942,5.80666,14.02105,11.21684a59.74187,59.74187,0,0,0,8.41263,5.60841A53.44343,53.44343,0,0,0,86.39672,236.678Z"/><path class="cls-2" d="M94.80934,233.87374a5.1651,5.1651,0,0,1-2.10315-.70105,6.22477,6.22477,0,0,1-2.80421-3.50526c-.42738-1.77167.72274-2.04419,1.4021-5.60842.23581-1.23719.90738-4.76051-.701-6.30947-.25836-.24877-.75381-.61838-.70105-.70105.06076-.09521.8725.15224,1.4021.70105.48608.50371.62476,1.14751.701,2.80421a19.70334,19.70334,0,0,1,0,3.50526c-.4189,3.0704-1.58126,3.122-1.4021,4.90737a6.02358,6.02358,0,0,0,2.80421,4.20631C94.08548,233.58753,94.8292,233.82124,94.80934,233.87374Z"/><path class="cls-2" d="M63.21505,236.15644c.10133-.22079-1.38024-1.38909-3.03065-1.96841-5.32442-1.869-13.48156,2.01424-15.55622,7.60285-.69814,1.88078-.1587,2.4764-1.32564,6.20836-.91324,2.92055-1.58926,4.98383-3.41836,5.999-1.939,1.07614-4.25394.464-4.325.97644-.04065.29332.69121.68449,1.32534.83712,2.05639.49494,3.99207-1.30044,4.3948-1.674.468-.4341,1.77634-1.76038,2.651-5.3712.87019-3.59234.05087-4.24311.62805-6.27811,1.32457-4.67006,7.61457-8.20724,12.766-7.882C60.47455,234.8053,63.08433,236.44137,63.21505,236.15644Z"/><path class="cls-2" d="M38.72516,244.38953a5.30032,5.30032,0,0,1,0,2.80421,6.23258,6.23258,0,0,1-1.4021,3.50526c-1.37271,1.34087-2.79625.36529-4.90737,1.4021a8.0488,8.0488,0,0,0-3.50526,4.20632c-1.76363,3.80645.03089,5.53657-1.40211,7.71157-1.93914,2.94323-5.81709.61608-9.11367,3.50526-3.3472,2.93352-1.16142,6.90231-4.90737,10.51579a10.29255,10.29255,0,0,1-6.30947,2.80421c-.03008-.077,5.04027-.64291,7.01052-4.20632,1.20772-2.18428.30757-3.78921,2.10316-7.01052a10.06418,10.06418,0,0,1,2.10316-2.80421c3.30552-2.96629,6.76577-1.20515,8.41262-3.50526,1.20421-1.68186-.45553-2.88932.70105-6.30947a9.59966,9.59966,0,0,1,3.50527-4.90737c2.43434-1.64086,3.89143-.5272,5.60841-2.10315C38.80928,247.99034,38.43659,244.3547,38.72516,244.38953Z"/><path class="cls-2" d="M59.05568,228.26533c-.31356.69959-3.44164-1.17965-7.71158-.70106-2.25.2522-1.91831.83413-7.71157,2.80421-3.79678,1.29116-4.29814,1.16326-5.60842,2.10316-2.86386,2.05433-3.83944,5.08323-4.20631,4.90737-.24343-.11669.03029-1.52478.70105-2.80421.63173-1.205,1.76482-2.58034,4.90736-4.20632,3.33693-1.72657,3.59542-.97053,7.71158-2.80421,2.57349-1.14644,3.47407-1.88814,5.60842-2.10315a6.9972,6.9972,0,0,1,4.20631.70105C57.95729,226.711,59.2665,227.795,59.05568,228.26533Z"/><path class="cls-2" d="M21.89991,287.85477c.60785,4.81327,2.8597,7.28732,1.4021,9.81473-.61077,1.05907-1.06373.72446-2.10316,2.10316-2.35094,3.11836-1.66521,6.99426-2.10315,7.01052-.25117.00933-.756-1.25534-.70105-2.80421.12935-3.6489,3.20312-4.308,4.20631-7.71157.967-3.28088-1.43544-4.20773-1.40211-9.81474.02358-3.96092,1.24353-7.03893,1.40211-7.01052A23.80943,23.80943,0,0,0,21.89991,287.85477Z"/><path class="cls-3" d="M312.18167,250.37012a192.56873,192.56873,0,0,1-11.964,53.60885,189.45286,189.45286,0,0,1-7.71158,17.52631c6.30306,11.96906,20.80471,41.17925,21.03157,61.6926.09859,8.91411-2.51393,14.78654-.70105,28.74314.72741,5.5999,1.91454,10.55648-.701,12.61894-1.99122,1.5701-6.23485.112-14.7221-2.80421-8.1167-2.78889-10.79905-4.69479-12.61894-6.30947-2.335-2.0717-4.12733-3.66195-4.90737-6.30947-1.45-4.92148,2.34475-7.30439,2.80421-14.021.41009-5.99519-2.494-5.92258-2.80421-12.61894-.4159-8.97839,4.73356-10.64694,3.50527-18.22736-.63259-3.9041-2.58377-7.03325-5.60842-11.91789-2.64538-4.27212-3.95207-5.13466-5.60842-9.11368-1.6282-3.91141-1.20425-5.0926-2.80421-6.30947-1.81348-1.37921-4.71422-1.15316-10.51578-.70105-2.85025.22211-3.22876.4456-3.50527.70105-2.315,2.13893,1.71892,7.26233,2.10316,13.32.66075,10.4169-10.12332,13.31563-11.91789,25.93894-.71979,5.06294,1.38516,4.6751,2.10316,14.72209.30757,4.30405.90695,10.796-.70105,18.22736-1.49042,6.88776-2.77426,5.07407-6.30947,16.1242-1.96529,6.14311-2.24779,8.82679-4.90737,10.51579-3.35071,2.12784-7.61543.86134-10.51578,0-7.06692-2.09871-14.46216-7.99612-15.42315-15.42315a12.68118,12.68118,0,0,1,0-3.50526c.28493-2.01317,1.09642-4.15878,6.30947-11.21684,2.08116-2.81773,1.94753-2.46678,2.10315-2.80421,2.31689-5.02362-2.44615-8.29269-1.4021-14.7221.71919-4.42894,3.35126-5.16773,2.80421-9.11368-.35374-2.55149-1.58747-3.20347-1.40211-5.60841.24292-3.15119,2.48218-3.60317,2.80421-6.30947.327-2.74777-1.857-3.32752-4.20631-8.41263a29.65054,29.65054,0,0,1-2.80421-10.51579c-.24278-3.70761.46807-5.26165-.701-6.30947-1.49055-1.33591-4.19048-.194-7.71158.70106-4.32693,1.09984-8.88287.90828-13.32,1.4021-16.309,1.81506-24.46349,2.72257-30.8463.70105-10.12482-3.20663-15.01182-10.15845-18.92841-7.71157-2.43447,1.521-1.36133,4.71614-5.60842,9.11368-2.48295,2.57088-4.042,2.71328-4.90737,4.90736-.885,2.24385.08926,3.75858,1.40211,8.41263,2.31526,8.20763.94268,9.37294,3.50526,16.1242,1.59585,4.20439,2.00153,3.41883,2.80421,6.30947,1.20652,4.345.80665,7.98085,0,14.7221a89.48713,89.48713,0,0,1-1.40211,9.81473c-.66057,2.23427-1.51831,4.16708-.701,6.30947.37937.99442,1.06442,1.88934.701,2.80421-.35994.90623-1.51429,1.24225-2.10315,1.40211a34.26,34.26,0,0,1-10.51579,1.4021,43.76086,43.76086,0,0,1-9.81473-2.10315c-4.64742-1.35337-6.98592-2.05956-7.71157-3.50527-.828-1.64968-.08464-4.13768,1.4021-9.11368.72146-2.41461.96241-2.73711,1.40211-4.20631.59275-1.98044,2.15745-7.20851.70105-12.61894-1.29513-4.81131-4.4396-7.10556-7.71158-10.51578-15.05041-15.68643-15.729-41.456-15.42315-46.97051a27.42521,27.42521,0,0,0,0-3.50526c-.41043-6.36719-2.94263-10.49584-4.20631-13.32-1.798-4.0183-1.71489-8.98976-1.40211-18.92841.24976-7.93558.42443-13.48383,2.80421-20.33052a58.812,58.812,0,0,1,7.71158-14.7221c.77576-1.114,5.21185-7.41184,9.81473-11.21683,8.23865-6.81049,18.32873-6.72307,36.45472-6.30947a217.41268,217.41268,0,0,1,40.661,4.90736c11.40177,2.717,16.09177,5.02748,23.13473,2.80421,8.07031-2.54756,9.73262-8.04982,18.22736-14.021,5.44843-3.82986,14.01719-8.07023,27.341-9.11368Q280.61131,237.91562,312.18167,250.37012Z"/><path class="cls-4" d="M220.2977,364.26947a29.86883,29.86883,0,0,1-4.20631-7.01053c-2.87015-6.765-1.49137-10.71513-2.10316-20.33051-.73357-11.5289-3.12115-12.22229-2.80421-21.03157a50.06262,50.06262,0,0,1,2.80421-14.7221"/><path d="M137.81219,405.12439c-1.14007,4.02234-.60495,6.3927.14649,7.834.36246.69519,1.09692,1.80738.70105,2.8042-.35993.90625-1.51428,1.24225-2.10315,1.4021a34.25951,34.25951,0,0,1-10.51578,1.4021,43.76209,43.76209,0,0,1-9.81473-2.10315c-4.525-1.31769-6.806-2.00714-7.71157-3.50525-1.972-3.26208.79721-8.09985,1.40209-9.11371,14.63779,6.3097,19.48542,6.07612,20.8956,4.27973.49491-.63049,1.20444-2.26618,3-3A5.944,5.944,0,0,1,137.81219,405.12439Z"/><path d="M213.81219,409.12439a13.82854,13.82854,0,0,0-3,5c-2.66668,8.00537,3.56022,15.48755,4,16,.00007.00006,3.67917,4.28686,17,7a4.4428,4.4428,0,0,0,2,0c2.01416-.49475,3.11908-2.44507,4-4a16.679,16.679,0,0,0,2-6,5.31481,5.31481,0,0,0-2-1c-2.1603-.536-3.93377.60229-5,1-4.79049,1.7868-13.30416-4.663-17-12A22.11322,22.11322,0,0,1,213.81219,409.12439Z"/><path d="M281.81219,401.12439a8.78074,8.78074,0,0,0-2,5c-.40646,9.068,16.3201,15.26587,21,17,3.44144,1.27521,9.70194,3.52606,12,1,.76423-.84.85648-1.95136,1-4a25.37749,25.37749,0,0,0-1-9,11.697,11.697,0,0,0-5,1,12.142,12.142,0,0,0-3,2C303.09232,415.43616,297.78223,413.9176,281.81219,401.12439Z"/><path d="M89.3865,144.64079l8.22705-7.31294a208.80785,208.80785,0,0,1-31.08-44.79174A206.84371,206.84371,0,0,1,56.47828,69.68318Q53.73592,75.625,50.99358,81.5667c3.40947,6.43082,6.34793,11.47595,8.227,14.62588,8.73717,14.64576,13.85916,20.64795,22.85293,35.65057C85.42841,137.43938,87.96064,142.01719,89.3865,144.64079Z"/><path class="cls-5" d="M61.04887,1.12439c-10.79338,45.00981-9.66095,58.706-5.48471,61.24585a7.06731,7.06731,0,0,1,2.74235,2.74235c2.61124,4.90515-1.90617,12.43448-6.39882,18.28234-.98609-4.33614-2.35576-9.21914-3.65647-9.14117-2.82593.16936-4.12937,23.68291-3.65646,38.39292.54922,17.084,4.16781,43.24279,20.11057,74.95761-23.289-35.02214-36.77184-65.22223-42.04939-83.18466-2.689-9.152-7.18673-24.46084-4.57058-43.87762.30959-2.29782.65663-4.19131.91411-5.48471l2.74236,2.74235a64.047,64.047,0,0,1,3.65646-23.767c2.13611-5.957,8.32141-23.206,24.68117-30.16587A36.642,36.642,0,0,1,61.04887,1.12439Z"/><path d="M129.862,176.38746c-.77658,1.96918-2.6209,3.88334-6.30947,7.71157-.34809.36127-1.40048,1.40925-3.50526,3.50526-4.73694,4.71717-4.70267,4.64477-4.90737,4.90737-2.2127,2.83835-2.20217,6.14516-2.10316,11.91789.14732,8.59007,2.175,8.01863,1.40211,13.32-.4379,3.00331-1.49766,5.99155-.70106,10.51579a20.50283,20.50283,0,0,0,.70106,2.8042A15.55371,15.55371,0,0,0,103.923,234.5748C99.67,238.266,96.927,245.349,99.71671,249.29689a7.68836,7.68836,0,0,0,4.90737,2.80421c.93557.14955,2.89586.28609,12.61894-4.20631,2.25655-1.04259,3.72536-1.77741,5.60841-1.40211,2.14685.42789,2.51188,1.83629,4.20632,2.10316,2.8173.44376,6.81108-2.66172,7.71157-6.30947,1.09125-4.42039-3.10253-6.62923-3.50526-12.61894a16.52522,16.52522,0,0,1,2.80421-9.81473,73.58012,73.58012,0,0,0,3.50526,9.11368c2.36618,5.11266,3.7172,6.48863,4.90737,9.11368,3.51673,7.7565,1.00815,16.22587,0,19.62946-2.36391,7.98093-5.94975,9.56108-9.81473,19.62946a61.20052,61.20052,0,0,0-2.80421,9.81474c-.59481,2.6939-.88843,4.05818-.70106,4.90736,1.12522,5.09958,10.09094,8.40758,17.52631,7.71158,2.461-.23038,7.19126-.67316,10.51579-4.20632,3.78582-4.02343.91063-7.76574,4.90736-17.5263,1.28324-3.1339,2.36118-5.76631,4.90737-8.41263,2.93664-3.05213,4.66728-2.83938,6.30947-5.60842,2.04774-3.4528.15472-5.12892,2.10315-9.11368.15648-.32,2.46011-4.86077,7.01053-6.30947,3.02846-.96416,5.03462.09546,8.41262.701,6.93958,1.24409,17.16312.12285,21.03157-5.60841,1.80047-2.66746,2.60272-6.89418.70106-9.81474-2.30547-3.54069-7.50987-3.51048-8.41263-3.50526a12.46628,12.46628,0,0,0-5.60842,1.40211,34.98657,34.98657,0,0,1-2.80421-11.21684,36.09858,36.09858,0,0,1,4.20631-19.62946,22.481,22.481,0,0,0,9.81474,7.01052c10.84307,3.83666,20.57424-2.69955,21.73262-3.50526.06183.18707,1.286,3.72121,4.20631,4.20631,2.26807.37676,4.085-1.33047,4.90737-2.10315,3.47877-3.26864,3.49293-8.27849,3.50526-12.619.01352-4.7644-1.06258-6.50069-1.40211-7.01052A7.95215,7.95215,0,0,0,237.824,183.398c-3.38053-.56841-7.26709,1.92841-9.11368,6.30947a20.27937,20.27937,0,0,1-9.11368-1.4021c-7.73357-3.15945-10.91847-10.35957-11.91789-12.61894a26.87521,26.87521,0,0,1-2.10316-7.71158H129.862A12.42553,12.42553,0,0,1,129.862,176.38746Z"/><path class="cls-6" d="M198.21455,174.63483l-26.64,35.05261q-4.55682.3505-9.11368.701l-28.74315-35.05261q4.20632-.70107,8.41263-1.40211L165.96615,204.079q11.56735-16.47474,23.13472-32.94945Q193.65769,172.88222,198.21455,174.63483Z"/><path class="cls-7" d="M167.36825,220.20322c-.29729,2.2148-.525,4.00264-.701,5.60842a4.51075,4.51075,0,0,1-.70105,2.10316c-.5183.77619-1.50236,1.64985-2.10316,1.4021-.35651-.147-.36452-.60084-.70105-2.10315a27.47663,27.47663,0,0,1-.701-2.80421,6.62063,6.62063,0,0,1,.701-3.50526c.46353-.89065,1.06082-2.03829,2.10316-2.10316C166.44239,218.72787,167.29979,220.09112,167.36825,220.20322Z"/><path class="cls-7" d="M168.77036,220.90428a10.25945,10.25945,0,0,0,.701,3.50526,8.927,8.927,0,0,0,.70105,1.4021,4.18418,4.18418,0,0,0,2.10316,2.10316,1.722,1.722,0,0,0,1.4021,0c.16367-.101.57958-.42472.70106-2.80421a9.43491,9.43491,0,0,0,0-2.10316c-.4415-1.979-2.60447-3.99476-4.20632-3.50526A2.40193,2.40193,0,0,0,168.77036,220.90428Z"/><path class="cls-7" d="M163.16194,210.38849a5.77685,5.77685,0,0,0-1.4021,2.80421,7.3772,7.3772,0,0,0,2.10315,7.01052,5.377,5.377,0,0,0,2.80421,1.40211,5.12143,5.12143,0,0,0,1.40211,0,5.61646,5.61646,0,0,0,4.90736-7.71158c-.34406-1.292-1.03241-3.87666-3.50526-4.90736A5.84979,5.84979,0,0,0,163.16194,210.38849Z"/><path class="cls-7" d="M158.95563,194.26429a8.24359,8.24359,0,0,0-3.50526-4.20631,3.874,3.874,0,0,0-2.80421-.70106c-1.47006.36016-2.15622,1.97766-2.80421,3.50527-.60388,1.42354-1.28816,3.03672-.70106,4.90736a5.17272,5.17272,0,0,0,2.10316,2.80421,5.54685,5.54685,0,0,0,2.10316.70105,9.79169,9.79169,0,0,0,3.50526,0Q157.904,197.76958,158.95563,194.26429Z"/><path d="M155.80089,193.91376c.13282.42982-.71286.67393-1.4021,2.10316-.41035.85094-.33983,1.23976-.70106,1.40211-.61059.27436-1.81334-.38677-2.10315-1.40211a2.16724,2.16724,0,0,1,.701-2.10316C153.46582,192.84584,155.605,193.27963,155.80089,193.91376Z"/><path class="cls-7" d="M159.30615,192.51166a12.78416,12.78416,0,0,0-4.90736,8.41263c-.055.48638-.64522,6.51755,3.50526,9.81473,2.43079,1.93106,5.35737,2.02644,7.71157,2.10316a14.43155,14.43155,0,0,0,5.60842-.70106c.30594-.10984,7.71414-2.90579,8.41263-9.81473.56905-5.62853-3.76208-9.56587-4.90737-10.51578a9.98694,9.98694,0,0,0-2.10315-1.40211C168.342,188.3148,162.86648,189.67057,159.30615,192.51166Z"/><path d="M171.92509,200.22323c-.07008.14022-.51877.04207-.70105,0a2.53032,2.53032,0,0,1-.50474-.17526c-.32951.57487-.71508.94641-.89736.87632-.23838-.09816-.10518-.97448,0-1.40211.007-.02807.014-.06311.021-.09114-.56088-.54684-.83426-1.1918-.72211-1.311.09816-.10518.54685.11916,1.0586.44868.35754-.7221.83425-1.23386,1.04456-1.14973.23838.09815.10518.97447,0,1.4021q-.05256.21033-.12618.42061C171.60961,199.6624,171.99518,200.069,171.92509,200.22323Z"/><path d="M162.78722,201.08961c-.07009.14022-.51878.04206-.70106,0a2.53067,2.53067,0,0,1-.50473-.17527c-.32952.57487-.71509.94641-.89737.87632-.23838-.09816-.10518-.97447,0-1.40211.007-.02807.014-.06311.02105-.09114-.56088-.54684-.83425-1.19179-.7221-1.311.09815-.10518.54684.11917,1.05859.44868.35755-.7221.83426-1.23386,1.04456-1.14973.23838.09815.10518.97447,0,1.4021q-.05256.21033-.12618.42062C162.47173,200.52877,162.8573,200.93535,162.78722,201.08961Z"/><path d="M165.61562,204.42955a1.39,1.39,0,0,0,0,1.4021c.22584.32943.524.30534.70106.70106.1.22357.15339.5631,0,.701-.093.08361-.20886.04548-.70106,0-.42968-.03971-.64564-.05841-.70105,0-.18279.19259.09084,1.04986.70105,1.4021.92886.53619,2.23884-.32806,2.80421-.70105.06722-.04433.78107-.52006.70105-.70105-.09037-.20449-1.194-.03244-1.4021,0-.37637.05866-.576.121-.70105,0-.155-.14993-.09641-.48561,0-.701.1789-.39982.47209-.35036.70105-.70106a1.49891,1.49891,0,0,0,0-1.4021,1.22943,1.22943,0,0,0-.70105-.70105A1.32538,1.32538,0,0,0,165.61562,204.42955Z"/><path class="cls-7" d="M180.68825,199.87271c2.29913-.37539,3.57043-2.52236,4.20631-3.50526a6.9046,6.9046,0,0,0,1.40211-4.90737,6.09771,6.09771,0,0,0-2.80421-4.20631,5.46257,5.46257,0,0,0-2.80421-.70105c-3.31913.12408-5.44805,3.52943-6.30947,4.90736-.34385.55-.67568.88145-.70106,1.40211-.059,1.21,1.27165,1.55109,2.80421,3.50526,1.46039,1.86208,1.48486,3.12405,2.80421,3.50526A2.95584,2.95584,0,0,0,180.68825,199.87271Z"/><path d="M177.53351,193.21271c.11836.56422.6305.55159,1.40211,1.40211,1.02342,1.12808.81461,1.91313,1.4021,2.10315.88359.28583,2.65162-1.07083,2.80421-2.80421a2.953,2.953,0,0,0-1.4021-2.8042,3.02944,3.02944,0,0,0-2.80421,0C178.19682,191.51776,177.36706,192.419,177.53351,193.21271Z"/><path class="cls-6" d="M196.81245,208.28534c.23718.40957-.511.96189-.70105,2.8042-.13727,1.33078.20132,1.54494,0,2.10316-.51809,1.43651-3.23343,1.32988-7.71158,2.10316-3.40334.58766-3.01888.85368-6.30947,1.4021a76.3783,76.3783,0,0,1-7.71157.70106c-6.22967.44372-7.153.24372-14.7221.701-3.94175.23816-6.04525.36524-9.11368.70105-.74282.0813-2.98542.34492-6.30827.70092l-.0012.00013c-5.68129.6088-8.88831,2.48608-9.81473,1.40211-.34432-.40286.12939-.62622,0-2.80421-.09919-1.66945-.41959-2.2471,0-2.80421.27427-.36418.87546-.565,2.10315-.70105,3.4739-.385,5.474-.70225,5.60842-.70106,5.60821.05024,11.21722-.06452,16.82526,0a94.5341,94.5341,0,0,0,16.1242-.70105,72.40433,72.40433,0,0,0,10.51578-2.10316C191.0244,209.53366,196.22684,207.27406,196.81245,208.28534Z"/><path class="cls-8" d="M163.863,214.59481V217.399h7.71158v-3.50527Q167.71876,214.24426,163.863,214.59481Z"/><path class="cls-2" d="M168.41983,13.74333c-33.00675-3.01907-64.85157,14.33129-80.621,37.85682-2.45445,3.66164-3.97311,6.88109-7.01052,13.32C68.04826,91.9273,45.55576,139.609,64.6641,167.97483c5.38839,7.9989,16.94194,18.70321,29.44419,18.22736,10.17985-.38745,12.96515-7.88188,27.341-8.41263,9.6749-.3572,19.0899,2.643,21.73262,3.50526,8.93452,2.91516,9.17748,4.99094,14.7221,5.60842,7.1774.79934,9.29172-2.39818,23.13472-7.01052,10.27814-3.42456,17.51279-5.7557,26.64-4.90737,7.16251.66571,6.95913,2.49647,14.02105,2.80421a38.62965,38.62965,0,0,0,22.43367-5.60842,31.57986,31.57986,0,0,0,11.91789-14.021c4.38337-10.63767.71821-21.13985-1.40211-28.04209-9.2862-30.22937-2.36849-35.12292-9.11368-53.981C236.62019,51.21142,209.43006,17.49448,168.41983,13.74333Z"/><path class="cls-9" d="M94.10829,177.08851c7.73015,1.64035,9.00692-2.42715,23.13473-2.80421,5.39776-.14407,14.54508-.38822,24.53683,3.50526,11.425,4.452,11.70407,9.54037,18.92841,9.81473,8.18452.31086,8.84312-6.18136,21.73262-10.51578a59.61286,59.61286,0,0,1,26.64-2.10316c7.38326,1.20767,9.11129,3.13685,15.42315,2.80421,2.85132-.15027,11.33665-.59746,16.82526-6.30947,4.46784-4.64969,4.61435-11.9798,4.90736-26.64a126.96994,126.96994,0,0,0-1.4021-22.43367,115.16043,115.16043,0,0,0-4.20631-17.5263C237.2847,94.70541,232.3164,79.586,220.2977,69.12646c-9.04064-7.86788-18.40369-9.90793-30.8463-12.61894-13.6451-2.973-46.4614-10.12311-77.11575,7.71157A77.11927,77.11927,0,0,0,87.79882,85.95171c-8.54917,11.835-11.16806,22.94719-14.02105,35.05262-3.86558,16.402-5.7984,24.60294-2.10315,34.35156C74.99657,164.11977,83.02825,174.73735,94.10829,177.08851Z"/><path class="cls-10" d="M87.79882,102.777c-.81461,5.31245-1.90154,12.401,2.29541,17.85507,3.08794,4.01289,9.09515,7.2175,14.52985,8.08386a34.39391,34.39391,0,0,1,7.01052,1.40211,32.31236,32.31236,0,0,1,7.01052,3.50526c6.37678,4.354,10.28109,14.5086,15.42315,26.64,6.62286,15.62486,7.90062,17.07438,9.11368,18.22736.946.89917,10.79751,9.94982,23.83578,7.01053a26.53777,26.53777,0,0,0,15.42315-10.51579c2.1011-14.29429,7.28407-23.38206,11.21683-28.74314,6.72406-9.1661,23.97266-26.767,37.85683-31.54735,1.00241-.34514,3.58031-1.1719,4.90736-3.50526,2.18523-3.84221-.261-9.5893-4.90736-16.82526C224.91128,84.0809,211.08047,62.54169,183.843,55.10541c-2.0148-.55007-3.66264-.90276-4.60339-1.09259-34.2772-3.19836-63.85575,5.23676-78.12078,21.42311A59.58524,59.58524,0,0,0,87.79882,102.777Z"/><path d="M147.38826,125.91169c1.81121-.61429,7.61158,12.86111,8.41263,14.7221,1.66153,3.86005,1.51186,4.124,1.40211,4.20631-.92018.68983-8.01551-4.65921-9.81474-12.61894C146.89812,130.05271,146.46937,126.22335,147.38826,125.91169Z"/><path d="M174.02825,127.3138c-1.35191-.58953-7.93429,6.91065-6.30947,14.021.20265.88678.62758,2.74645,1.4021,2.80421C171.451,144.31286,175.81541,128.09311,174.02825,127.3138Z"/><path class="cls-2" d="M94.80934,102.777c.30256,6.57042,7.76108,6.03671,23.83578,20.33051,1.42166,1.26418,3.93884,3.84347,7.41757,3.85579,2.68637.00952,4.19245-1.48928,8.70663-4.55684,8.58554-5.83419,10.099-5.14315,10.51579-7.01052,1.43432-6.42631-15.797-17.713-21.73262-18.22736-.44779-.03881-2.44941-.15639-2.80421-1.15335-.371-1.04249,1.44947-1.949,1.4021-3.053-.1032-2.4042-9.09348-6.39616-16.82525-3.50526C99.92411,91.47642,94.54679,97.07527,94.80934,102.777Z"/><path class="cls-2" d="M176.83246,109.08644a9.35093,9.35093,0,0,0-1.40211,4.90736,10.25415,10.25415,0,0,0,2.10316,5.60842c2.06063,2.60148,6.29159,3.654,24.53683,1.40211,14.04976-1.73406,17.20436-3.05716,18.22736-5.60842.8533-2.128-.798-2.56314-.701-7.71158.11617-6.17325,2.55145-8.80082.701-11.91788-.83964-1.41437-1.945-1.89078-2.10316-3.50527-.22318-2.2782,1.7573-3.58078,1.40211-4.20631-.76943-1.3551-10.8937,3.29583-19.62947,7.01052C191.85335,98.51563,180.2729,103.14164,176.83246,109.08644Z"/><path class="cls-2" d="M75.17988,92.26118c-2.1949,6.08607-4.47293,14.61905-2.80421,15.42315,2.4705,1.19045,9.7446-16.41266,25.93893-30.14524,12.74273-10.80568,25.801-14.799,35.05262-17.52631,41.2374-12.15646,75.80988,2.12134,77.11575-2.80421,1.021-3.851-15.4134-12.66122-30.8463-16.82525-5.56516-1.50157-43.33662-11.046-75.71365,11.91788C84.48885,66.08518,77.65675,85.39317,75.17988,92.26118Z"/><path class="cls-11" d="M238.52506,207.93481c.62805,3.159,3.85544,19.39284,14.02105,30.8463,22.67662,25.54938,71.86453,18.28166,100.95152,4.90737a111.55592,111.55592,0,0,0,14.02105-7.71158c1.73825,1.20044,13.92836,9.32964,28.04209,4.90737,2.14329-.67153,11.692-3.66346,16.1242-12.61894,3.93187-7.94444,1.64181-16.1459-.70105-24.53683a61.88675,61.88675,0,0,0-7.01052-16.12421c-5.87363-9.17277-12.17788-12.93566-23.13473-21.03156-21.413-15.82193-16.79025-15.82563-28.74314-23.13473-8.3315-5.09465-20.81549-12.58824-38.55788-14.7221a88.74863,88.74863,0,0,0-25.23788.70105c-4.52132.79352-11.787,2.06867-18.92841,5.60842-25.6917,12.73439-31.12742,45.52891-31.54735,48.37261A72.75655,72.75655,0,0,0,238.52506,207.93481Z"/><path class="cls-2" d="M362.61131,223.358c-.04835.928-.66682,2.01621-1.4021,2.10316-1.52577.18039-3.69978-3.93345-4.20632-7.71158-.2041-1.52251-.76908-5.7367,2.10316-9.11368,2.7182-3.19581,6.89722-3.74008,7.01052-3.50526.06607.137-1.20467.63452-2.80421,2.10316a12.9198,12.9198,0,0,0-2.8042,3.50526c-.29277.56032-2.49879,4.924-.70106,8.41263C360.8811,221.23589,362.69894,221.67794,362.61131,223.358Z"/><path class="cls-2" d="M374.5292,189.0064c.65347.09383.20325-7.03068,4.90737-11.21684,2.79787-2.48984,6.26634-2.91435,6.30947-4.90736a2.29964,2.29964,0,0,0-1.40211-2.10316c-2.67361-.92865-8.28811,5.2-9.81473,11.91789C373.78664,185.96433,374.10782,188.94589,374.5292,189.0064Z"/><path class="cls-2" d="M387.84919,190.4085c-.40546-.03021-5.20415-.321-7.01052,2.80421-1.18345,2.04745-.62891,4.77609,0,4.90737.72553.15143,1.03369-3.2615,3.50526-4.20632,1.57609-.60251,3.30826.07527,4.90737.70106a12.37659,12.37659,0,0,1,3.50526,2.10315c2.50939,2.14056,3.08721,4.3536,3.50526,4.20632.49447-.1742.45228-3.54031-1.4021-6.30947A9.72827,9.72827,0,0,0,387.84919,190.4085Z"/><path class="cls-2" d="M369.62184,217.04849c-.43243.56117,4.57224,7.01112,12.61894,9.81473a22.958,22.958,0,0,0,13.32.701c4.17653-1.11109,7.9482-3.5581,7.71157-4.20631-.18039-.49413-2.60344.29387-6.30947.70105a44.559,44.559,0,0,1-16.1242-1.4021C373.54454,220.47754,369.9727,216.59322,369.62184,217.04849Z"/><path class="cls-2" d="M326.15659,156.05694c-6.17982,2.44521-7.59048,13.90526-6.30947,21.73262,1.32286,8.0832,6.57134,18.73989,13.32,18.92841a9.64867,9.64867,0,0,0,5.60841-2.10315c6.26035-4.11252,7.37937-11.75268,7.71158-14.02105.25973-1.773,1.2959-10.24292-4.20631-17.52631-1.25936-1.667-4.34624-5.75317-9.81474-7.01052C330.92909,155.70357,328.47549,155.1394,326.15659,156.05694Z"/><path class="cls-12" d="M326.85765,161.66536c-3.094.62215-4.10516,4.49544-4.20632,4.90737a7.961,7.961,0,0,0,0,3.50526c.09979.45792,1.09394,5.01831,4.20632,5.60842,2.76706.52463,5.41715-2.42836,6.30947-4.90737a7.46315,7.46315,0,0,0,0-4.90737,6.36707,6.36707,0,0,0-2.80421-3.50526A5.13331,5.13331,0,0,0,326.85765,161.66536Z"/><path class="cls-13" d="M306.52713,75.43593c.46417.44633-.7625,1.86487-1.4021,4.90737-.40487,1.92579-.29268,3.16128,0,7.01052.69343,9.12048.64576,9.84351,0,10.51578-1.341,1.39614-2.68509-.10864-8.41263.701-3.67881.52006-5.203,1.43474-9.11368,1.40211-2.49057-.02077-3.73589-.03117-4.20631-.701-1.94176-2.76506,7.57721-12.50226,13.32-17.52631C301.03715,77.9619,305.72261,74.66229,306.52713,75.43593Z"/><path class="cls-2" d="M297.41345,88.05487c.41873.51531-5.79044,6.73389-6.30947,6.30947-.283-.23142.98688-2.55137,2.80421-4.20631C295.2515,88.93469,297.20182,87.79444,297.41345,88.05487Z"/><path class="cls-14" d="M362.61131,144.8401c-.42866-1.67146-1.65267-2.75035-1.13424-4.0528.33974-.85349,1.19526-.85775,1.83529-1.55561,2.48972-2.71481,1.72422-7.21863,1.40211-9.11368-.34128-2.008-1.055-4.053-3.50526-8.41263-3.448-6.13489-4.44842-5.88019-7.01053-10.51578-3.66469-6.63035-2.58881-8.90763-6.30947-12.61895a21.54388,21.54388,0,0,0-6.30947-4.20631c-2.88-1.37442-5.7901-2.76322-9.11368-2.10316-1.99712.39664-1.97573,1.10254-4.20631,1.40211a16.27394,16.27394,0,0,1-6.30947-.70105c-3.304-.80024-3.12136-1.271-4.90737-1.40211a12.47388,12.47388,0,0,0-6.30947,1.40211c-2.84417,1.33516-2.33721,2.13655-4.20631,2.80421-3.72982,1.33233-5.76169-1.85437-10.51578-.70106a15.26409,15.26409,0,0,0-3.50527,1.40211,30.45466,30.45466,0,0,0-2.8042,2.10315c-2.62578,1.64838-4.44936-.20979-8.41263.70106-2.07072.47589-1.10241.875-5.60842,2.80421-2.90185,1.24239-4.66,1.65766-6.30947,3.50526a9.47251,9.47251,0,0,0-1.4021,2.10315c-1.38337,2.64913-4.9671,9.51164-9.81474,13.32-4.408,3.463-6.57159,1.81634-8.41262,4.90736-1.64986,2.77-.10595,4.41759-2.10316,9.11368-1.17849,2.771-2.11805,3.14269-2.80421,5.60842-.37261,1.339-1.39038,4.845,0,7.01052,1.96418,3.05921,8.046,2.39868,10.51578,2.10316,19.407-2.32223,25.90642-5.60172,36.45472-6.30947,13.91382-.93357,30.35962,2.91028,35.05262,4.20631.44312.12238,1.22256.34386,2.27747.58448a31.09586,31.09586,0,0,0,4.01385.65937,78.77714,78.77714,0,0,0,9.13183.15826c5.58189-.13618,8.38763-.20019,9.11368,0,4.57883,1.26244,5.47705,4.16269,7.71157,3.50526C361.46012,151.85908,363.36679,147.786,362.61131,144.8401Z"/><path class="cls-13" d="M260.95873,132.92222c-1.95981.06478-3.82643-9.52065-4.90736-14.7221-3.06873-14.76645-5.0668-19.5159-3.50526-20.33052.31937-.16662.95461-.25566,7.71157,5.60842,2.88328,2.50229,3.07806,2.78786,11.21684,10.51578,2.0406,1.93757,3.56345,4.37655,5.60841,6.30948.59879.56594,1.65371,1.53151,1.40211,2.10315-.28147.6394-1.84677-.01112-4.20631.701a7.30688,7.30688,0,0,0-3.50527,2.10316c-.95444,1.10049-.621,1.56075-1.4021,2.10316-1.41332.98151-2.83579-.29591-4.20631.701a7.61322,7.61322,0,0,0-1.40211,2.10316,6.39552,6.39552,0,0,1-1.4021,2.10315A3.05049,3.05049,0,0,1,260.95873,132.92222Z"/><path class="cls-2" d="M260.2358,122.78005a36.83858,36.83858,0,0,0-.8805-9.77516c-.68-2.75923-1.55214-4.59029-1.13848-4.82469.434-.24591,1.6756,1.61013,3.86849,3.87489,4.22832,4.367,7.83422,5.95818,7.61118,6.35333-.20963.37134-3.68856-.51239-6.59849-2.92509-1.64881-1.36708-2.58552-2.78606-3.04448-2.54133-.40739.21724.04543,1.48776.31447,3.49112A17.05543,17.05543,0,0,1,260.2358,122.78005Z"/><path class="cls-15" d="M354.89974,134.32432c-.80092-.20926-.399-1.73874-1.40211-2.80421-1.14468-1.21589-2.56416-.17584-4.20631-1.4021-1.31242-.98-.82069-1.95408-2.10316-2.80421-1.54921-1.027-2.51059.233-4.20631-.701-1.70505-.93913-1.444-2.60452-3.50526-3.50527-.74889-.32727-1.17028-.27654-1.40211-.701-.36362-.6659.50251-1.30189,1.40211-3.50526.88222-2.16084,1.17977-3.22268,2.10315-3.50526.5946-.182.81479.15323,1.40211,0,1.13228-.29539,1.39089-1.8558,2.10316-3.50526a18.35579,18.35579,0,0,1,2.8042-4.20632c1.55906-1.80718,2.96082-2.32756,4.90737-3.50526,5.52053-3.34,4.72757-5.49577,9.81473-8.41262.59357-.34035,2.73558-1.15391,7.01053-2.80421,6.90012-2.66372,7.02-2.43062,9.11367-3.50526,5.49837-2.82219,4.33272-4.25576,9.11368-6.30948,4.3975-1.889,6.18445-1.02015,9.11368-3.50526,1.1203-.95044,2.57307-2.53175,3.50527-2.10315.60982.28037.69249,1.28094.70105,1.4021.1596,2.2606-2.89244,4.01507-4.90737,5.60842-2.81653,2.22729-2.081,2.93335-7.01052,9.81473-6.50621,9.0823-13.44887,15.75532-15.42315,18.92841A21.83553,21.83553,0,0,1,371.725,116.097a8.46167,8.46167,0,0,1-1.4021,1.40211c-1.63308,1.17421-2.6755.54489-3.50526,1.4021-1.03455,1.06882.24441,2.40022-.70106,4.20631-.52176.99677-.93382.63413-3.50526,2.80421a16.77272,16.77272,0,0,0-2.80421,2.80421c-.46691.61235-.83609,1.20094-1.4021,2.10316-.95282,1.51885-1.24464,2.17977-2.10316,2.80421C355.71178,134.05246,355.32232,134.43474,354.89974,134.32432Z"/><path class="cls-4" d="M359.10605,129.417a5.158,5.158,0,0,0-1.4021-2.10315c-1.62974-1.43332-3.18752-.70381-4.90737-2.10316-1.35444-1.102-.76883-1.83517-2.10316-2.80421-1.6875-1.22556-2.766-.156-4.90736-1.4021-1.30284-.75818-1.32808-1.4011-2.80421-2.10316a7.51992,7.51992,0,0,0-2.80421-.701"/><path class="cls-4" d="M344.384,113.9938a4.93068,4.93068,0,0,1,3.50526.70106c.64389.46379.68608.81442,1.40211,1.4021,1.29316,1.06136,2.09811.69115,3.50526,1.40211,1.92584.97306,1.3932,2.15931,3.50526,3.50526,1.33827.85282,1.85755.57123,3.50526,1.4021a11.17428,11.17428,0,0,1,3.50526,2.80421"/><path class="cls-4" d="M366.81763,118.90117a4.98562,4.98562,0,0,0-1.40211-2.10316c-1.35076-1.16625-2.52873-.74283-4.20631-2.10315-.78732-.63841-.60581-.79483-1.40211-1.40211-1.26612-.96553-2.1005-.85637-3.50526-1.4021-2.1177-.82266-2.06969-1.78858-4.90736-3.50526a19.48935,19.48935,0,0,0-2.80421-1.40211"/><path class="cls-4" d="M355.60079,102.07592a26.56856,26.56856,0,0,1,3.50526,2.80421c1.28076,1.21439,1.17036,1.36023,2.10316,2.10315,2.05754,1.63869,3.07335,1.33159,4.20631,2.80421.78235,1.01692.579,1.52863,1.40211,2.10316.94768.66151,1.70547.32389,2.80421.70105a5.128,5.128,0,0,1,2.8042,2.80421"/><path class="cls-4" d="M376.63236,109.78749c-1.16891-1.20222-2.14-2.15885-2.80421-2.80421a32.9863,32.9863,0,0,1-2.80421-2.80421c-1.48914-1.82248-1.15367-2.18-2.10316-2.80421-1.28015-.84167-2.11531-.34-3.50526-1.4021-.68967-.527-.648-.77583-1.4021-1.40211a7.13414,7.13414,0,0,0-2.80421-1.4021"/><path class="cls-4" d="M369.62184,92.96224a9.56785,9.56785,0,0,0,3.50526,3.50526,6.36518,6.36518,0,0,1,2.80421,2.10315c.46434.72885.26811.91738.70105,1.40211.95607,1.07034,2.24256.52033,3.50526,1.4021a3.78368,3.78368,0,0,1,1.4021,2.10316"/><path class="cls-4" d="M385.746,99.27171c-1.20451-1.12706-2.1474-2.10111-2.80421-2.80421-1.32175-1.415-1.43411-1.67824-2.10316-2.10316-1.54065-.97845-2.43066-.52592-3.50526-1.4021a4.25638,4.25638,0,0,1-1.4021-2.80421"/><path class="cls-4" d="M381.53972,88.05487a4.02128,4.02128,0,0,0,1.40211,1.40211c1.55417.89377,2.88277.08645,4.20631.701.7263.33726,1.61562,1.17913,2.10316,3.50526"/><path class="cls-4" d="M393.45761,88.05487a4.55979,4.55979,0,0,0-2.10315-2.10316c-.83567-.375-1.38431-.23946-2.10316-.70105a3.58767,3.58767,0,0,1-1.40211-2.10316"/><path class="cls-2" d="M361.20921,132.22116c.29875.06637.30679,1.55921,0,2.80421a6.437,6.437,0,0,1-2.10316,3.50526c-2.52214,2.00319-6.28072,1.072-6.30947.70106-.02679-.34533,3.20266.10226,5.60842-2.10316C360.59425,135.12158,360.78277,132.12647,361.20921,132.22116Z"/><path class="cls-2" d="M345.78606,142.0359c.08686.29483-4.968,3.06222-11.21684,2.8042a28.09859,28.09859,0,0,1-7.01052-1.4021c-3.54668-1.0157-7.10312-2.50548-7.01052-2.80421.05348-.17252,1.30523.1126,4.20631.70105,6.86812,1.39317,10.34856,2.09,12.61894,2.10316C342.52007,143.46782,345.71725,141.8022,345.78606,142.0359Z"/><path class="cls-2" d="M338.77553,132.22116c1.68674.55688,3.63757,1.6015,3.50527,2.10316-.18639.70659-4.45638.15013-5.60842,0-9.33481-1.21649-11.15317-4.47871-18.92841-6.30947-5.939-1.3984-16.25249-2.17329-20.33052.70105a6.35263,6.35263,0,0,1-4.20631,1.40211c-1.51053-.15011-2.8986-1.06273-2.80421-1.40211.09841-.35384,1.77394.03853,3.50526,0,3.82917-.08523,5.47783-2.2236,8.41263-3.50526,1.86884-.81615,6.15329-.31041,14.72209.701,8.49829,1.00314,9.77178,1.66288,10.51579,2.10316,2.414,1.42848,3.41335,3.00784,6.30947,3.50526C335.56346,131.81129,336.62582,131.51143,338.77553,132.22116Z"/><path class="cls-2" d="M345.59941,104.37605c.243-.40654-3.52528-6.27629-9.37084-7.27682a61.07479,61.07479,0,0,0-6.56671.06932,45.40246,45.40246,0,0,1-7.01053,0c-2.51607-.27186-4.18415-.78749-4.20631-.701a29.45626,29.45626,0,0,0,6.93461,2.04154c6.75816,1.29971,8.36822-.17255,12.88,1.32433C343.14453,101.45407,345.4304,104.65886,345.59941,104.37605Z"/><path class="cls-2" d="M314.93976,135.72643c-.00847.21315-1.56573.16976-4.20632.70105a19.40754,19.40754,0,0,0-4.20631,1.4021c-4.31662,1.78012-10.62507-.29291-16.82525,0-7.70944.36422-7.17663,4.00491-17.52631,5.60842-6.8267,1.0577-12.61749.16069-12.61894,0-.001-.11615,3.017-.03564,7.71157-.701a45.65214,45.65214,0,0,0,7.01053-1.40211c5.59541-1.69114,5.157-3.43,9.81473-4.90736a24.65246,24.65246,0,0,1,12.61894-.70105,14.86837,14.86837,0,0,0,4.90736.70105c2.49049-.13487,3.10562-.93481,5.60842-1.40211C311.30433,134.26433,314.95268,135.40035,314.93976,135.72643Z"/><path class="cls-2" d="M263.06189,137.12853c.03278.20457-.8034.49391-1.40211.701-3.19812,1.10654-4.42385.30562-6.30947,1.40211-.99107.5763-1.02393,1.01358-2.10315,1.4021-1.15453.41563-2.62176.457-2.80421,0-.20162-.505,1.18927-1.55907,2.10316-2.10316.60785-.36188,1.89349-1.0274,5.60841-1.4021C259.66548,136.97614,262.99779,136.72867,263.06189,137.12853Z"/><path class="cls-2" d="M303.59619,95.96c5.43243,2.11639,8.0049,4.49677,9.3452,6.36008.4034.56075,1.1681,1.73217,1.55253,1.58252.51591-.20082.31744-2.76913-.585-4.39508-2.2064-3.97547-9.33754-3.60911-10.3127-3.54752"/><path class="cls-2" d="M287.41652,99.431c-.0344.34793,2.25292.26494,5.08956,1.94391,2.82527,1.67221,3.88164,3.72268,4.20632,3.50527.37072-.24827-.42318-3.31231-2.80421-4.90737C291.17415,98.14118,287.45991,98.99185,287.41652,99.431Z"/><path class="cls-2" d="M276.08423,102.0102a4.34273,4.34273,0,0,1,3.49921-.20581c1.01557.34244,1.8188,1.03087,1.75372,1.16093a16.83934,16.83934,0,0,1-2.14069-.57636C277.25409,101.94512,276.09455,102.15015,276.08423,102.0102Z"/><path class="cls-2" d="M335.27027,114.69486c.15165.24618-1.339,2.05808-3.50526,2.80421-3.54351,1.22048-5.6002-1.54552-11.21683-2.10316-4.58611-.45532-7.65664.94779-7.71158.701-.07231-.32451,5.10428-3.3577,10.51578-2.10316,3.18546.73848,4.54452,2.52037,7.71158,2.10316C333.44507,115.7833,335.12188,114.454,335.27027,114.69486Z"/><path class="cls-2" d="M298.81556,113.9938c-1.39774.85465-1.14255,1.07054-2.80421,2.10316a16.05037,16.05037,0,0,1-8.41263,2.80421,14.12911,14.12911,0,0,1-6.30947-1.4021c-.23226-.10544-2.22023-1.00787-2.10316-1.40211.0475-.16.46058-.29871,2.80421,0,4.41735.563,5.2786,1.35275,7.01052,1.40211,3.02569.08622,3.56979-2.23345,7.71158-4.20632a18.21439,18.21439,0,0,1,11.21683-1.4021A15.87927,15.87927,0,0,0,298.81556,113.9938Z"/><path class="cls-2" d="M290.40293,112.5917a5.542,5.542,0,0,1-4.20632.701c-2.18291-.40758-2.41175-1.646-4.20631-2.10315-3.41446-.86986-6.66179,2.57531-7.01052,2.10315-.22849-.30945,1.05851-1.9351,2.80421-2.80421a7.5952,7.5952,0,0,1,3.50526-.701,5.75416,5.75416,0,0,1,3.50526.701c.80229.532.66785.86815,1.4021,1.40211C287.96961,113.18,290.37494,112.39919,290.40293,112.5917Z"/><path class="cls-2" d="M285.49556,126.61275c.05794.36941-2.33182.33264-4.90736,2.10315-2.06576,1.42008-2.00552,2.4591-4.20632,3.50526a7.21045,7.21045,0,0,1-3.50526.70106c-.19144-.01216-2.006-.12736-2.10316-.70106-.0801-.47309,1.01735-1.20142,2.10316-1.4021.98278-.18164,1.21075.20669,2.10316,0a4.70859,4.70859,0,0,0,2.10315-1.40211c1.2117-1.10354,1.21341-1.54611,2.10316-2.10315a5.59047,5.59047,0,0,1,2.10316-.701C283.17658,126.24093,285.43917,126.253,285.49556,126.61275Z"/></g></g></svg>